<svg xmlns="http://www.w3.org/2000/svg">
<defs>
<font id="MinecraftEveningsbyYaconts" horiz-adv-x="589" >
  <font-face 
    font-family="Minecraft Evenings (by Yaconts)"
    font-weight="400"
    font-stretch="normal"
    units-per-em="2048"
    panose-1="2 0 5 0 0 0 0 0 0 0"
    ascent="1638"
    descent="-410"
    x-height="1432"
    cap-height="1437"
    bbox="-142 -299 2218 1988"
    underline-thickness="150"
    underline-position="-292"
    unicode-range="U+001D-F002"
  />
<missing-glyph horiz-adv-x="2316" 
d="M828 1242q312 -5 463 -5h168l23 -4l-13 -622q0 -28 -32 -28h-9q0 22 -182 28q-32 -18 -45 -18q-17 63 -28 63h-86l-9 -27q0 -12 9 -195q-18 -23 -36 -23h-55q-27 0 -27 18h-9l-23 -18h-95q-5 0 -5 -5q-41 0 -41 32q19 250 19 282h-5l5 9v236q0 19 4 50l-4 9q4 8 4 18
q0 5 -4 14q4 8 4 18q0 5 -4 14q4 8 4 18v9q0 4 -4 4l4 9v19q0 4 -4 4l4 9v68zM1546 1242h195q59 0 59 -100q9 -95 9 -154v-28l5 -27q-5 -7 -5 -23v-18q0 -4 5 -4q-9 -17 -9 -37v-13q0 -12 9 -123v-122l4 -23h127q37 0 37 -50q-19 0 -41 -50q-23 -12 -23 -18q14 -21 14 -27
h13q21 59 50 59h19l4 22v5l-9 13v32q0 7 14 14h159q27 0 36 -55q-23 -61 -27 -100l-23 -4h-600q-14 0 -50 182q-4 456 -4 626q6 23 32 23zM42 1237h205q32 0 32 -72l9 -46q0 -16 -55 -22v-5q0 -16 132 -27q9 -20 18 -91q-18 -44 -18 -54l14 -10h49q55 0 55 141l9 5l18 -14
h41q52 -9 191 -18v5q-12 20 -127 27q0 6 -28 27h-4q-16 0 -41 -4q-77 43 -77 127q13 31 41 31h204q32 0 32 -72q4 -75 13 -127q0 -5 -4 -5l4 -23v-109q0 -4 5 -4l-5 -9v-23q0 -4 5 -4l-5 -10v-13q0 -10 5 -18q-5 -8 -5 -19q0 -10 5 -18q-5 -8 -5 -18t5 -18q-5 -8 -5 -18
q0 -5 5 -14q-5 -8 -5 -18v-9q0 -5 5 -5l-5 -9v-231q0 -37 -27 -37h-9q-41 0 -41 68q-14 28 -18 28l-9 -5q9 -31 9 -54q-4 -37 -18 -37h-154q-15 0 -19 55q14 23 14 32q-9 56 -9 95q0 27 27 27q47 -18 50 -18q41 9 59 9q53 0 64 -100v-9h4q9 0 9 9v32q0 16 5 41q0 35 -91 54
q-3 0 -59 -4q-58 18 -82 32q-38 -5 -59 -5q-27 48 -27 114q41 12 41 18v4q-69 19 -96 19h-22q-9 -2 -9 -10q0 -18 4 -49q0 -105 -22 -105q-91 9 -141 27l-23 -4q0 9 -9 9h-55q-4 0 -4 -5q-29 6 -41 23q0 536 23 536zM978 1083l-5 -32v-32q3 -27 14 -27h95v-13q0 -46 -54 -46

<glyph glyph-name=".notdef" horiz-adv-x="2316" 
d="M828 1242q312 -5 463 -5h168l23 -4l-13 -622q0 -28 -32 -28h-9q0 22 -182 28q-32 -18 -45 -18q-17 63 -28 63h-86l-9 -27q0 -12 9 -195q-18 -23 -36 -23h-55q-27 0 -27 18h-9l-23 -18h-95q-5 0 -5 -5q-41 0 -41 32q19 250 19 282h-5l5 9v236q0 19 4 50l-4 9q4 8 4 18
q0 5 -4 14q4 8 4 18q0 5 -4 14q4 8 4 18v9q0 4 -4 4l4 9v19q0 4 -4 4l4 9v68zM1546 1242h195q59 0 59 -100q9 -95 9 -154v-28l5 -27q-5 -7 -5 -23v-18q0 -4 5 -4q-9 -17 -9 -37v-13q0 -12 9 -123v-122l4 -23h127q37 0 37 -50q-19 0 -41 -50q-23 -12 -23 -18q14 -21 14 -27
h13q21 59 50 59h19l4 22v5l-9 13v32q0 7 14 14h159q27 0 36 -55q-23 -61 -27 -100l-23 -4h-600q-14 0 -50 182q-4 456 -4 626q6 23 32 23zM42 1237h205q32 0 32 -72l9 -46q0 -16 -55 -22v-5q0 -16 132 -27q9 -20 18 -91q-18 -44 -18 -54l14 -10h49q55 0 55 141l9 5l18 -14
h41q52 -9 191 -18v5q-12 20 -127 27q0 6 -28 27h-4q-16 0 -41 -4q-77 43 -77 127q13 31 41 31h204q32 0 32 -72q4 -75 13 -127q0 -5 -4 -5l4 -23v-109q0 -4 5 -4l-5 -9v-23q0 -4 5 -4l-5 -10v-13q0 -10 5 -18q-5 -8 -5 -19q0 -10 5 -18q-5 -8 -5 -18t5 -18q-5 -8 -5 -18
q0 -5 5 -14q-5 -8 -5 -18v-9q0 -5 5 -5l-5 -9v-231q0 -37 -27 -37h-9q-41 0 -41 68q-14 28 -18 28l-9 -5q9 -31 9 -54q-4 -37 -18 -37h-154q-15 0 -19 55q14 23 14 32q-9 56 -9 95q0 27 27 27q47 -18 50 -18q41 9 59 9q53 0 64 -100v-9h4q9 0 9 9v32q0 16 5 41q0 35 -91 54
q-3 0 -59 -4q-58 18 -82 32q-38 -5 -59 -5q-27 48 -27 114q41 12 41 18v4q-69 19 -96 19h-22q-9 -2 -9 -10q0 -18 4 -49q0 -105 -22 -105q-91 9 -141 27l-23 -4q0 9 -9 9h-55q-4 0 -4 -5q-29 6 -41 23q0 536 23 536zM978 1083l-5 -32v-32q3 -27 14 -27h95v-13q0 -46 -54 -46
q0 -9 -9 -82q9 -14 9 -27v-32q1 -9 9 -9h32q12 0 27 59l23 5h4q82 0 82 -41v-27h46q10 0 27 113q-23 33 -23 55h-14l-31 -5q-14 19 -14 46l9 4h27q82 0 82 18q5 24 5 46v23h-91q-30 0 -46 -73q-15 -9 -27 -9h-63q4 45 4 68l-4 18h-114zM88 665q0 -15 59 -27q0 -9 91 -23
q54 -36 54 -172q-6 -37 -36 -37h-55q-20 28 -40 28h-14q-18 -28 -23 -28h-95q-25 0 -32 19q9 29 9 40v173q0 10 82 27zM1255 593q132 -10 132 -32q45 0 72 -37v-9q0 -100 -45 -100q0 -4 -18 -4h-186q-37 3 -37 32q17 140 41 140q41 0 41 10zM42 393q0 -7 114 -114h9v73
q0 6 14 13h13q28 0 28 -27v-177q0 -9 -10 -9q0 6 -113 114h-9v-73q0 -7 -14 -14h-13q-28 0 -28 28v177q2 9 9 9zM315 365q95 0 95 -104v-68q0 -7 -13 -14h-28q-6 0 -13 14v27h-73v-13q0 -28 -27 -28h-14q-6 0 -13 14v77q0 91 81 91q0 4 5 4zM447 365q27 0 27 -27v-104h113
q7 0 14 -14v-27q0 -7 -14 -14h-154q-7 0 -14 14v145q0 27 28 27zM728 365h50q7 0 14 -13v-27q0 -7 -14 -14h-77q-25 0 -36 -23v-22q0 -23 22 -32h46v9q-32 0 -32 13v28q0 6 14 13h63q7 0 14 -13v-91q0 -7 -14 -14h-63q-105 0 -105 96q0 90 118 90zM896 365q91 -19 91 -90
q0 -5 5 -5v77q1 9 9 9l81 -81q9 0 91 81l5 -9v-154q0 -7 -14 -14h-27q-7 0 -14 14v32h-9l-32 -28q0 7 -27 28h-9v-32q0 -7 -13 -14h-14q-15 0 -32 14q-4 -14 -27 -14h-5q-27 0 -27 28v13h-73v-27q0 -7 -13 -14h-27q-7 0 -14 14v63q0 109 95 109zM1201 365h140q28 0 28 -27
v-13q0 -7 -14 -14h-154q-7 0 -14 14v27q0 6 14 13zM1469 365h77q6 0 13 -13v-27q0 -7 -13 -14h-109v-14h68q54 0 54 -59t-81 -59h-87q-6 0 -13 14v27q0 7 13 14h109v9h-27q-95 0 -95 59q0 63 91 63zM1723 365q91 -9 91 -81l-9 -5h-32q-25 32 -46 32h-4q-25 0 -36 -23v-32
q0 -6 22 -22h32q3 0 32 32h32q9 -2 9 -10q0 -67 -91 -77q-82 0 -91 96q14 90 91 90zM1914 365q95 -13 95 -95q0 -80 -95 -91q-77 0 -91 96q19 90 91 90zM2027 352q70 -77 82 -77q7 0 86 77l5 -9v-150q0 -7 -14 -14h-27q-7 0 -14 14v32h-9l-32 -28q0 7 -22 23h-9v-13
q0 -28 -28 -28h-13q-7 0 -14 14v150q1 9 9 9zM283 293v-18h73v13q-12 23 -37 23q-36 -5 -36 -18zM855 288v-13h73v18q-5 18 -45 18q-19 -6 -28 -23zM1877 261q10 -27 37 -27h18q22 11 22 36v5q0 36 -36 36h-4q-37 0 -37 -50zM1201 297h154q6 0 14 -13v-14q0 -27 -28 -27
h-140q-7 0 -14 13v28q0 6 14 13zM1201 234h154q6 0 14 -14v-27q0 -7 -14 -14h-154q-7 0 -14 14v27q0 7 14 14zM1582 234h27q7 0 14 -14v-27q0 -7 -14 -14h-27q-6 0 -14 14v27q0 7 14 14z" />
    <glyph glyph-name=".null" horiz-adv-x="0" 
 />
    <glyph glyph-name=".null" horiz-adv-x="0" 
 />
    <glyph glyph-name="nonmarkingreturn" horiz-adv-x="508" 
 />
    <glyph glyph-name="space" unicode=" " horiz-adv-x="508" 
 />
    <glyph glyph-name="space" unicode="&#xa0;" horiz-adv-x="508" 
 />
    <glyph glyph-name="exclam" unicode="!" 
d="M42 348h374q56 0 57.5 -39.5t11.5 -253.5q-18 -55 -63 -55h-41q-43 0 -132 132q-14 -3 -14 -14v-28q0 -49 14 -76l-21 -14h-180q-20 0 -48 104q7 154 1 223q7 21 41 21zM430 489h-374q-55 0 -55 118v90q0 25 -7 62q0 45 62 55h70q62 33 62 42v14q-45 0 -90 -7
q-90 14 -90 34v132q0 292 -7 349q18 55 62 55h42q43 0 131 -132q14 3 14 14v28q0 49 -14 76l21 14h180q20 0 49 -104q-7 -177 -7 -390l-7 -62l7 -14q-7 -128 -7 -215v-138q-7 -21 -42 -21z" />
    <glyph glyph-name="quotedbl" unicode="&#x22;" horiz-adv-x="1116" 
d="M45 1437h374q56 0 57.5 -39.5t8.5 -545.5q-18 -55 -63 -55h-41q-43 0 -132 132q-14 -3 -14 -14v-28q0 -49 14 -76l-21 -14h-180q-20 0 -48 104q7 340 4 515q7 21 41 21zM576 1437h374q56 0 57.5 -39.5t8.5 -545.5q-18 -55 -63 -55h-41q-43 0 -132 132q-14 -3 -14 -14v-28
q0 -49 14 -76l-21 -14h-180q-20 0 -48 104q7 340 4 515q7 21 41 21z" />
    <glyph glyph-name="dollar" unicode="$" horiz-adv-x="1270" 
d="M56 1432h111q44 0 97 -48l-7 -35v-35q0 -7 7 -7q-7 -13 -7 -21q0 -21 -7 -132h7q-8 -47 -21 -62l-34 6h-139q-38 0 -56 28q17 306 49 306zM583 1425q-3 3 -5 7q-9 -2 -12 -7h17zM811 1425h4v-7q7 -187 35 -187h7v27q0 174 69 174h91q91 0 125 -42q-7 -104 -7 -152v-77
q0 -14 -14 -14h-7q-56 70 -83 70h-98l-69 7q0 -7 -7 -7q10 -29 35 -42h104l35 -7v-14q0 -14 -14 -14h-516l-7 -35q14 -62 27 -236h586q14 0 21 -69q0 -14 -7 -14q7 -70 7 -105v-187q0 -16 7 -28q0 -35 -257 -56q0 -14 -35 -14l-14 7q-28 -10 -28 -21v-7l132 -20q64 20 77 20
q111 0 111 -104q0 -83 7 -83l-7 -14q7 -84 7 -125q0 -49 -69 -49h-245q2 -43 4 -96q-18 -55 -63 -55h-41q-43 0 -132 132q-14 -3 -14 -14v-28q0 -49 14 -76l-21 -14h-180q-20 0 -48 104q1 25 2 47h-307q-10 0 -21 21v62q0 24 -7 35q0 167 83 167h35q319 0 417 -14q25 6 24 7
l69 -7q0 51 34 285l-14 7h-27q-239 0 -239 28l-7 28l7 35q0 71 -41 97l-14 -7l7 -35q0 -132 -84 -132q-59 0 -208 -7q-7 14 -7 21q0 59 -7 222l21 35v14q-21 0 -21 14v146q0 23 90 35q80 -7 153 -7l14 21v76q0 29 7 77q-7 12 -7 27q30 64 59 104q-7 21 -15 49q7 154 1 223
q7 21 41 21h374q56 0 58 -39q1 -33 8 -184z" />
    <glyph glyph-name="ampersand" unicode="&#x26;" horiz-adv-x="1778" 
d="M229 339q8 -11 20 -55l-7 -14q7 -93 7 -138h7l-7 -14v-35q0 -15 7 -28q0 -32 -97 -55h-111q-33 0 -48 312q35 21 55 21h139zM774 7h-331q-90 0 -166 173q0 16 7 28q-7 47 -7 76v76q0 18 -28 21q-55 0 -145 -7q-83 14 -83 35v145q0 7 -7 7l7 14v7q0 28 -7 55q0 14 7 14
q-7 69 -7 104v187q0 16 -7 28q0 35 256 55q0 12 35 14l14 -7q27 11 27 21v7l-131 21q-64 -21 -76 -21q-111 0 -111 104q0 83 -7 83l7 14q-7 83 -7 125q0 48 69 48h1053q10 0 21 -21v-62q0 -23 7 -35q0 -166 -83 -166h-35q-317 0 -416 14q-27 -7 -48 -7l-69 7q0 -50 -35 -284
l14 -7h28q110 0 174 -5v141q0 37 35 55h375l48 -14q40 0 63 -302q-7 -9 -7 -49v-21l7 -14q-14 0 -14 -48v-28q0 -17 14 -222l4 -54q0 -18 14 -41l48 7h65q53 0 62 -84q0 -10 -34 -20q-38 -98 -77 -98q24 -55 35 -55q56 69 62 97q77 0 77 42q0 6 -14 55v42q11 21 21 21h122
q47 0 62 -104q-5 -2 -35 -84q0 -90 -48 -90h-791zM701 568h-188q-7 -116 -28 -249q7 -12 7 -28h219q-9 63 -10 116v161z" />
    <glyph glyph-name="quotesingle" unicode="'" 
d="M45 1437h374q56 0 57.5 -39.5t8.5 -545.5q-18 -55 -63 -55h-41q-43 0 -132 132q-14 -3 -14 -14v-28q0 -49 14 -76l-21 -14h-180q-20 0 -48 104q7 340 4 515q7 21 41 21z" />
    <glyph glyph-name="comma" unicode="," 
d="M48 354h374q56 0 57.5 -39.5t8.5 -545.5q-18 -55 -63 -55h-41q-43 0 -132 132q-14 -3 -14 -14v-28q0 -49 14 -76l-21 -14h-180q-20 0 -48 104q7 340 4 515q7 21 41 21z" />
    <glyph glyph-name="hyphen" unicode="-" horiz-adv-x="670" 
 />
    <glyph glyph-name="hyphen" unicode="&#xad;" horiz-adv-x="670" 
 />
    <glyph glyph-name="period" unicode="." 
d="M42 348h374q56 0 57.5 -39.5t11.5 -253.5q-18 -55 -63 -55h-41q-43 0 -132 132q-14 -3 -14 -14v-28q0 -49 14 -76l-21 -14h-180q-20 0 -48 104q7 154 1 223q7 21 41 21z" />
    <glyph glyph-name="zero" unicode="0" horiz-adv-x="1279" 
d="M1154 0h-370q-72 0 -83 89v62q0 10 -20 20h-14q0 -27 -27 -116v-48q-12 -7 -28 -7h-98q-30 0 -130 103q-44 -19 -130 -41q-18 -55 -62 -55h-103q-23 0 -48 20q-7 149 -14 549q28 75 62 75l41 -6l7 13v14q-116 14 -116 41q-7 38 -7 55q-7 460 -7 542q-7 36 -7 41
q23 75 69 75h612q124 0 336 7q96 -20 96 -27q68 -227 68 -542v-295l7 -41l-7 -14q7 -212 7 -336v-123q0 -37 -34 -55zM688 281q-7 196 -14 240q7 27 7 55v21q0 6 -7 6q14 25 14 55v28q-14 202 -14 219v206l-7 34h-105q-48 0 -48 -199q-7 -24 -7 -27h-20q-43 41 -62 41
q-41 -14 -164 -28l-117 14v-14q0 -20 123 -34h138q52 0 116 -110q0 -100 -48 -459q20 -48 62 -48h153z" />
    <glyph glyph-name="one" unicode="1" 
d="M55 1433h374q56 0 56 -118v-90q0 -25 7 -62q0 -45 -63 -55h-69q-62 -33 -62 -42v-14q44 0 90 7q90 -14 90 -34v-132q0 -292 7 -838q-18 -55 -63 -55h-41q-43 0 -132 132q-14 -3 -14 -14v-28q0 -49 14 -76l-21 -14h-180q-20 0 -48 104q7 666 7 879l7 62l-7 14q7 128 7 215
v138q7 21 41 21z" />
    <glyph glyph-name="two" unicode="2" horiz-adv-x="1270" 
d="M7 306q18 28 56 28h139l34 7q13 -16 21 -63h-7q7 -110 7 -132q0 -7 7 -21q-7 0 -7 -7v-35l7 -34q-53 -49 -97 -49h-111q-32 0 -49 306zM857 174v28h-7q-28 0 -35 -188v-7h-377q-71 0 -153 174q0 15 7 28q-7 47 -7 76v77l-14 20q-73 0 -153 -7q-90 12 -90 35v146
q0 14 21 14v14l-21 35q7 164 7 222q0 8 7 21q149 -7 208 -7q84 0 84 -132l-7 -35l14 -7q41 26 41 98l-7 34l7 28q0 28 239 28h27l14 7q-34 235 -34 285l-70 -7q5 0 -23 7q-98 -14 -417 -14h-35q-83 0 -83 167q7 12 7 35v62q11 21 21 21h1031q69 0 69 -48q0 -42 -7 -126
l7 -14q-7 0 -7 -83q0 -104 -111 -104q-13 0 -77 21l-132 -21v-7q0 -11 28 -21l14 7q35 0 35 -14q257 -20 257 -56q-7 -12 -7 -27v-188q0 -35 -7 -104q7 0 7 -14q-7 -70 -21 -70h-586q-13 -174 -27 -236l7 -35h516q14 0 14 -14v-14l-35 -7h-104q-25 -13 -35 -41q7 0 7 -7
l69 7h98q27 0 83 69h7q14 0 14 -14v-76q0 -49 7 -153q-34 -42 -125 -42h-91q-69 0 -69 174z" />
    <glyph glyph-name="three" unicode="3" horiz-adv-x="1255" 
d="M1081 0h-1053q-10 0 -21 21v62q0 23 -7 35q0 166 83 166h35q317 0 415 -14q28 7 49 7l69 -7q0 50 35 284l-14 7h-28q-263 0 -263 28l-7 28l7 34q0 72 -42 97l-13 -7l7 -34q0 -132 -84 -132q-58 0 -207 -7q-7 13 -7 21q0 58 -7 222q26 55 69 55h180q35 0 62 -62h7
q0 62 49 62h256q7 116 28 249q-7 12 -7 28h-540q-14 2 -14 14v14l34 7h104q25 13 35 41q-7 0 -7 7l-69 -7h-97q-27 0 -83 -69h-7q-14 2 -14 14v76q0 49 -7 152q33 42 125 42h90q69 0 69 -173v-28h7q29 0 35 194h387q91 0 167 -173q0 -16 -7 -28q7 -47 7 -76v-76
q0 -18 27 -21q56 0 146 7q83 -14 83 -35v-145q0 -7 7 -7l-7 -14v-7q0 -28 7 -55q0 -14 -7 -14q7 -69 7 -104v-187q0 -16 7 -28q0 -35 -256 -55q0 -12 -35 -14l-14 7q-28 -11 -28 -21v-7l132 -21q64 21 76 21q111 0 111 -104q0 -83 7 -83l-7 -14q7 -83 7 -125q0 -48 -69 -48z
M935 1095q-8 11 -21 55l7 14q-7 93 -7 138h-6l6 14v35q0 15 -6 28q0 32 96 55h111q34 0 49 -312q-35 -21 -56 -21h-138z" />
    <glyph glyph-name="four" unicode="4" horiz-adv-x="1305" 
d="M1123 1433q55 0 55 -103q7 0 14 -49l-21 -165q7 -43 35 -117q0 -117 -76 -117q-104 0 -131 -90q-12 -7 -28 -7h-68q-35 0 -62 -34l124 -21h186l20 -13l-7 -49v-7q0 -14 28 -110q-35 -224 -35 -317q14 -34 21 -34q0 -8 -7 -21q7 -72 7 -117q-28 -62 -69 -62h-368
q-70 64 -66 276q0 28 21 186v34q0 31 -42 62q-174 7 -254 7h-221l-14 7q13 69 55 69h69q35 0 62 34l-124 21h-186l-20 14l7 48v7q0 14 -28 110q34 218 34 331v13q-20 90 -20 97v34q0 57 76 76h130l35 -7v-69q0 -10 21 -20h6q14 96 56 96h103q44 0 55 -55l-7 -14v-14
q0 -48 35 -137q-10 -207 -49 -207q-170 -14 -317 -34v-14h317l49 -69l20 -14h48l83 -7q14 27 21 138q0 7 -7 21q14 122 14 261q36 152 76 152h344z" />
    <glyph glyph-name="five" unicode="5" horiz-adv-x="1270" 
d="M56 1432h111q44 0 97 -48l-7 -35v-35q0 -7 7 -7q-7 -13 -7 -21q0 -21 -7 -132h7q-8 -47 -21 -62l-34 6h-139q-38 0 -56 28q17 306 49 306zM1017 1432q91 0 125 -42q-7 -104 -7 -152v-77q0 -14 -14 -14h-7q-56 70 -83 70l-35 -42l35 -7v-14q0 -14 -14 -14h-516l-7 -35
q14 -62 27 -236h586q14 0 21 -69q0 -14 -7 -14q7 -70 7 -105v-187q0 -16 7 -28q0 -35 -257 -56q0 -14 -35 -14l-14 7q-28 -10 -28 -21v-7l132 -20q64 20 77 20q111 0 111 -104q0 -83 7 -83l-7 -14q7 -84 7 -125q0 -49 -69 -49h-1031q-10 0 -21 21v62q0 24 -7 35
q0 167 83 167h35q319 0 417 -14q28 7 23 7l70 -7q0 51 34 285l-14 7h-27q-239 0 -239 28l-7 28l7 35q0 71 -41 97l-14 -7l7 -35q0 -132 -84 -132q-59 0 -208 -7q-7 14 -7 21q0 59 -7 222l21 35v14q-21 0 -21 14v146q0 23 90 35q80 -7 153 -7l14 21v76q0 29 7 77q-7 12 -7 27
q82 174 153 174z" />
    <glyph glyph-name="six" unicode="6" horiz-adv-x="1270" 
d="M56 1432h111q44 0 97 -48l-7 -35v-35q0 -7 7 -7q-7 -13 -7 -21q0 -21 -7 -132h7q-8 -47 -21 -62l-34 6h-139q-38 0 -56 28q17 306 49 306zM381 679q-7 51 -40 72l-14 -7l7 -35q0 -12 -1 -22q23 -1 48 -8zM54 571q-6 -1 -12 -1q-7 14 -7 21q0 59 -7 222l21 35v14
q-21 0 -21 14v146q0 23 90 35q80 -7 153 -7l14 21v76q0 29 7 77q-7 12 -7 27q82 174 153 174h377v-7q7 -187 35 -187h7v27q0 174 69 174h91q91 0 125 -42q-7 -104 -7 -152v-77q0 -14 -14 -14h-7q-56 70 -83 70h-98l-69 7q0 -7 -7 -7q10 -29 35 -42h104l35 -7v-14
q0 -14 -14 -14h-516l-7 -35q14 -62 27 -236h586q14 0 21 -69q0 -14 -7 -14q7 -70 7 -105v-187q0 -16 7 -28q0 -35 -257 -56q0 -14 -35 -14l-14 7q-28 -10 -28 -21v-7l132 -20q64 20 77 20q111 0 111 -104q0 -83 7 -83l-7 -14q7 -84 7 -125q0 -49 -69 -49h-1031q-10 0 -21 21
v62q0 24 -7 35q0 73 16 114q16 225 38 339zM489 276q27 -2 46 -5q25 6 24 7l69 -7q0 51 34 285l-14 7h-27q-69 0 -118 2l-3 -14v-56q0 -11 13 -11q-13 -22 -13 -34q0 -31 -11 -174z" />
    <glyph glyph-name="seven" unicode="7" horiz-adv-x="1168" 
d="M608 14q-40 0 -63 521q7 9 7 48v21l-7 14q14 0 14 49v27q0 18 -14 223v208q0 19 -14 41l-48 -6h-167q-53 0 -62 83q0 10 34 21q38 97 77 97q-24 55 -35 55q-56 -69 -62 -97q-77 0 -77 -41q0 -7 14 -56v-42q-11 -20 -21 -20h-122q-47 0 -62 104q5 2 35 83q0 90 48 90h893
l14 -7q69 -245 69 -555v-299l7 -48q-7 0 -7 -7q7 -215 7 -340v-125q0 -38 -35 -56h-375z" />
    <glyph glyph-name="eight" unicode="8" horiz-adv-x="1276" 
d="M358 0q-38 7 -55 7q-69 -7 -172 -7t-103 28v41q0 28 -7 55q7 101 27 151q-27 261 -34 268l27 117v7l-7 48l21 14h186q123 16 123 27q-41 28 -61 28h-69q-32 0 -69 75q-42 20 -144 35q-12 25 -21 103q28 74 34 117l-20 165q22 151 62 151h777q13 0 13 -14v-13
q-20 -26 -20 -49v-68q0 -59 7 -124l-7 -28q27 -151 62 -137h6q-27 50 -27 165v186q16 30 69 82h130l35 7q19 0 34 -406q-12 -12 -158 -27q-36 7 -69 7l-7 -14q44 -24 165 -41q83 -38 83 -179q7 -121 7 -144q0 -27 -28 -117l21 -48l-21 -35l21 -412q-7 0 -7 -7l-14 7
q-25 -14 -55 -14h-412q-143 0 -323 -7zM667 275l27 261q-6 14 -6 21h-131q-55 -30 -55 -76l-14 -7h-316v-13q344 -33 344 -55q11 -131 27 -131l48 7q61 -7 76 -7zM612 866h34l14 7l-14 124q35 46 35 69v41l-7 34h-138q-10 0 -27 -27v-21q0 -32 7 -69l-7 -27q7 -111 20 -138z
" />
    <glyph glyph-name="nine" unicode="9" horiz-adv-x="1270" 
d="M56 1432h111q44 0 97 -48l-7 -35v-35q0 -7 7 -7q-7 -13 -7 -21q0 -21 -7 -132h7q-8 -47 -21 -62l-34 6h-139q-38 0 -56 28q17 306 49 306zM696 1140h-195l-7 -35q14 -62 27 -236h142q14 177 33 271zM1108 869q13 -3 20 -69q0 -14 -7 -14q7 -70 7 -105v-187q0 -16 7 -28
q0 -35 -257 -56q0 -14 -35 -14l-14 7q-28 -10 -28 -21v-7l132 -20q64 20 77 20q111 0 111 -104q0 -83 7 -83l-7 -14q7 -84 7 -125q0 -49 -69 -49h-1031q-10 0 -21 21v62q0 24 -7 35q0 167 83 167h35q319 0 417 -14q25 6 24 7l69 -7q0 51 34 285l-14 7h-27q-239 0 -239 28
l-7 28l7 35q0 71 -41 97l-14 -7l7 -35q0 -132 -84 -132q-59 0 -208 -7q-7 14 -7 21q0 59 -7 222l21 35v14q-21 0 -21 14v146q0 23 90 35q80 -7 153 -7l14 21v76q0 29 7 77q-7 12 -7 27q82 174 153 174h377v-7q5 -136 21 -173h21v13q0 174 69 174h91q91 0 125 -42
q-7 -104 -7 -152v-77q0 -12 -11 -14l-8 -38v-56q0 -11 12 -11q-12 -22 -12 -34q0 -27 -8 -139z" />
    <glyph glyph-name="colon" unicode=":" 
d="M45 598h374q56 0 57.5 -39.5t11.5 -253.5q-18 -55 -63 -55h-41q-43 0 -132 132q-14 -3 -14 -14v-28q0 -49 14 -76l-21 -14h-180q-20 0 -48 104q7 154 1 223q7 21 41 21zM42 1126h374q56 0 57.5 -39.5t11.5 -253.5q-18 -55 -63 -55h-41q-43 0 -132 132q-14 -3 -14 -14v-28
q0 -49 14 -76l-21 -14h-180q-20 0 -48 104q7 154 1 223q7 21 41 21z" />
    <glyph glyph-name="semicolon" unicode=";" 
d="M45 598h374q56 0 57.5 -39.5t8.5 -537.5q-18 -55 -63 -55h-41q-43 0 -132 132q-14 -3 -14 -14v-28q0 -49 14 -76l-21 -14h-180q-20 0 -48 104q10 438 4 507q7 21 41 21zM42 1126h374q56 0 57.5 -39.5t11.5 -253.5q-18 -55 -63 -55h-41q-43 0 -132 132q-14 -3 -14 -14v-28
q0 -49 14 -76l-21 -14h-180q-20 0 -48 104q7 154 1 223q7 21 41 21z" />
    <glyph glyph-name="semicolon" unicode="&#x37e;" 
d="M45 598h374q56 0 57.5 -39.5t8.5 -537.5q-18 -55 -63 -55h-41q-43 0 -132 132q-14 -3 -14 -14v-28q0 -49 14 -76l-21 -14h-180q-20 0 -48 104q10 438 4 507q7 21 41 21zM42 1126h374q56 0 57.5 -39.5t11.5 -253.5q-18 -55 -63 -55h-41q-43 0 -132 132q-14 -3 -14 -14v-28
q0 -49 14 -76l-21 -14h-180q-20 0 -48 104q7 154 1 223q7 21 41 21z" />
    <glyph glyph-name="question" unicode="?" horiz-adv-x="1270" 
d="M28 556q0 14 21 14v14l-21 35q7 164 7 222q0 8 7 21q149 -7 208 -7q84 0 84 -132l-7 -35l14 -7q41 26 41 98l-7 34l7 28q0 28 239 28h27l14 7q-34 235 -34 285l-70 -7q5 0 -23 7q-98 -14 -417 -14h-35q-83 0 -83 167q7 12 7 35v62q11 21 21 21h1031q69 0 69 -48
q0 -42 -7 -126l7 -14q-7 0 -7 -83q0 -104 -111 -104q-13 0 -77 21l-132 -21v-7q0 -11 28 -21l14 7q35 0 35 -14q257 -20 257 -56q-7 -12 -7 -27v-188q0 -35 -7 -104q7 0 7 -14q-7 -70 -21 -70h-586zM48 347h374q56 0 57.5 -39.5t11.5 -253.5q-18 -55 -63 -55h-41
q-43 0 -132 132q-14 -3 -14 -14v-28q0 -49 14 -76l-21 -14h-180q-20 0 -48 104q7 154 1 223q7 21 41 21z" />
    <glyph glyph-name="A" unicode="A" horiz-adv-x="1284" 
d="M63 1445q540 -7 810 -7h286l35 -7v-98l-7 -83h7q-7 -14 -7 -21q0 -224 -14 -538h7q-7 -13 -7 -21q0 -61 -7 -335q-10 -35 -49 -35q-27 0 -63 35q-64 0 -265 14q-72 -35 -91 -35q0 78 -42 112h-91l-41 7q-20 0 -35 -49q14 -216 14 -349q-36 -35 -63 -35h-91q-27 0 -63 35
l-42 -35h-216q-28 9 -28 63q28 291 35 530l-7 14l7 42l-7 14q7 12 7 28t-7 28q7 12 7 28v14q0 7 -7 7l7 14v419q0 29 7 76l-7 14q7 28 7 49l-7 14q7 12 7 28v21q0 7 -7 7q9 32 28 35zM314 1166l-7 -70v-28q0 -51 21 -56h161l14 -7q0 -84 -56 -84q-49 0 -49 -62
q0 -18 -14 -84l21 -35v-77q2 -14 14 -14h63q14 5 42 98l76 14q112 -25 112 -70q-7 -37 -7 -42l14 -7h70q21 0 49 196q-40 53 -42 97h-7l-70 -7q-11 16 -28 70l21 14h35q49 0 154 7q0 8 6 21q0 7 -6 7l6 35v77h-181q-11 0 -63 -133l-35 -7h-118q14 58 14 126q-7 13 -7 21
h-203zM796 314q230 -9 230 -56q86 0 133 -63q0 -195 -112 -195h-328q-42 0 -63 49q33 244 56 244q19 0 84 21z" />
    <glyph glyph-name="B" unicode="B" horiz-adv-x="1276" 
d="M818 1437q38 -7 55 -7q69 7 172 7t103 -28v-41q0 -28 7 -55q-7 -101 -27 -151q27 -261 34 -268l-28 -117v-7l7 -48l-20 -14h-186q-124 -16 -124 -27q42 -28 62 -28h69q32 0 69 -75q41 -20 144 -35q12 -25 21 -103q-28 -74 -35 -117l21 -165q-22 -151 -62 -151h-777
q-14 0 -14 14v13q21 26 21 49v68q0 59 -7 124l7 28q-27 151 -62 137h-7q28 -50 28 -165v-186q-16 -30 -69 -82h-131l-34 -7q-19 0 -34 406q12 12 158 27q36 -7 69 -7l6 14q-43 24 -165 41q-82 38 -82 179q-7 121 -7 144q0 27 28 117l-21 48l21 35l-21 412q7 0 7 7l14 -7
q25 14 55 14h412q143 0 323 7zM509 1162l-28 -261q7 -14 7 -21h131q55 30 55 76l14 7h316v13q-344 33 -344 55q-11 131 -27 131l-49 -7q-60 7 -75 7zM564 571h-35l-13 -7l13 -124q-34 -46 -34 -69v-41l7 -34h137q11 0 28 27v21q0 32 -7 69l7 27q-7 111 -21 138z" />
    <glyph glyph-name="C" unicode="C" horiz-adv-x="1285" 
d="M1164 1440q14 -7 21 -7v-41q0 -20 -41 -69q0 -172 -76 -172h-503q-48 0 -48 -200l-7 -28h-21q-43 42 -62 42q-41 -14 -165 -28l-117 14v-14q0 -21 124 -34h138q52 0 117 -111q0 -101 -49 -461q21 -49 62 -49h7q196 0 545 7q18 0 55 -55q-7 -81 -7 -117v-55q0 -62 -76 -62
h-34q-180 0 -180 83v69q0 9 -20 20h-14q0 -27 -28 -117v-48q-12 -7 -27 -7h-241q-31 0 -131 103q-44 -19 -131 -41q-18 -55 -62 -55h-103q-23 0 -49 21q-7 138 -13 551q27 76 62 76l41 -7l7 13v14q-117 14 -117 42q-7 37 -7 55q-7 462 -7 544q0 5 -7 41q23 76 69 76h654
q155 0 441 7z" />
    <glyph glyph-name="D" unicode="D" horiz-adv-x="1222" 
d="M-40 1443q239 -7 346 -7h761q41 0 69 -69q-7 -49 -7 -55q-7 -465 -7 -547q0 -76 -55 -76q-26 0 -69 -14v-14q2 -14 13 -14q37 7 42 7q23 0 55 -76q-7 -403 -14 -553q-25 -21 -48 -21h-104q-34 0 -69 55l-131 42q-87 -104 -125 -104h-242q-35 0 -35 14l7 41
q-27 91 -27 118h-14q-10 0 -21 -21v-69q0 -83 -180 -83h-34q-77 0 -77 62q0 102 -6 118q13 256 13 865v97q0 221 -48 221l-7 35v41q14 0 14 7zM444 1152q0 -55 -138 -55l-42 -35q2 -13 14 -13q33 0 69 7q90 -7 90 -49q0 -67 -7 -69q7 -97 7 -166v-491h159q63 9 63 62
q-49 327 -49 457q73 103 118 103h138q125 14 125 35v14q-104 -14 -125 -14q-26 0 -166 28q-8 0 -55 -42h-21l-7 42q0 186 -48 186h-125z" />
    <glyph glyph-name="E" unicode="E" horiz-adv-x="1255" 
d="M83 1434h1053q10 0 21 -21v-62q0 -23 7 -35q0 -166 -83 -166h-35q-317 0 -416 14q-27 -7 -48 -7l-69 7q0 -50 -35 -284l14 -7h28q263 0 263 -28l7 -28l-7 -34q0 -72 41 -97l14 7l-7 34q0 132 83 132q59 0 208 7q7 -13 7 -21q0 -58 7 -222q-26 -55 -69 -55h-180
q-35 0 -63 62h-7q0 -62 -48 -62h-256q-7 -116 -28 -249q7 -12 7 -28h540q14 -2 14 -14v-14l-35 -7h-103q-26 -13 -35 -41q7 0 7 -7l69 7h97q27 0 83 69h7q14 -2 14 -14v-76q0 -49 7 -152q-34 -42 -125 -42h-90q-69 0 -69 173v28h-7q-30 0 -35 -194h-388q-90 0 -166 173
q0 16 7 28q-7 47 -7 76v76q0 18 -28 21q-55 0 -145 -7q-83 14 -83 35v145q0 7 -7 7l7 14v7q0 28 -7 55q0 14 7 14q-7 69 -7 104v187q0 16 -7 28q0 35 256 55q0 12 35 14l14 -7q27 11 27 21v7l-131 21q-64 -21 -76 -21q-111 0 -111 104q0 83 -7 83l7 14q-7 83 -7 125
q0 48 69 48zM229 339q8 -11 20 -55l-7 -14q7 -93 7 -138h7l-7 -14v-35q0 -15 7 -28q0 -32 -97 -55h-111q-33 0 -48 312q35 21 55 21h139z" />
    <glyph glyph-name="F" unicode="F" horiz-adv-x="1308" 
d="M90 1433h1045q42 0 42 -55q0 -33 41 -118q-15 -104 -62 -104h-277q-10 0 -21 21v41q0 7 14 56q0 41 -76 41q-7 28 -62 97q-11 0 -35 -55q39 0 76 -97q35 -7 35 -28q-14 -76 -62 -76h-166l-49 7q-14 -23 -14 -42v-186q0 -56 63 -70h193q35 -1 35 -14l83 7h256q16 0 21 -48
q-21 -73 -21 -104q0 -9 28 -69q-14 -83 -62 -83h-312l-14 7q0 60 56 228v7q-7 14 -7 21h-14l-97 -201q-74 -69 -208 -69q-23 -533 -62 -533l-49 -14h-373q-35 18 -35 55v125q0 125 7 339q0 7 -7 7l7 49v297q0 309 69 554z" />
    <glyph glyph-name="G" unicode="G" horiz-adv-x="1289" 
d="M1162 1437q13 -7 21 -7v-41q0 -20 -42 -69q0 -172 -75 -172h-502q-48 0 -48 -199l-7 -28h-21q-43 42 -62 42q-41 -14 -165 -28l-117 14v-14q0 -21 124 -34h138q52 0 117 -110q0 -101 -49 -461q21 -48 62 -48h172q12 0 28 89q13 0 13 7l14 -7h14q51 0 192 14q53 0 138 -14
q15 2 41 42l-14 6q-13 0 -48 -13q-126 20 -144 20q-9 0 -69 -7q-158 17 -158 159v103l-7 41q18 89 69 89h316q56 0 96 -55v-419q-55 -103 -55 -220v-55q0 -62 -75 -62h-35q-149 0 -185 55h-48v-48l-35 -7h-240q-31 0 -131 103q-44 -19 -131 -41q-17 -55 -61 -55h-104
q-23 0 -48 21q-7 138 -13 550q27 75 61 75l42 -7l7 14v14q-117 14 -117 41q-7 38 -7 55q-7 462 -7 543q0 5 -7 41q23 76 69 76h653q155 0 440 7z" />
    <glyph glyph-name="H" unicode="H" horiz-adv-x="1311" 
d="M443 1434q70 -16 70 -62q0 -130 -132 -208q-59 7 -90 7q-19 -56 -104 -56q-99 0 -159 -41v-7q156 14 228 14h21q8 0 76 14h63q24 0 48 27h14q13 -242 62 -242q20 0 118 -21h64v256q0 49 97 49q0 7 13 7v21q-78 0 -104 34q26 208 56 208h374q62 -9 62 -62v-160
q0 -64 7 -180q0 -7 -7 -7l7 -83v-395l7 -41q0 -23 -55 -42l-104 14q-28 -10 -28 -21q-38 7 -55 7q-40 -25 -222 -55q-23 9 -42 27l-69 -6h-42q-39 0 -97 6l-139 -55q-97 7 -125 7q-131 -19 -131 -97v-111l7 -35h13q19 194 97 194l28 7q83 -20 97 -20q63 34 83 34
q36 0 49 -34q0 -15 -21 -181q21 -48 28 -48q0 -97 -49 -97h-256q-28 0 -28 83q0 7 14 83h-14q-48 -67 -48 -145q-26 -21 -49 -21h-41q-21 0 -28 55l7 49l-7 14q0 7 7 7l-7 83v256q0 7 -7 7l7 14v21q0 15 -7 27q7 13 7 28q0 16 -7 28q7 12 7 28v6q0 16 -7 28q7 12 7 28v7
q0 15 -7 28q7 12 7 27v28q0 7 -7 7l7 14v41q0 7 -7 7l7 14v194q0 16 7 28q0 7 -7 7q36 347 48 353h388zM1075 450q145 -36 145 -55v-7q-7 -265 -7 -291q0 -4 21 -69q-29 -28 -55 -28h-153q-41 0 -41 48h-35q-26 0 -76 -48h-97q-44 0 -62 83q20 181 62 243q0 35 187 62
q37 35 104 35q0 15 7 27z" />
    <glyph glyph-name="I" unicode="I" 
d="M55 1433h374q56 0 56 -118v-90q0 -25 7 -62q0 -45 -63 -55h-69q-62 -33 -62 -42v-14q44 0 90 7q90 -14 90 -34v-132q0 -292 7 -838q-18 -55 -63 -55h-41q-43 0 -132 132q-14 -3 -14 -14v-28q0 -49 14 -76l-21 -14h-180q-20 0 -48 104q7 666 7 879l7 62l-7 14q7 128 7 215
v138q7 21 41 21z" />
    <glyph glyph-name="J" unicode="J" horiz-adv-x="1168" 
d="M656 1437h375q35 -18 35 -55v-125q0 -126 -7 -340q0 -7 7 -7l-7 -49v-299q0 -309 -69 -555l-14 -7h-893q-48 0 -48 90q-30 82 -35 84q15 104 62 104h122q10 0 21 -21v-42q-14 -49 -14 -55q0 -42 77 -42q6 -28 62 -97q11 0 35 55q-39 0 -77 98q-34 10 -34 20q9 84 62 84
h167l48 -7q14 23 14 41v209q14 205 14 222v28q0 48 -14 48l7 14v21q0 40 -7 49q23 520 63 520z" />
    <glyph glyph-name="K" unicode="K" horiz-adv-x="1279" 
d="M55 1443l35 -7h131q11 -1 69 -83v-186q-5 -159 -28 -159q7 -13 7 -21q-14 -62 -14 -69q0 -104 56 -138h20q90 21 97 21q46 -35 62 -35q0 7 7 7q-18 46 -55 76q-80 -14 -117 -14l-28 21q21 57 34 283q0 8 -6 21q6 75 6 131v69q0 23 -20 48v14q2 14 14 14h144q10 0 21 -21
q7 -261 7 -352q0 -13 35 -62l-14 -124l14 -7h34l83 -7q14 27 21 138q0 7 -7 21q14 122 14 262q36 152 76 152h345q55 0 55 -103q7 0 14 -49l-21 -166q7 -43 35 -117q0 -117 -76 -117q-104 0 -131 -90q-13 -7 -28 -7h-69q-35 0 -62 -34l124 -21h186l21 -14l-7 -48v-7
q0 -14 28 -111q-35 -218 -35 -331v-14q21 -90 21 -97v-34q0 -57 -76 -76h-131l-35 7v69q0 10 -20 21h-7q-14 -97 -55 -97h-104q-44 0 -55 55l7 14v14q0 48 -35 138q10 207 48 207q172 14 318 35v13h-318q-9 0 -41 69q-11 0 -28 14h-131q-7 -35 -14 -131q14 -52 14 -62
q-29 -28 -241 -28q-46 -18 -56 -41q7 0 7 -7q97 14 187 14q117 -9 117 -42q0 -255 -62 -255h-290q-38 0 -55 34q83 66 83 104v145h-7q-32 -17 -49 -159q-41 0 -103 -110h-14q21 461 28 490q-28 57 -35 124q0 325 104 325q0 8 131 27l20 21q-13 7 -20 7q-18 0 -55 -7
q-159 12 -159 35q15 400 34 400z" />
    <glyph glyph-name="L" unicode="L" horiz-adv-x="1168" 
d="M458 1423q40 0 63 -520q-7 -9 -7 -49v-21l7 -14q-14 0 -14 -48v-28q0 -17 14 -222v-209q0 -18 14 -41l48 7h167q53 0 62 -84q0 -10 -34 -20q-38 -98 -77 -98q24 -55 35 -55q56 69 62 97q77 0 77 42q0 6 -14 55v42q11 21 21 21h122q47 0 62 -104q-5 -2 -35 -84
q0 -90 -48 -90h-893l-14 7q-69 246 -69 555v299l-7 49q7 0 7 7q-7 214 -7 340v125q0 37 35 55h375z" />
    <glyph glyph-name="M" unicode="M" horiz-adv-x="1728" 
d="M173 1443h241q55 0 55 -97v-27q0 -14 -13 -69l20 -97v-7q-74 -14 -172 -21v-13h165l42 -7q48 27 69 27h7q35 -24 55 -69v-20q-21 -27 -21 -63q19 -110 42 -110q221 -7 290 -7q0 7 7 7q0 -28 20 -48l49 7h103q23 0 35 6l41 -6h21q207 0 207 -49l35 -7h103q52 -8 55 -27
v-691q-30 -48 -69 -48h-262q-159 0 -159 97q-7 0 -7 6v401l-7 48h-7q-36 0 -117 7l-7 -14q0 -297 -62 -297h-62q-44 0 -90 -6q-117 0 -117 41l-42 269q-93 9 -110 14q-29 0 -55 -186l-69 -49q-132 0 -132 42q-17 54 -34 76l7 34q0 168 -69 200q-138 0 -138 56l-21 297
q0 55 152 55q2 10 145 55v14h-7q-64 0 -180 -7q-83 11 -110 41q0 235 35 235q76 7 138 7zM1153 1436h428q29 0 35 -138q-10 -435 -49 -435q-7 -21 -41 -21h-48l-132 49q-67 324 -145 324q-69 0 -69 42l14 48q0 12 -7 124zM1201 1146q20 0 83 -255q-39 -21 -179 -21h-7
q-138 4 -138 34q10 0 20 21v14q0 29 -6 76q27 131 62 131h165zM76 642h48q54 0 76 -145q14 0 14 -34q-7 -14 -7 -21q26 -131 62 -131q221 -15 221 -49l7 -34l-14 -7h-20q-60 0 -125 -7q-58 0 -117 76l-14 7l-7 -14q32 -97 62 -97q221 0 221 -48q14 -45 14 -62
q-39 -76 -76 -76h-172q-214 0 -214 48q-14 84 -14 132v400q0 62 55 62z" />
    <glyph glyph-name="N" unicode="N" horiz-adv-x="1410" 
d="M76 1437h361q56 0 56 -153q7 0 14 -48q-9 -42 -104 -42v-21q109 -28 236 -35q12 -25 34 -159q-27 -49 -27 -70v-34h97q97 0 97 187l7 63h14q24 -28 48 -28h63q67 -14 76 -14h21q73 0 229 -14v7q-75 49 -229 49q-25 48 -49 48q-14 0 -76 -7q-132 78 -132 215q27 56 70 56
h381q29 0 42 -271q7 0 14 -76q0 -7 -7 -7l7 -35v-194q0 -7 7 -7l-7 -14v-42q0 -7 7 -7l-7 -13v-28q0 -16 7 -28q-7 -12 -7 -28v-7q0 -15 7 -27q-7 -13 -7 -28v-7q0 -16 7 -28q-7 -12 -7 -28q0 -15 7 -27q-7 -13 -7 -28v-21q0 -7 7 -7l-7 -14v-257q0 -29 -7 -76l7 -14l-7 -14
q7 -49 7 -55q-10 -49 -28 -49h-41q-63 0 -63 104q-24 63 -35 63h-14v-7q14 -63 14 -91q-5 -69 -27 -69h-257q-49 0 -49 90l28 56l-21 173q0 42 49 42q21 0 83 -35l104 21q97 -18 97 -97q21 -100 21 -104h14l7 34v112q0 80 -139 97q-112 -7 -125 -7q-56 28 -132 55
q-69 -7 -104 -7q-21 22 -48 181q0 23 76 42v6q0 25 -174 42h-34q-14 0 -14 -21q0 -38 7 -76q-10 -194 -42 -194q-143 20 -243 55q-5 0 -42 -7q0 11 -27 21q-85 -9 -98 -14q-43 9 -62 35l7 48v396q0 29 7 76l-7 14q7 117 7 181v160q9 62 62 62zM160 451q0 -41 90 -41
q13 -42 160 -42q104 -74 104 -278h7q-16 -90 -63 -90h-83q-18 0 -76 49h-49q-10 -49 -28 -49h-166q-38 0 -56 35q21 48 21 69q-7 239 -7 292q0 19 146 55z" />
    <glyph glyph-name="O" unicode="O" horiz-adv-x="1279" 
d="M34 1433h371q71 0 82 -89v-62q0 -10 20 -20h14q0 27 28 116v48q12 7 27 7h98q30 0 130 -103q44 19 130 41q18 55 62 55h103q23 0 48 -20q7 -149 14 -549q-28 -75 -62 -75l-41 6l-7 -13v-14q117 -14 117 -41q6 -38 6 -55q7 -460 7 -542q7 -36 7 -41q-23 -75 -68 -75h-613
q-123 0 -336 -7q-96 20 -96 27q-68 227 -68 542v295l-7 41l7 14q-7 212 -7 336v123q0 37 34 55zM501 1152q6 -196 13 -240q-7 -27 -7 -55v-21q0 -6 7 -6q-13 -25 -13 -55v-28q13 -202 13 -219v-206l7 -34h105q48 0 48 199q7 24 7 27h20q43 -41 62 -41q41 14 165 28l116 -14
v14q0 20 -123 34h-137q-53 0 -117 110q0 100 48 459q-20 48 -62 48h-152z" />
    <glyph glyph-name="P" unicode="P" horiz-adv-x="1196" 
d="M90 1433h951q55 0 55 -138q7 -38 7 -139q0 -55 -138 -55l-42 -35q3 -14 14 -14q33 0 69 7q90 -7 90 -48q0 -35 -6 -104l6 -69q-43 -125 -62 -125q0 -17 28 -76q-14 -83 -62 -83h-312q-14 0 -14 14l7 41h-21v35l-7 34q-74 -117 -92 -124q-42 7 -42 -28q-23 -512 -62 -512
l-49 -14h-373q-35 18 -35 55v125q0 125 7 339q0 7 -7 7l7 49v297q0 309 69 554zM584 1357q69 -35 69 -83h7v83l-41 55q-11 0 -35 -55zM533 1163q-14 -23 -14 -42v-186q0 -56 63 -70h71l7 35v256h-78z" />
    <glyph glyph-name="Q" unicode="Q" horiz-adv-x="1282" 
d="M37 1434h370q71 0 82 -89v-62q0 -10 21 -20h13q0 27 28 116v48q12 7 27 7h103q30 0 130 -103q44 19 130 41q18 55 62 55h103q22 0 47 -20q7 -149 14 -548q-27 -76 -61 -76l-42 7l-6 -13v-14q116 -14 116 -41q7 -38 7 -55q7 -460 7 -541l7 -34q-7 -27 -7 -55v-206
q-10 -68 -62 -68h-41q-43 0 -130 130q-14 -2 -14 -14v-27q0 -49 14 -75l-21 -14h-178q-22 0 -48 110v123q0 14 -13 14h-185q-124 0 -336 -7q-96 19 -96 27q-68 226 -68 541v295l-7 41l7 13q-7 212 -7 336v123q0 37 34 55zM503 1153q7 -195 14 -239q-7 -27 -7 -55v-21
q0 -7 7 -7q-14 -25 -14 -54v-28q14 -202 14 -219v-205l6 -35h110q48 0 48 199q7 24 7 27h20q43 -41 62 -41q41 14 164 28l117 -14v14q0 20 -124 34h-136q-53 0 -117 109q0 101 48 459q-20 48 -62 48h-157z" />
    <glyph glyph-name="R" unicode="R" horiz-adv-x="1285" 
d="M55 1443l35 -7h131q11 -1 69 -83v-186q-5 -159 -28 -159q7 -13 7 -21q-14 -62 -14 -69q0 -104 56 -138h20q90 21 97 21q46 -35 62 -35q0 7 7 7q-18 46 -55 76q-80 -14 -117 -14l-28 21q21 57 34 283q0 8 -6 21q6 75 6 131v69q0 23 -20 48v14q2 14 14 14h773q55 0 55 -103
q7 0 14 -49l-21 -166q7 -43 35 -117q0 -117 -76 -117q-104 0 -131 -90q-13 -7 -28 -7h-69q-35 0 -62 -34l124 -21h186l21 -14l-7 -48v-7q0 -14 28 -111q-35 -218 -35 -331v-14q21 -90 21 -97v-34q0 -57 -76 -76h-131l-35 7v69q0 10 -20 21h-7q-14 -97 -55 -97h-104
q-44 0 -55 55l7 14v14q0 48 -35 138q10 207 48 207q172 14 318 35v13h-318q-9 0 -41 69q-11 0 -28 14h-131q-7 -35 -14 -131q14 -52 14 -62q-29 -28 -241 -28q-46 -18 -56 -41q7 0 7 -7q97 14 187 14q117 -9 117 -42q0 -255 -62 -255h-290q-38 0 -55 34q83 66 83 104v145h-7
q-32 -17 -49 -159q-41 0 -103 -110h-14q21 461 28 490q-28 57 -35 124q0 325 104 325q0 8 131 27l20 21q-13 7 -20 7q-18 0 -55 -7q-159 12 -159 35q15 400 34 400zM504 1146l-7 -34v-42q0 -22 35 -69l-14 -124l14 -7h34l83 -7q14 27 21 138l-7 28q7 36 7 69v20q0 11 -28 28
h-138z" />
    <glyph glyph-name="S" unicode="S" horiz-adv-x="1270" 
d="M56 1432h111q44 0 97 -48l-7 -35v-35q0 -7 7 -7q-7 -13 -7 -21q0 -21 -7 -132h7q-8 -47 -21 -62l-34 6h-139q-38 0 -56 28q17 306 49 306zM926 1432h91q91 0 125 -42q-7 -104 -7 -152v-77q0 -14 -14 -14h-7q-56 70 -83 70h-98l-69 7q0 -7 -7 -7q10 -29 35 -42h104l35 -7
v-14q0 -14 -14 -14h-516l-7 -35q14 -62 27 -236h586q14 0 21 -69q0 -14 -7 -14q7 -70 7 -105v-187q0 -16 7 -28q0 -35 -257 -56q0 -14 -35 -14l-14 7q-28 -10 -28 -21v-7l132 -20q64 20 77 20q111 0 111 -104q0 -83 7 -83l-7 -14q7 -84 7 -125q0 -49 -69 -49h-1031
q-10 0 -21 21v62q0 24 -7 35q0 167 83 167h35q319 0 417 -14q28 7 23 7l70 -7q0 51 34 285l-14 7h-27q-239 0 -239 28l-7 28l7 35q0 71 -41 97l-14 -7l7 -35q0 -132 -84 -132q-59 0 -208 -7q-7 14 -7 21q0 59 -7 222l21 35v14q-21 0 -21 14v146q0 23 90 35q80 -7 153 -7
l14 21v76q0 29 7 77q-7 12 -7 27q82 174 153 174h377v-7q7 -187 35 -187h7v27q0 174 69 174z" />
    <glyph glyph-name="T" unicode="T" horiz-adv-x="1266" 
d="M41 1434h766l20 -14q-69 -145 -69 -172q16 0 21 -35q-14 -61 -14 -82q16 -49 21 -49l-7 -34v-993q-41 -55 -96 -55h-318q-48 0 -69 83l7 48v62q0 186 118 186q0 9 41 14q61 -7 76 -7l138 21q35 -14 55 -14l7 14q-7 0 -35 34q-95 -14 -151 -14q-133 14 -187 14h-13
q-7 0 -7 -7q-30 0 -35 76q7 472 7 600q21 135 55 172v14q-61 0 -96 -124l-35 -7q-53 0 -193 -7q-37 0 -48 145q14 131 41 131zM869 1434h103q120 0 186 -14v-20q0 -21 21 -56q-46 -179 -110 -179q0 -7 -7 -7q-214 0 -214 48q0 5 -21 97q32 131 42 131z" />
    <glyph glyph-name="U" unicode="U" horiz-adv-x="1215" 
d="M62 1437h69q158 0 158 -48q7 0 7 -7v-76q0 -37 27 -48q7 58 35 117q-14 42 -14 55l14 7h82q14 -2 14 -14q-7 -79 -14 -89q7 -213 7 -337v-584q0 -21 -96 -28l-69 7l-7 -14v-7q70 -34 83 -34h62q34 -18 34 -48h117q48 29 48 41q7 131 7 179l20 14h7l55 -49q94 28 193 28
h20q7 0 7 -7l14 7q49 -14 55 -14l7 14q-79 34 -144 34h-152q-89 80 -89 97q0 32 7 213l14 7l-7 13q41 235 41 344q0 59 -7 206h7q4 0 82 -82q13 15 124 41q33 55 41 55h159q27 0 27 -254q7 -231 7 -337q-36 -55 -41 -55h-42q-6 0 -6 7q-28 -11 -28 -21q48 -18 124 -27
q7 -49 7 -55q0 -306 13 -626q-34 -55 -41 -55h-818q-106 0 -323 -7l-7 14q0 73 48 96q14 107 14 206v220q0 16 -7 28l7 14l-7 13l7 14l-7 14l7 14q-7 12 -7 27h7l-7 14v7q0 7 7 7l-7 13v7q0 7 7 7l-7 14v14q0 6 7 6l-7 14v7q0 7 7 7l-7 14v7q0 6 7 6l-7 14v7q0 7 7 7l-7 14
v7q0 6 7 6l-7 14v172q0 79 -7 241h7l-7 13v7q0 7 7 7q0 7 -7 7q0 117 62 117z" />
    <glyph glyph-name="V" unicode="V" horiz-adv-x="1473" 
d="M968 1446h41q42 0 128 -128q13 0 13 14v27q0 47 -13 74l20 13h175q22 0 47 -108v-255q0 -101 -7 -182q7 -45 7 -141q0 -82 -14 -202l7 -13q0 -168 -74 -168h-34q-121 44 -121 60q-11 74 -27 74h-6q-10 0 -20 -20l6 -67q-40 -20 -141 -20h-20q-114 4 -114 33q9 0 20 20
q0 44 -7 88q20 128 54 128h27v6q0 170 -7 713q17 54 60 54zM54 1426h363q54 0 54 -115v-87q0 -24 7 -60q0 -44 -61 -54h-67q-61 -32 -61 -41v-13q43 0 88 7q87 -14 87 -34v-363l7 -14l33 7q47 -33 47 -81q-20 -56 -20 -74q20 -100 41 -100l228 -7q13 7 21 7q0 -41 20 -41
q92 0 127 7l189 -14q-94 -59 -94 -127v-61q0 -54 -95 -54l-13 -13l-34 7h-6q-7 0 -7 -7l-13 7h-27q-12 0 -27 -101q-12 -7 -27 -7h-236l-33 7v27q0 74 -41 74q-87 0 -87 67q0 94 -40 94h-148q-47 0 -47 47v101q0 10 -21 20h-20q-134 0 -134 41v221q0 23 -7 34l7 40v202
q0 32 6 67q0 8 -6 21q6 124 6 208v135q7 20 41 20z" />
    <glyph glyph-name="W" unicode="W" horiz-adv-x="1715" 
d="M248 1437h171q47 0 76 -89q0 -83 -76 -83q-192 0 -192 -41q-28 -69 -28 -76q7 0 7 -7q77 76 103 76q4 0 28 7q65 -7 124 -7h20q14 -2 14 -14q0 -22 -27 -62v-41q0 -17 -14 -62q34 -172 48 -172q124 0 124 35q23 282 62 282q66 0 89 6q45 -6 89 -6h55q69 0 69 -241v-62
l14 -7q70 7 110 7q14 0 14 14v433q27 96 96 96q2 7 69 7h261q38 0 69 -48v-688q0 -18 -55 -27h-103q-23 0 -76 -48q-44 0 -90 -7v-28q-41 -92 -89 -281l-14 -7h-158q-47 0 -62 117l-7 13q7 47 7 76v14q-24 19 -41 62q-38 0 -282 -7q-34 -65 -34 -110q0 -36 20 -62v-21
q-19 -44 -55 -69h-6q-57 13 -62 28l-48 -7h-165v-14q97 -7 171 -20v-7q-20 -93 -20 -103q14 -45 14 -62v-28q0 -96 -55 -96h-241q-158 0 -158 28l-14 213q32 32 117 41q101 -7 179 -7v7q0 12 -90 34q-77 42 -185 42l-21 41q15 292 28 330q-7 179 -7 282v247q0 172 75 172
q79 7 152 7zM1471 598h49q75 0 75 -192q14 -209 14 -268q-7 -131 -34 -131h-427q-14 0 -14 14q7 93 7 130q-13 23 -13 42q0 41 96 41q52 29 103 268q0 69 96 69q11 27 48 27z" />
    <glyph glyph-name="X" unicode="X" horiz-adv-x="1314" 
d="M1131 1433q55 0 55 -103q7 0 14 -48l-21 -164q7 -43 35 -117q0 -117 -76 -117q-103 0 -130 -89q-12 -7 -28 -7h-68q-34 0 -62 -34l124 -20h185l20 -14l-7 -48v-7q0 -14 28 -110q-34 -216 -34 -329v-13q20 -90 20 -96v-35q0 -56 -75 -75h-131l-34 7v68q0 10 -20 21h-7
q-13 -96 -55 -96h-103q-43 0 -55 55l7 13v14q0 48 -34 137q9 206 48 206q170 14 315 34v14h-315l-48 69l-21 13h-48l-82 7q-14 -26 -21 -137q0 -7 7 -21q-13 -121 -13 -260q-37 -151 -76 -151h-343q-55 0 -55 103q-6 0 -13 48l20 164q-7 43 -34 117q0 117 75 117
q104 0 131 89q12 7 27 7h69q34 0 61 34l-123 20h-185l-21 14l7 48v7q0 14 -27 110q34 216 34 329v13q-21 90 -21 96v35q0 56 76 75h130l34 -7v-68q0 -10 21 -21h7q13 96 55 96h103q43 0 54 -55l-6 -13v-14q0 -48 34 -137q-10 -206 -48 -206q-170 -14 -316 -34v-14h316
l48 -69l20 -13h48l83 -7q13 26 20 137q0 7 -7 21q14 121 14 260q36 151 75 151h343z" />
    <glyph glyph-name="Y" unicode="Y" horiz-adv-x="1305" 
d="M1123 1433q55 0 55 -103q7 0 14 -49l-21 -165q7 -43 35 -117q0 -117 -76 -117q-104 0 -131 -90q-12 -7 -28 -7h-68q-35 0 -62 -34l124 -21h186l20 -13l-7 -49v-7q0 -14 28 -110q-35 -224 -35 -317q14 -34 21 -34q0 -8 -7 -21q7 -72 7 -117q-28 -62 -69 -62h-1026
q-49 0 -49 90q-29 80 -34 82q15 104 62 104h276q9 0 20 -21v-41q-14 -50 -14 -56q0 -41 76 -41q7 -27 62 -96q11 0 35 55q-39 0 -76 96q-35 11 -35 21q10 83 62 83h207q0 28 21 186v34q0 31 -42 62q-174 7 -254 7h-221l-14 7q13 69 55 69h69q35 0 62 34l-124 21h-186l-20 14
l7 48v7q0 14 -28 110q34 218 34 331v13q-20 90 -20 97v34q0 57 76 76h130l35 -7v-69q0 -10 21 -20h6q14 96 56 96h103q44 0 55 -55l-7 -14v-14q0 -48 35 -137q-10 -207 -49 -207q-170 -14 -317 -34v-14h317l49 -69l20 -14h48l83 -7q14 27 21 138q0 7 -7 21q14 122 14 261
q36 152 76 152h344z" />
    <glyph glyph-name="Z" unicode="Z" horiz-adv-x="1270" 
d="M7 306q18 28 56 28h139l34 7q13 -16 21 -63h-7q7 -110 7 -132q0 -7 7 -21q-7 0 -7 -7v-35l7 -34q-53 -49 -97 -49h-111q-32 0 -49 306zM857 174v28h-7q-28 0 -35 -188v-7h-377q-71 0 -153 174q0 15 7 28q-7 47 -7 76v77l-14 20q-73 0 -153 -7q-90 12 -90 35v146
q0 14 21 14v14l-21 35q7 164 7 222q0 8 7 21q149 -7 208 -7q84 0 84 -132l-7 -35l14 -7q41 26 41 98l-7 34l7 28q0 28 239 28h27l14 7q-34 235 -34 285l-70 -7q5 0 -23 7q-98 -14 -417 -14h-35q-83 0 -83 167q7 12 7 35v62q11 21 21 21h1031q69 0 69 -48q0 -42 -7 -126
l7 -14q-7 0 -7 -83q0 -104 -111 -104q-13 0 -77 21l-132 -21v-7q0 -11 28 -21l14 7q35 0 35 -14q257 -20 257 -56q-7 -12 -7 -27v-188q0 -35 -7 -104q7 0 7 -14q-7 -70 -21 -70h-586q-13 -174 -27 -236l7 -35h516q14 0 14 -14v-14l-35 -7h-104q-25 -13 -35 -41q7 0 7 -7
l69 7h98q27 0 83 69h7q14 0 14 -14v-76q0 -49 7 -153q-34 -42 -125 -42h-91q-69 0 -69 174z" />
    <glyph glyph-name="bracketleft" unicode="[" horiz-adv-x="758" 
 />
    <glyph glyph-name="backslash" unicode="\" horiz-adv-x="569" 
 />
    <glyph glyph-name="bracketright" unicode="]" horiz-adv-x="758" 
 />
    <glyph glyph-name="asciicircum" unicode="^" horiz-adv-x="1014" 
 />
    <glyph glyph-name="underscore" unicode="_" horiz-adv-x="1024" 
 />
    <glyph glyph-name="grave" unicode="`" horiz-adv-x="1024" 
 />
    <glyph glyph-name="a" unicode="a" horiz-adv-x="1284" 
d="M63 1445q540 -7 810 -7h286l35 -7v-98l-7 -83h7q-7 -14 -7 -21q0 -224 -14 -538h7q-7 -13 -7 -21q0 -61 -7 -335q-10 -35 -49 -35q-27 0 -63 35q-64 0 -265 14q-72 -35 -91 -35q0 78 -42 112h-91l-41 7q-20 0 -35 -49q14 -216 14 -349q-36 -35 -63 -35h-91q-27 0 -63 35
l-42 -35h-216q-28 9 -28 63q28 291 35 530l-7 14l7 42l-7 14q7 12 7 28t-7 28q7 12 7 28v14q0 7 -7 7l7 14v419q0 29 7 76l-7 14q7 28 7 49l-7 14q7 12 7 28v21q0 7 -7 7q9 32 28 35zM314 1166l-7 -70v-28q0 -51 21 -56h161l14 -7q0 -84 -56 -84q-49 0 -49 -62
q0 -18 -14 -84l21 -35v-77q2 -14 14 -14h63q14 5 42 98l76 14q112 -25 112 -70q-7 -37 -7 -42l14 -7h70q21 0 49 196q-40 53 -42 97h-7l-70 -7q-11 16 -28 70l21 14h35q49 0 154 7q0 8 6 21q0 7 -6 7l6 35v77h-181q-11 0 -63 -133l-35 -7h-118q14 58 14 126q-7 13 -7 21
h-203zM796 314q230 -9 230 -56q86 0 133 -63q0 -195 -112 -195h-328q-42 0 -63 49q33 244 56 244q19 0 84 21z" />
    <glyph glyph-name="b" unicode="b" horiz-adv-x="1276" 
d="M818 1437q38 -7 55 -7q69 7 172 7t103 -28v-41q0 -28 7 -55q-7 -101 -27 -151q27 -261 34 -268l-28 -117v-7l7 -48l-20 -14h-186q-124 -16 -124 -27q42 -28 62 -28h69q32 0 69 -75q41 -20 144 -35q12 -25 21 -103q-28 -74 -35 -117l21 -165q-22 -151 -62 -151h-777
q-14 0 -14 14v13q21 26 21 49v68q0 59 -7 124l7 28q-27 151 -62 137h-7q28 -50 28 -165v-186q-16 -30 -69 -82h-131l-34 -7q-19 0 -34 406q12 12 158 27q36 -7 69 -7l6 14q-43 24 -165 41q-82 38 -82 179q-7 121 -7 144q0 27 28 117l-21 48l21 35l-21 412q7 0 7 7l14 -7
q25 14 55 14h412q143 0 323 7zM509 1162l-28 -261q7 -14 7 -21h131q55 30 55 76l14 7h316v13q-344 33 -344 55q-11 131 -27 131l-49 -7q-60 7 -75 7zM564 571h-35l-13 -7l13 -124q-34 -46 -34 -69v-41l7 -34h137q11 0 28 27v21q0 32 -7 69l7 27q-7 111 -21 138z" />
    <glyph glyph-name="c" unicode="c" horiz-adv-x="1285" 
d="M1164 1440q14 -7 21 -7v-41q0 -20 -41 -69q0 -172 -76 -172h-503q-48 0 -48 -200l-7 -28h-21q-43 42 -62 42q-41 -14 -165 -28l-117 14v-14q0 -21 124 -34h138q52 0 117 -111q0 -101 -49 -461q21 -49 62 -49h7q196 0 545 7q18 0 55 -55q-7 -81 -7 -117v-55q0 -62 -76 -62
h-34q-180 0 -180 83v69q0 9 -20 20h-14q0 -27 -28 -117v-48q-12 -7 -27 -7h-241q-31 0 -131 103q-44 -19 -131 -41q-18 -55 -62 -55h-103q-23 0 -49 21q-7 138 -13 551q27 76 62 76l41 -7l7 13v14q-117 14 -117 42q-7 37 -7 55q-7 462 -7 544q0 5 -7 41q23 76 69 76h654
q155 0 441 7z" />
    <glyph glyph-name="d" unicode="d" horiz-adv-x="1222" 
d="M-40 1443q239 -7 346 -7h761q41 0 69 -69q-7 -49 -7 -55q-7 -465 -7 -547q0 -76 -55 -76q-26 0 -69 -14v-14q2 -14 13 -14q37 7 42 7q23 0 55 -76q-7 -403 -14 -553q-25 -21 -48 -21h-104q-34 0 -69 55l-131 42q-87 -104 -125 -104h-242q-35 0 -35 14l7 41
q-27 91 -27 118h-14q-10 0 -21 -21v-69q0 -83 -180 -83h-34q-77 0 -77 62q0 102 -6 118q13 256 13 865v97q0 221 -48 221l-7 35v41q14 0 14 7zM444 1152q0 -55 -138 -55l-42 -35q2 -13 14 -13q33 0 69 7q90 -7 90 -49q0 -67 -7 -69q7 -97 7 -166v-491h159q63 9 63 62
q-49 327 -49 457q73 103 118 103h138q125 14 125 35v14q-104 -14 -125 -14q-26 0 -166 28q-8 0 -55 -42h-21l-7 42q0 186 -48 186h-125z" />
    <glyph glyph-name="e" unicode="e" horiz-adv-x="1255" 
d="M83 1434h1053q10 0 21 -21v-62q0 -23 7 -35q0 -166 -83 -166h-35q-317 0 -416 14q-27 -7 -48 -7l-69 7q0 -50 -35 -284l14 -7h28q263 0 263 -28l7 -28l-7 -34q0 -72 41 -97l14 7l-7 34q0 132 83 132q59 0 208 7q7 -13 7 -21q0 -58 7 -222q-26 -55 -69 -55h-180
q-35 0 -63 62h-7q0 -62 -48 -62h-256q-7 -116 -28 -249q7 -12 7 -28h540q14 -2 14 -14v-14l-35 -7h-103q-26 -13 -35 -41q7 0 7 -7l69 7h97q27 0 83 69h7q14 -2 14 -14v-76q0 -49 7 -152q-34 -42 -125 -42h-90q-69 0 -69 173v28h-7q-30 0 -35 -194h-388q-90 0 -166 173
q0 16 7 28q-7 47 -7 76v76q0 18 -28 21q-55 0 -145 -7q-83 14 -83 35v145q0 7 -7 7l7 14v7q0 28 -7 55q0 14 7 14q-7 69 -7 104v187q0 16 -7 28q0 35 256 55q0 12 35 14l14 -7q27 11 27 21v7l-131 21q-64 -21 -76 -21q-111 0 -111 104q0 83 -7 83l7 14q-7 83 -7 125
q0 48 69 48zM229 339q8 -11 20 -55l-7 -14q7 -93 7 -138h7l-7 -14v-35q0 -15 7 -28q0 -32 -97 -55h-111q-33 0 -48 312q35 21 55 21h139z" />
    <glyph glyph-name="f" unicode="f" horiz-adv-x="1308" 
d="M90 1433h1045q42 0 42 -55q0 -33 41 -118q-15 -104 -62 -104h-277q-10 0 -21 21v41q0 7 14 56q0 41 -76 41q-7 28 -62 97q-11 0 -35 -55q39 0 76 -97q35 -7 35 -28q-14 -76 -62 -76h-166l-49 7q-14 -23 -14 -42v-186q0 -56 63 -70h193q35 -1 35 -14l83 7h256q16 0 21 -48
q-21 -73 -21 -104q0 -9 28 -69q-14 -83 -62 -83h-312l-14 7q0 60 56 228v7q-7 14 -7 21h-14l-97 -201q-74 -69 -208 -69q-23 -533 -62 -533l-49 -14h-373q-35 18 -35 55v125q0 125 7 339q0 7 -7 7l7 49v297q0 309 69 554z" />
    <glyph glyph-name="g" unicode="g" horiz-adv-x="1289" 
d="M1162 1437q13 -7 21 -7v-41q0 -20 -42 -69q0 -172 -75 -172h-502q-48 0 -48 -199l-7 -28h-21q-43 42 -62 42q-41 -14 -165 -28l-117 14v-14q0 -21 124 -34h138q52 0 117 -110q0 -101 -49 -461q21 -48 62 -48h172q12 0 28 89q13 0 13 7l14 -7h14q51 0 192 14q53 0 138 -14
q15 2 41 42l-14 6q-13 0 -48 -13q-126 20 -144 20q-9 0 -69 -7q-158 17 -158 159v103l-7 41q18 89 69 89h316q56 0 96 -55v-419q-55 -103 -55 -220v-55q0 -62 -75 -62h-35q-149 0 -185 55h-48v-48l-35 -7h-240q-31 0 -131 103q-44 -19 -131 -41q-17 -55 -61 -55h-104
q-23 0 -48 21q-7 138 -13 550q27 75 61 75l42 -7l7 14v14q-117 14 -117 41q-7 38 -7 55q-7 462 -7 543q0 5 -7 41q23 76 69 76h653q155 0 440 7z" />
    <glyph glyph-name="h" unicode="h" horiz-adv-x="1311" 
d="M443 1434q70 -16 70 -62q0 -130 -132 -208q-59 7 -90 7q-19 -56 -104 -56q-99 0 -159 -41v-7q156 14 228 14h21q8 0 76 14h63q24 0 48 27h14q13 -242 62 -242q20 0 118 -21h64v256q0 49 97 49q0 7 13 7v21q-78 0 -104 34q26 208 56 208h374q62 -9 62 -62v-160
q0 -64 7 -180q0 -7 -7 -7l7 -83v-395l7 -41q0 -23 -55 -42l-104 14q-28 -10 -28 -21q-38 7 -55 7q-40 -25 -222 -55q-23 9 -42 27l-69 -6h-42q-39 0 -97 6l-139 -55q-97 7 -125 7q-131 -19 -131 -97v-111l7 -35h13q19 194 97 194l28 7q83 -20 97 -20q63 34 83 34
q36 0 49 -34q0 -15 -21 -181q21 -48 28 -48q0 -97 -49 -97h-256q-28 0 -28 83q0 7 14 83h-14q-48 -67 -48 -145q-26 -21 -49 -21h-41q-21 0 -28 55l7 49l-7 14q0 7 7 7l-7 83v256q0 7 -7 7l7 14v21q0 15 -7 27q7 13 7 28q0 16 -7 28q7 12 7 28v6q0 16 -7 28q7 12 7 28v7
q0 15 -7 28q7 12 7 27v28q0 7 -7 7l7 14v41q0 7 -7 7l7 14v194q0 16 7 28q0 7 -7 7q36 347 48 353h388zM1075 450q145 -36 145 -55v-7q-7 -265 -7 -291q0 -4 21 -69q-29 -28 -55 -28h-153q-41 0 -41 48h-35q-26 0 -76 -48h-97q-44 0 -62 83q20 181 62 243q0 35 187 62
q37 35 104 35q0 15 7 27z" />
    <glyph glyph-name="i" unicode="i" 
d="M55 1433h374q56 0 56 -118v-90q0 -25 7 -62q0 -45 -63 -55h-69q-62 -33 -62 -42v-14q44 0 90 7q90 -14 90 -34v-132q0 -292 7 -838q-18 -55 -63 -55h-41q-43 0 -132 132q-14 -3 -14 -14v-28q0 -49 14 -76l-21 -14h-180q-20 0 -48 104q7 666 7 879l7 62l-7 14q7 128 7 215
v138q7 21 41 21z" />
    <glyph glyph-name="j" unicode="j" horiz-adv-x="1168" 
d="M656 1437h375q35 -18 35 -55v-125q0 -126 -7 -340q0 -7 7 -7l-7 -49v-299q0 -309 -69 -555l-14 -7h-893q-48 0 -48 90q-30 82 -35 84q15 104 62 104h122q10 0 21 -21v-42q-14 -49 -14 -55q0 -42 77 -42q6 -28 62 -97q11 0 35 55q-39 0 -77 98q-34 10 -34 20q9 84 62 84
h167l48 -7q14 23 14 41v209q14 205 14 222v28q0 48 -14 48l7 14v21q0 40 -7 49q23 520 63 520z" />
    <glyph glyph-name="k" unicode="k" horiz-adv-x="1279" 
d="M55 1443l35 -7h131q11 -1 69 -83v-186q-5 -159 -28 -159q7 -13 7 -21q-14 -62 -14 -69q0 -104 56 -138h20q90 21 97 21q46 -35 62 -35q0 7 7 7q-18 46 -55 76q-80 -14 -117 -14l-28 21q21 57 34 283q0 8 -6 21q6 75 6 131v69q0 23 -20 48v14q2 14 14 14h144q10 0 21 -21
q7 -261 7 -352q0 -13 35 -62l-14 -124l14 -7h34l83 -7q14 27 21 138q0 7 -7 21q14 122 14 262q36 152 76 152h345q55 0 55 -103q7 0 14 -49l-21 -166q7 -43 35 -117q0 -117 -76 -117q-104 0 -131 -90q-13 -7 -28 -7h-69q-35 0 -62 -34l124 -21h186l21 -14l-7 -48v-7
q0 -14 28 -111q-35 -218 -35 -331v-14q21 -90 21 -97v-34q0 -57 -76 -76h-131l-35 7v69q0 10 -20 21h-7q-14 -97 -55 -97h-104q-44 0 -55 55l7 14v14q0 48 -35 138q10 207 48 207q172 14 318 35v13h-318q-9 0 -41 69q-11 0 -28 14h-131q-7 -35 -14 -131q14 -52 14 -62
q-29 -28 -241 -28q-46 -18 -56 -41q7 0 7 -7q97 14 187 14q117 -9 117 -42q0 -255 -62 -255h-290q-38 0 -55 34q83 66 83 104v145h-7q-32 -17 -49 -159q-41 0 -103 -110h-14q21 461 28 490q-28 57 -35 124q0 325 104 325q0 8 131 27l20 21q-13 7 -20 7q-18 0 -55 -7
q-159 12 -159 35q15 400 34 400z" />
    <glyph glyph-name="l" unicode="l" horiz-adv-x="1168" 
d="M458 1423q40 0 63 -520q-7 -9 -7 -49v-21l7 -14q-14 0 -14 -48v-28q0 -17 14 -222v-209q0 -18 14 -41l48 7h167q53 0 62 -84q0 -10 -34 -20q-38 -98 -77 -98q24 -55 35 -55q56 69 62 97q77 0 77 42q0 6 -14 55v42q11 21 21 21h122q47 0 62 -104q-5 -2 -35 -84
q0 -90 -48 -90h-893l-14 7q-69 246 -69 555v299l-7 49q7 0 7 7q-7 214 -7 340v125q0 37 35 55h375z" />
    <glyph glyph-name="m" unicode="m" horiz-adv-x="1728" 
d="M173 1443h241q55 0 55 -97v-27q0 -14 -13 -69l20 -97v-7q-74 -14 -172 -21v-13h165l42 -7q48 27 69 27h7q35 -24 55 -69v-20q-21 -27 -21 -63q19 -110 42 -110q221 -7 290 -7q0 7 7 7q0 -28 20 -48l49 7h103q23 0 35 6l41 -6h21q207 0 207 -49l35 -7h103q52 -8 55 -27
v-691q-30 -48 -69 -48h-262q-159 0 -159 97q-7 0 -7 6v401l-7 48h-7q-36 0 -117 7l-7 -14q0 -297 -62 -297h-62q-44 0 -90 -6q-117 0 -117 41l-42 269q-93 9 -110 14q-29 0 -55 -186l-69 -49q-132 0 -132 42q-17 54 -34 76l7 34q0 168 -69 200q-138 0 -138 56l-21 297
q0 55 152 55q2 10 145 55v14h-7q-64 0 -180 -7q-83 11 -110 41q0 235 35 235q76 7 138 7zM1153 1436h428q29 0 35 -138q-10 -435 -49 -435q-7 -21 -41 -21h-48l-132 49q-67 324 -145 324q-69 0 -69 42l14 48q0 12 -7 124zM1201 1146q20 0 83 -255q-39 -21 -179 -21h-7
q-138 4 -138 34q10 0 20 21v14q0 29 -6 76q27 131 62 131h165zM76 642h48q54 0 76 -145q14 0 14 -34q-7 -14 -7 -21q26 -131 62 -131q221 -15 221 -49l7 -34l-14 -7h-20q-60 0 -125 -7q-58 0 -117 76l-14 7l-7 -14q32 -97 62 -97q221 0 221 -48q14 -45 14 -62
q-39 -76 -76 -76h-172q-214 0 -214 48q-14 84 -14 132v400q0 62 55 62z" />
    <glyph glyph-name="n" unicode="n" horiz-adv-x="1410" 
d="M76 1437h361q56 0 56 -153q7 0 14 -48q-9 -42 -104 -42v-21q109 -28 236 -35q12 -25 34 -159q-27 -49 -27 -70v-34h97q97 0 97 187l7 63h14q24 -28 48 -28h63q67 -14 76 -14h21q73 0 229 -14v7q-75 49 -229 49q-25 48 -49 48q-14 0 -76 -7q-132 78 -132 215q27 56 70 56
h381q29 0 42 -271q7 0 14 -76q0 -7 -7 -7l7 -35v-194q0 -7 7 -7l-7 -14v-42q0 -7 7 -7l-7 -13v-28q0 -16 7 -28q-7 -12 -7 -28v-7q0 -15 7 -27q-7 -13 -7 -28v-7q0 -16 7 -28q-7 -12 -7 -28q0 -15 7 -27q-7 -13 -7 -28v-21q0 -7 7 -7l-7 -14v-257q0 -29 -7 -76l7 -14l-7 -14
q7 -49 7 -55q-10 -49 -28 -49h-41q-63 0 -63 104q-24 63 -35 63h-14v-7q14 -63 14 -91q-5 -69 -27 -69h-257q-49 0 -49 90l28 56l-21 173q0 42 49 42q21 0 83 -35l104 21q97 -18 97 -97q21 -100 21 -104h14l7 34v112q0 80 -139 97q-112 -7 -125 -7q-56 28 -132 55
q-69 -7 -104 -7q-21 22 -48 181q0 23 76 42v6q0 25 -174 42h-34q-14 0 -14 -21q0 -38 7 -76q-10 -194 -42 -194q-143 20 -243 55q-5 0 -42 -7q0 11 -27 21q-85 -9 -98 -14q-43 9 -62 35l7 48v396q0 29 7 76l-7 14q7 117 7 181v160q9 62 62 62zM160 451q0 -41 90 -41
q13 -42 160 -42q104 -74 104 -278h7q-16 -90 -63 -90h-83q-18 0 -76 49h-49q-10 -49 -28 -49h-166q-38 0 -56 35q21 48 21 69q-7 239 -7 292q0 19 146 55z" />
    <glyph glyph-name="o" unicode="o" horiz-adv-x="1279" 
d="M34 1433h371q71 0 82 -89v-62q0 -10 20 -20h14q0 27 28 116v48q12 7 27 7h98q30 0 130 -103q44 19 130 41q18 55 62 55h103q23 0 48 -20q7 -149 14 -549q-28 -75 -62 -75l-41 6l-7 -13v-14q117 -14 117 -41q6 -38 6 -55q7 -460 7 -542q7 -36 7 -41q-23 -75 -68 -75h-613
q-123 0 -336 -7q-96 20 -96 27q-68 227 -68 542v295l-7 41l7 14q-7 212 -7 336v123q0 37 34 55zM501 1152q6 -196 13 -240q-7 -27 -7 -55v-21q0 -6 7 -6q-13 -25 -13 -55v-28q13 -202 13 -219v-206l7 -34h105q48 0 48 199q7 24 7 27h20q43 -41 62 -41q41 14 165 28l116 -14
v14q0 20 -123 34h-137q-53 0 -117 110q0 100 48 459q-20 48 -62 48h-152z" />
    <glyph glyph-name="p" unicode="p" horiz-adv-x="1196" 
d="M90 1433h951q55 0 55 -138q7 -38 7 -139q0 -55 -138 -55l-42 -35q3 -14 14 -14q33 0 69 7q90 -7 90 -48q0 -35 -6 -104l6 -69q-43 -125 -62 -125q0 -17 28 -76q-14 -83 -62 -83h-312q-14 0 -14 14l7 41h-21v35l-7 34q-74 -117 -92 -124q-42 7 -42 -28q-23 -512 -62 -512
l-49 -14h-373q-35 18 -35 55v125q0 125 7 339q0 7 -7 7l7 49v297q0 309 69 554zM584 1357q69 -35 69 -83h7v83l-41 55q-11 0 -35 -55zM533 1163q-14 -23 -14 -42v-186q0 -56 63 -70h71l7 35v256h-78z" />
    <glyph glyph-name="q" unicode="q" horiz-adv-x="1282" 
d="M37 1434h370q71 0 82 -89v-62q0 -10 21 -20h13q0 27 28 116v48q12 7 27 7h103q30 0 130 -103q44 19 130 41q18 55 62 55h103q22 0 47 -20q7 -149 14 -548q-27 -76 -61 -76l-42 7l-6 -13v-14q116 -14 116 -41q7 -38 7 -55q7 -460 7 -541l7 -34q-7 -27 -7 -55v-206
q-10 -68 -62 -68h-41q-43 0 -130 130q-14 -2 -14 -14v-27q0 -49 14 -75l-21 -14h-178q-22 0 -48 110v123q0 14 -13 14h-185q-124 0 -336 -7q-96 19 -96 27q-68 226 -68 541v295l-7 41l7 13q-7 212 -7 336v123q0 37 34 55zM503 1153q7 -195 14 -239q-7 -27 -7 -55v-21
q0 -7 7 -7q-14 -25 -14 -54v-28q14 -202 14 -219v-205l6 -35h110q48 0 48 199q7 24 7 27h20q43 -41 62 -41q41 14 164 28l117 -14v14q0 20 -124 34h-136q-53 0 -117 109q0 101 48 459q-20 48 -62 48h-157z" />
    <glyph glyph-name="r" unicode="r" horiz-adv-x="1285" 
d="M55 1443l35 -7h131q11 -1 69 -83v-186q-5 -159 -28 -159q7 -13 7 -21q-14 -62 -14 -69q0 -104 56 -138h20q90 21 97 21q46 -35 62 -35q0 7 7 7q-18 46 -55 76q-80 -14 -117 -14l-28 21q21 57 34 283q0 8 -6 21q6 75 6 131v69q0 23 -20 48v14q2 14 14 14h773q55 0 55 -103
q7 0 14 -49l-21 -166q7 -43 35 -117q0 -117 -76 -117q-104 0 -131 -90q-13 -7 -28 -7h-69q-35 0 -62 -34l124 -21h186l21 -14l-7 -48v-7q0 -14 28 -111q-35 -218 -35 -331v-14q21 -90 21 -97v-34q0 -57 -76 -76h-131l-35 7v69q0 10 -20 21h-7q-14 -97 -55 -97h-104
q-44 0 -55 55l7 14v14q0 48 -35 138q10 207 48 207q172 14 318 35v13h-318q-9 0 -41 69q-11 0 -28 14h-131q-7 -35 -14 -131q14 -52 14 -62q-29 -28 -241 -28q-46 -18 -56 -41q7 0 7 -7q97 14 187 14q117 -9 117 -42q0 -255 -62 -255h-290q-38 0 -55 34q83 66 83 104v145h-7
q-32 -17 -49 -159q-41 0 -103 -110h-14q21 461 28 490q-28 57 -35 124q0 325 104 325q0 8 131 27l20 21q-13 7 -20 7q-18 0 -55 -7q-159 12 -159 35q15 400 34 400zM504 1146l-7 -34v-42q0 -22 35 -69l-14 -124l14 -7h34l83 -7q14 27 21 138l-7 28q7 36 7 69v20q0 11 -28 28
h-138z" />
    <glyph glyph-name="s" unicode="s" horiz-adv-x="1270" 
d="M56 1432h111q44 0 97 -48l-7 -35v-35q0 -7 7 -7q-7 -13 -7 -21q0 -21 -7 -132h7q-8 -47 -21 -62l-34 6h-139q-38 0 -56 28q17 306 49 306zM926 1432h91q91 0 125 -42q-7 -104 -7 -152v-77q0 -14 -14 -14h-7q-56 70 -83 70h-98l-69 7q0 -7 -7 -7q10 -29 35 -42h104l35 -7
v-14q0 -14 -14 -14h-516l-7 -35q14 -62 27 -236h586q14 0 21 -69q0 -14 -7 -14q7 -70 7 -105v-187q0 -16 7 -28q0 -35 -257 -56q0 -14 -35 -14l-14 7q-28 -10 -28 -21v-7l132 -20q64 20 77 20q111 0 111 -104q0 -83 7 -83l-7 -14q7 -84 7 -125q0 -49 -69 -49h-1031
q-10 0 -21 21v62q0 24 -7 35q0 167 83 167h35q319 0 417 -14q28 7 23 7l70 -7q0 51 34 285l-14 7h-27q-239 0 -239 28l-7 28l7 35q0 71 -41 97l-14 -7l7 -35q0 -132 -84 -132q-59 0 -208 -7q-7 14 -7 21q0 59 -7 222l21 35v14q-21 0 -21 14v146q0 23 90 35q80 -7 153 -7
l14 21v76q0 29 7 77q-7 12 -7 27q82 174 153 174h377v-7q7 -187 35 -187h7v27q0 174 69 174z" />
    <glyph glyph-name="t" unicode="t" horiz-adv-x="1266" 
d="M41 1434h766l20 -14q-69 -145 -69 -172q16 0 21 -35q-14 -61 -14 -82q16 -49 21 -49l-7 -34v-993q-41 -55 -96 -55h-318q-48 0 -69 83l7 48v62q0 186 118 186q0 9 41 14q61 -7 76 -7l138 21q35 -14 55 -14l7 14q-7 0 -35 34q-95 -14 -151 -14q-133 14 -187 14h-13
q-7 0 -7 -7q-30 0 -35 76q7 472 7 600q21 135 55 172v14q-61 0 -96 -124l-35 -7q-53 0 -193 -7q-37 0 -48 145q14 131 41 131zM869 1434h103q120 0 186 -14v-20q0 -21 21 -56q-46 -179 -110 -179q0 -7 -7 -7q-214 0 -214 48q0 5 -21 97q32 131 42 131z" />
    <glyph glyph-name="u" unicode="u" horiz-adv-x="1215" 
d="M62 1437h69q158 0 158 -48q7 0 7 -7v-76q0 -37 27 -48q7 58 35 117q-14 42 -14 55l14 7h82q14 -2 14 -14q-7 -79 -14 -89q7 -213 7 -337v-584q0 -21 -96 -28l-69 7l-7 -14v-7q70 -34 83 -34h62q34 -18 34 -48h117q48 29 48 41q7 131 7 179l20 14h7l55 -49q94 28 193 28
h20q7 0 7 -7l14 7q49 -14 55 -14l7 14q-79 34 -144 34h-152q-89 80 -89 97q0 32 7 213l14 7l-7 13q41 235 41 344q0 59 -7 206h7q4 0 82 -82q13 15 124 41q33 55 41 55h159q27 0 27 -254q7 -231 7 -337q-36 -55 -41 -55h-42q-6 0 -6 7q-28 -11 -28 -21q48 -18 124 -27
q7 -49 7 -55q0 -306 13 -626q-34 -55 -41 -55h-818q-106 0 -323 -7l-7 14q0 73 48 96q14 107 14 206v220q0 16 -7 28l7 14l-7 13l7 14l-7 14l7 14q-7 12 -7 27h7l-7 14v7q0 7 7 7l-7 13v7q0 7 7 7l-7 14v14q0 6 7 6l-7 14v7q0 7 7 7l-7 14v7q0 6 7 6l-7 14v7q0 7 7 7l-7 14
v7q0 6 7 6l-7 14v172q0 79 -7 241h7l-7 13v7q0 7 7 7q0 7 -7 7q0 117 62 117z" />
    <glyph glyph-name="v" unicode="v" horiz-adv-x="1473" 
d="M968 1446h41q42 0 128 -128q13 0 13 14v27q0 47 -13 74l20 13h175q22 0 47 -108v-255q0 -101 -7 -182q7 -45 7 -141q0 -82 -14 -202l7 -13q0 -168 -74 -168h-34q-121 44 -121 60q-11 74 -27 74h-6q-10 0 -20 -20l6 -67q-40 -20 -141 -20h-20q-114 4 -114 33q9 0 20 20
q0 44 -7 88q20 128 54 128h27v6q0 170 -7 713q17 54 60 54zM54 1426h363q54 0 54 -115v-87q0 -24 7 -60q0 -44 -61 -54h-67q-61 -32 -61 -41v-13q43 0 88 7q87 -14 87 -34v-363l7 -14l33 7q47 -33 47 -81q-20 -56 -20 -74q20 -100 41 -100l228 -7q13 7 21 7q0 -41 20 -41
q92 0 127 7l189 -14q-94 -59 -94 -127v-61q0 -54 -95 -54l-13 -13l-34 7h-6q-7 0 -7 -7l-13 7h-27q-12 0 -27 -101q-12 -7 -27 -7h-236l-33 7v27q0 74 -41 74q-87 0 -87 67q0 94 -40 94h-148q-47 0 -47 47v101q0 10 -21 20h-20q-134 0 -134 41v221q0 23 -7 34l7 40v202
q0 32 6 67q0 8 -6 21q6 124 6 208v135q7 20 41 20z" />
    <glyph glyph-name="w" unicode="w" horiz-adv-x="1715" 
d="M248 1437h171q47 0 76 -89q0 -83 -76 -83q-192 0 -192 -41q-28 -69 -28 -76q7 0 7 -7q77 76 103 76q4 0 28 7q65 -7 124 -7h20q14 -2 14 -14q0 -22 -27 -62v-41q0 -17 -14 -62q34 -172 48 -172q124 0 124 35q23 282 62 282q66 0 89 6q45 -6 89 -6h55q69 0 69 -241v-62
l14 -7q70 7 110 7q14 0 14 14v433q27 96 96 96q2 7 69 7h261q38 0 69 -48v-688q0 -18 -55 -27h-103q-23 0 -76 -48q-44 0 -90 -7v-28q-41 -92 -89 -281l-14 -7h-158q-47 0 -62 117l-7 13q7 47 7 76v14q-24 19 -41 62q-38 0 -282 -7q-34 -65 -34 -110q0 -36 20 -62v-21
q-19 -44 -55 -69h-6q-57 13 -62 28l-48 -7h-165v-14q97 -7 171 -20v-7q-20 -93 -20 -103q14 -45 14 -62v-28q0 -96 -55 -96h-241q-158 0 -158 28l-14 213q32 32 117 41q101 -7 179 -7v7q0 12 -90 34q-77 42 -185 42l-21 41q15 292 28 330q-7 179 -7 282v247q0 172 75 172
q79 7 152 7zM1471 598h49q75 0 75 -192q14 -209 14 -268q-7 -131 -34 -131h-427q-14 0 -14 14q7 93 7 130q-13 23 -13 42q0 41 96 41q52 29 103 268q0 69 96 69q11 27 48 27z" />
    <glyph glyph-name="x" unicode="x" horiz-adv-x="1314" 
d="M1131 1433q55 0 55 -103q7 0 14 -48l-21 -164q7 -43 35 -117q0 -117 -76 -117q-103 0 -130 -89q-12 -7 -28 -7h-68q-34 0 -62 -34l124 -20h185l20 -14l-7 -48v-7q0 -14 28 -110q-34 -216 -34 -329v-13q20 -90 20 -96v-35q0 -56 -75 -75h-131l-34 7v68q0 10 -20 21h-7
q-13 -96 -55 -96h-103q-43 0 -55 55l7 13v14q0 48 -34 137q9 206 48 206q170 14 315 34v14h-315l-48 69l-21 13h-48l-82 7q-14 -26 -21 -137q0 -7 7 -21q-13 -121 -13 -260q-37 -151 -76 -151h-343q-55 0 -55 103q-6 0 -13 48l20 164q-7 43 -34 117q0 117 75 117
q104 0 131 89q12 7 27 7h69q34 0 61 34l-123 20h-185l-21 14l7 48v7q0 14 -27 110q34 216 34 329v13q-21 90 -21 96v35q0 56 76 75h130l34 -7v-68q0 -10 21 -21h7q13 96 55 96h103q43 0 54 -55l-6 -13v-14q0 -48 34 -137q-10 -206 -48 -206q-170 -14 -316 -34v-14h316
l48 -69l20 -13h48l83 -7q13 26 20 137q0 7 -7 21q14 121 14 260q36 151 75 151h343z" />
    <glyph glyph-name="y" unicode="y" horiz-adv-x="1305" 
d="M1123 1433q55 0 55 -103q7 0 14 -49l-21 -165q7 -43 35 -117q0 -117 -76 -117q-104 0 -131 -90q-12 -7 -28 -7h-68q-35 0 -62 -34l124 -21h186l20 -13l-7 -49v-7q0 -14 28 -110q-35 -224 -35 -317q14 -34 21 -34q0 -8 -7 -21q7 -72 7 -117q-28 -62 -69 -62h-1026
q-49 0 -49 90q-29 80 -34 82q15 104 62 104h276q9 0 20 -21v-41q-14 -50 -14 -56q0 -41 76 -41q7 -27 62 -96q11 0 35 55q-39 0 -76 96q-35 11 -35 21q10 83 62 83h207q0 28 21 186v34q0 31 -42 62q-174 7 -254 7h-221l-14 7q13 69 55 69h69q35 0 62 34l-124 21h-186l-20 14
l7 48v7q0 14 -28 110q34 218 34 331v13q-20 90 -20 97v34q0 57 76 76h130l35 -7v-69q0 -10 21 -20h6q14 96 56 96h103q44 0 55 -55l-7 -14v-14q0 -48 35 -137q-10 -207 -49 -207q-170 -14 -317 -34v-14h317l49 -69l20 -14h48l83 -7q14 27 21 138q0 7 -7 21q14 122 14 261
q36 152 76 152h344z" />
    <glyph glyph-name="z" unicode="z" horiz-adv-x="1270" 
d="M7 306q18 28 56 28h139l34 7q13 -16 21 -63h-7q7 -110 7 -132q0 -7 7 -21q-7 0 -7 -7v-35l7 -34q-53 -49 -97 -49h-111q-32 0 -49 306zM857 174v28h-7q-28 0 -35 -188v-7h-377q-71 0 -153 174q0 15 7 28q-7 47 -7 76v77l-14 20q-73 0 -153 -7q-90 12 -90 35v146
q0 14 21 14v14l-21 35q7 164 7 222q0 8 7 21q149 -7 208 -7q84 0 84 -132l-7 -35l14 -7q41 26 41 98l-7 34l7 28q0 28 239 28h27l14 7q-34 235 -34 285l-70 -7q5 0 -23 7q-98 -14 -417 -14h-35q-83 0 -83 167q7 12 7 35v62q11 21 21 21h1031q69 0 69 -48q0 -42 -7 -126
l7 -14q-7 0 -7 -83q0 -104 -111 -104q-13 0 -77 21l-132 -21v-7q0 -11 28 -21l14 7q35 0 35 -14q257 -20 257 -56q-7 -12 -7 -27v-188q0 -35 -7 -104q7 0 7 -14q-7 -70 -21 -70h-586q-13 -174 -27 -236l7 -35h516q14 0 14 -14v-14l-35 -7h-104q-25 -13 -35 -41q7 0 7 -7
l69 7h98q27 0 83 69h7q14 0 14 -14v-76q0 -49 7 -153q-34 -42 -125 -42h-91q-69 0 -69 174z" />
    <glyph glyph-name="uniF001" unicode="&#xf001;" horiz-adv-x="1073" 
 />
    <glyph glyph-name="uniF001" unicode="&#xfb01;" horiz-adv-x="1073" 
 />
    <glyph glyph-name="uniF002" unicode="&#xf002;" horiz-adv-x="1081" 
 />
    <glyph glyph-name="uniF002" unicode="&#xfb02;" horiz-adv-x="1081" 
 />
    <glyph glyph-name="uni0401" unicode="&#x401;" horiz-adv-x="1255" 
d="M229 339q8 -11 20 -55l-7 -14q7 -93 7 -138h7l-7 -14v-35q0 -15 7 -28q0 -32 -97 -55h-111q-33 0 -48 312q35 21 55 21h139zM667 1566q0 -28 17 -34q56 5 182 -1q85 23 85 40v147l-11 17q-22 -11 -62 -11h-23q-9 0 -12 11q108 73 108 108v33q0 37 -45 52q-175 -8 -207 -9
q-32 -2 -32 -47v-306zM83 1434h1053q10 0 21 -21v-62q0 -23 7 -35q0 -166 -83 -166h-35q-317 0 -416 14q-27 -7 -48 -7l-69 7q0 -50 -35 -284l14 -7h28q263 0 263 -28l7 -28l-7 -34q0 -72 41 -97l14 7l-7 34q0 132 83 132q59 0 208 7q7 -13 7 -21q0 -58 7 -222
q-26 -55 -69 -55h-180q-35 0 -63 62h-7q0 -62 -48 -62h-256q-7 -116 -28 -249q7 -12 7 -28h540q14 -2 14 -14v-14l-35 -7h-103q-26 -13 -35 -41q7 0 7 -7l69 7h97q27 0 83 69h7q14 -2 14 -14v-76q0 -49 7 -152q-34 -42 -125 -42h-90q-69 0 -69 173v28h-7q-30 0 -35 -194
h-388q-90 0 -166 173q0 16 7 28q-7 47 -7 76v76q0 18 -28 21q-55 0 -145 -7q-83 14 -83 35v145q0 7 -7 7l7 14v7q0 28 -7 55q0 14 7 14q-7 69 -7 104v187q0 16 -7 28q0 35 256 55q0 12 35 14l14 -7q27 11 27 21v7l-131 21q-64 -21 -76 -21q-111 0 -111 104q0 83 -7 83l7 14
q-7 83 -7 125q0 48 69 48zM235 1563q0 -27 17 -33q57 5 182 -1q86 23 86 39v147l-12 18q-22 -12 -62 -12h-23q-9 0 -11 12q108 72 108 108v33q0 37 -45 52q-175 -9 -208 -10q-32 -1 -32 -47v-306z" />
    <glyph glyph-name="uni0404" unicode="&#x404;" horiz-adv-x="1285" 
d="M1185 1392q0 -20 -41 -69q0 -172 -76 -172h-503q-48 0 -48 -200l-7 -28h-21q-43 42 -62 42q-41 -14 -165 -28l-117 14v-14q0 -21 124 -34h127h17q79 -2 188 -6q254 0 254 -27v-159q0 -8 -55 -41q-26 -111 -41 -124q82 -78 82 -82v-7q-147 7 -206 7q-56 0 -144 -11
q-7 -58 -16 -122q21 -49 62 -49h7q196 0 545 7q18 0 55 -55q-7 -81 -7 -117v-55q0 -62 -76 -62h-34q-180 0 -180 83v69q0 9 -20 20h-14q0 -27 -28 -117v-48q-12 -7 -27 -7h-241q-31 0 -131 103q-44 -19 -131 -41q-18 -55 -62 -55h-103q-23 0 -49 21q-7 138 -13 551
q27 76 62 76l41 -7l7 13v14q-117 14 -117 42q-7 37 -7 55q-7 462 -7 544q0 5 -7 41q23 76 69 76h654q155 0 441 7q14 -7 21 -7v-41z" />
    <glyph glyph-name="uni0406" unicode="&#x406;" 
d="M55 1433h374q56 0 56 -118v-90q0 -25 7 -62q0 -45 -63 -55h-69q-62 -33 -62 -42v-14q44 0 90 7q90 -14 90 -34v-132q0 -292 7 -838q-18 -55 -63 -55h-41q-43 0 -132 132q-14 -3 -14 -14v-28q0 -49 14 -76l-21 -14h-180q-20 0 -48 104q7 666 7 879l7 62l-7 14q7 128 7 215
v138q7 21 41 21z" />
    <glyph glyph-name="uni0407" unicode="&#x407;" 
d="M55 1433h374q56 0 56 -118v-90q0 -25 7 -62q0 -45 -63 -55h-69q-62 -33 -62 -42v-14q44 0 90 7q90 -14 90 -34v-132q0 -292 7 -838q-18 -55 -63 -55h-41q-43 0 -132 132q-14 -3 -14 -14v-28q0 -49 14 -76l-21 -14h-180q-20 0 -48 104q7 666 7 879l7 62l-7 14q7 128 7 215
v138q7 21 41 21zM327 1872q0 45 32 47q32 1 207 9q45 -15 45 -52v-33q0 -35 -108 -108q3 -11 12 -11h23q40 0 62 11l11 -17v-147q0 -17 -85 -40q-126 6 -182 1q-17 6 -17 34v306zM-105 1869q0 46 32 47q33 1 208 10q45 -15 45 -52v-33q0 -36 -108 -108q2 -12 11 -12h23
q40 0 62 12l12 -18v-147q0 -16 -86 -39q-125 6 -182 1q-17 6 -17 33v306z" />
    <glyph glyph-name="uni0410" unicode="&#x410;" horiz-adv-x="1284" 
d="M63 1445q540 -7 810 -7h286l35 -7v-98l-7 -83h7q-7 -14 -7 -21q0 -224 -14 -538h7q-7 -13 -7 -21q0 -61 -7 -335q-10 -35 -49 -35q-27 0 -63 35q-64 0 -265 14q-72 -35 -91 -35q0 78 -42 112h-91l-41 7q-20 0 -35 -49q14 -216 14 -349q-36 -35 -63 -35h-91q-27 0 -63 35
l-42 -35h-216q-28 9 -28 63q28 291 35 530l-7 14l7 42l-7 14q7 12 7 28t-7 28q7 12 7 28v14q0 7 -7 7l7 14v419q0 29 7 76l-7 14q7 28 7 49l-7 14q7 12 7 28v21q0 7 -7 7q9 32 28 35zM314 1166l-7 -70v-28q0 -51 21 -56h161l14 -7q0 -84 -56 -84q-49 0 -49 -62
q0 -18 -14 -84l21 -35v-77q2 -14 14 -14h63q14 5 42 98l76 14q112 -25 112 -70q-7 -37 -7 -42l14 -7h70q21 0 49 196q-40 53 -42 97h-7l-70 -7q-11 16 -28 70l21 14h35q49 0 154 7q0 8 6 21q0 7 -6 7l6 35v77h-181q-11 0 -63 -133l-35 -7h-118q14 58 14 126q-7 13 -7 21
h-203zM796 314q230 -9 230 -56q86 0 133 -63q0 -195 -112 -195h-328q-42 0 -63 49q33 244 56 244q19 0 84 21z" />
    <glyph glyph-name="uni0411" unicode="&#x411;" horiz-adv-x="1276" 
d="M992 502h-316l-13 -7q2 -24 4 -55l-7 -27q7 -37 7 -69v-21q-17 -27 -28 -27h-137l-7 34v41q0 23 34 69l-13 124l13 7h35l82 7l2 -3l3 -9q27 -21 341 -51v-13zM1150 433q-5 5 -17 113q-7 61 -17 155q20 50 27 151q-7 27 -7 55v41q0 28 -103 28t-172 -7q-17 0 -55 7
q-177 -7 -318 -7l21 193q15 0 75 -7l49 7l495 -5v5q20 50 27 151q-7 27 -7 55v41q0 28 -103 28t-172 -7q-17 0 -55 7q-180 -7 -323 -7h-412q-30 0 -55 -14l-14 7q0 -7 -7 -7l21 -412l-21 -35l5 -12l9 -20l7 -16q-28 -90 -28 -117q0 -23 7 -144q0 -141 82 -179
q122 -17 165 -41l-6 -14q-33 0 -69 7q-146 -15 -158 -27q15 -406 34 -406l34 7h131q53 52 69 82v186q0 115 -28 165h7q35 14 62 -137l-7 -28q7 -65 7 -124v-68q0 -23 -21 -49v-13q0 -14 14 -14h778q26 1 45 69l-3 6q-103 15 -144 35q-37 75 -69 75h-69q-20 0 -62 28
q0 11 124 27h186l20 14l-7 48v7z" />
    <glyph glyph-name="uni0412" unicode="&#x412;" horiz-adv-x="1276" 
d="M818 1437q38 -7 55 -7q69 7 172 7t103 -28v-41q0 -28 7 -55q-7 -101 -27 -151q27 -261 34 -268l-28 -117v-7l7 -48l-20 -14h-186q-124 -16 -124 -27q42 -28 62 -28h69q32 0 69 -75q41 -20 144 -35q12 -25 21 -103q-28 -74 -35 -117l21 -165q-22 -151 -62 -151h-777
q-14 0 -14 14v13q21 26 21 49v68q0 59 -7 124l7 28q-27 151 -62 137h-7q28 -50 28 -165v-186q-16 -30 -69 -82h-131l-34 -7q-19 0 -34 406q12 12 158 27q36 -7 69 -7l6 14q-43 24 -165 41q-82 38 -82 179q-7 121 -7 144q0 27 28 117l-21 48l21 35l-21 412q7 0 7 7l14 -7
q25 14 55 14h412q143 0 323 7zM509 1162l-28 -261q7 -14 7 -21h131q55 30 55 76l14 7h316v13q-344 33 -344 55q-11 131 -27 131l-49 -7q-60 7 -75 7zM564 571h-35l-13 -7l13 -124q-34 -46 -34 -69v-41l7 -34h137q11 0 28 27v21q0 32 -7 69l7 27q-7 111 -21 138z" />
    <glyph glyph-name="uni0413" unicode="&#x413;" horiz-adv-x="1168" 
d="M410 0h-375q-35 18 -35 55v125q0 126 7 340q0 7 -7 7l7 49v299q0 309 69 555l14 7h893q48 0 48 -90q30 -82 35 -84q-15 -104 -62 -104h-122q-10 0 -21 21v42q14 49 14 55q0 42 -77 42q-6 28 -62 97q-11 0 -35 -55q39 0 77 -98q34 -10 34 -20q-9 -84 -62 -84h-167l-48 7
q-14 -23 -14 -41v-209q-14 -205 -14 -222v-28q0 -48 14 -48l-7 -14v-21q0 -40 7 -49q-23 -520 -63 -520z" />
    <glyph glyph-name="uni0414" unicode="&#x414;" horiz-adv-x="1445" 
d="M867 902q-89 -80 -89 -97q0 -32 7 -213l14 -7l-7 -13q30 -174 38 -279h-226q2 85 2 148v584q0 21 -96 28l-69 -7l-7 14v7q70 34 83 34h62q34 18 34 48h117q48 -29 48 -41q7 -131 7 -179l20 -14h7l55 49q94 -28 193 -28h20q7 0 7 7l14 -7q49 14 55 14l7 -14
q-79 -34 -144 -34h-152zM1460 291h-130l5 7h-68q6 203 6 301q-36 55 -41 55h-42q-6 0 -6 -7q-28 11 -28 21q48 18 124 27q7 49 7 55q0 306 13 626q-34 55 -41 55h-818q-106 0 -323 7l-7 -14q0 -73 48 -96q14 -107 14 -206v-220q0 -16 -7 -28l7 -14l-7 -13l7 -14l-7 -14
l7 -14q-7 -12 -7 -27h7l-7 -14v-7q0 -7 7 -7l-7 -13v-7q0 -7 7 -7l-7 -14v-14q0 -6 7 -6l-7 -14v-7q0 -7 7 -7l-7 -14v-7q0 -6 7 -6l-7 -14v-7q0 -7 7 -7l-7 -14v-7q0 -6 7 -6l-7 -14v-172q0 -40 -2 -100h-44l1 -5q-66 2 -149 5l-7 -14q0 -73 48 -96q4 -32 7 -62v-28
q0 -79 -7 -241h7l-7 -13v-7q0 -7 7 -7q0 -7 -7 -7q0 -117 62 -117h69q158 0 158 48q7 0 7 7v76q0 37 27 48q7 -58 35 -117q-14 -42 -14 -55l14 -7h82q14 2 14 14q-7 79 -14 89q3 106 5 191h8l-20 45q2 4 2 9q7 0 7 7v76q0 37 27 48q7 -58 35 -117q-14 -42 -14 -55l12 -6h107
q119 2 207 8q96 6 96 14q27 1 55 2q-25 -46 -25 -131v-62l-7 -48q21 -83 70 -83h317q56 0 97 55v413q17 42 48 107z" />
    <glyph glyph-name="uni0415" unicode="&#x415;" horiz-adv-x="1255" 
d="M83 1434h1053q10 0 21 -21v-62q0 -23 7 -35q0 -166 -83 -166h-35q-317 0 -416 14q-27 -7 -48 -7l-69 7q0 -50 -35 -284l14 -7h28q263 0 263 -28l7 -28l-7 -34q0 -72 41 -97l14 7l-7 34q0 132 83 132q59 0 208 7q7 -13 7 -21q0 -58 7 -222q-26 -55 -69 -55h-180
q-35 0 -63 62h-7q0 -62 -48 -62h-256q-7 -116 -28 -249q7 -12 7 -28h540q14 -2 14 -14v-14l-35 -7h-103q-26 -13 -35 -41q7 0 7 -7l69 7h97q27 0 83 69h7q14 -2 14 -14v-76q0 -49 7 -152q-34 -42 -125 -42h-90q-69 0 -69 173v28h-7q-30 0 -35 -194h-388q-90 0 -166 173
q0 16 7 28q-7 47 -7 76v76q0 18 -28 21q-55 0 -145 -7q-83 14 -83 35v145q0 7 -7 7l7 14v7q0 28 -7 55q0 14 7 14q-7 69 -7 104v187q0 16 -7 28q0 35 256 55q0 12 35 14l14 -7q27 11 27 21v7l-131 21q-64 -21 -76 -21q-111 0 -111 104q0 83 -7 83l7 14q-7 83 -7 125
q0 48 69 48zM229 339q8 -11 20 -55l-7 -14q7 -93 7 -138h7l-7 -14v-35q0 -15 7 -28q0 -32 -97 -55h-111q-33 0 -48 312q35 21 55 21h139z" />
    <glyph glyph-name="uni0416" unicode="&#x416;" horiz-adv-x="2039" 
d="M960 291q0 7 -7 7l2 4q12 20 51 36h24q39 -15 52 -34q-34 -2 -69 -6q-26 -3 -53 -7zM1010 1012l5 -3h-1l-19 -21q-19 -2 -35 -5l-3 29q25 4 38 4q6 0 15 -4zM1899 664v7l7 48l-21 14h-186l-124 21q27 34 62 34h69q15 0 28 7q27 90 131 90q76 0 76 117q-28 74 -35 117
l21 166q-7 49 -14 49q0 103 -55 103h-345q-40 0 -76 -152q0 -140 -14 -262q7 -14 7 -21q-7 -111 -21 -138l-83 7h-34l-14 7l14 124q-34 48 -35 61v2q-13 332 -29 372h-32l-7 -1h-110q-6 -3 -8 -13v-14q20 -25 20 -48v-69q0 -56 -6 -131q6 -13 6 -21q-4 -74 -9 -129l-3 -29
q-10 -91 -22 -125l28 -21q37 0 117 14q37 -30 55 -76q-7 0 -7 -7q-16 0 -62 35q-7 0 -97 -21h-20q-40 25 -51 85q-5 24 -5 53q0 4 4 25q4 16 10 44q0 8 -7 21q23 0 28 159v186q-17 25 -30 42q-31 41 -39 41h-131l-35 7q-3 0 -5 -8q-10 0 -21 -21q-7 -257 -7 -349v-3v-2
q-3 -15 -35 -60l14 -124l-14 -7h-34l-83 -7q-14 27 -21 138q0 7 7 21q-14 122 -14 262q-36 152 -76 152h-345q-55 0 -55 -103q-7 0 -14 -49l21 -166q-7 -43 -35 -117q0 -117 76 -117q104 0 131 -90q13 -7 28 -7h69q35 0 62 -34l-124 -21h-186l-21 -14l7 -48v-7
q0 -14 -28 -111q35 -218 35 -331v-14q-21 -90 -21 -97v-34q0 -57 76 -76h131l35 7v69q0 10 20 21h7q14 -97 55 -97h104q44 0 55 55l-7 14v14q0 48 35 138q-10 207 -48 207q-172 14 -318 35v13h318q9 0 41 69q11 0 28 14h118q8 -24 19 -47q-5 -19 -16 -238q-2 -36 -3 -68
q3 -108 21 -157q51 83 87 83q17 142 49 159h7v-145q0 -38 -83 -104q17 -34 55 -34h290q25 0 40 41q8 -13 16 -28h14q-5 101 -9 185q-1 36 -3 69q-11 216 -16 236q12 24 20 49h117q17 -14 28 -14q32 -69 41 -69h318v-13q-146 -21 -318 -35q-38 0 -48 -207q35 -90 35 -138v-14
l-7 -14q11 -55 55 -55h104q41 0 55 97h7q20 -11 20 -21v-69l35 -7h131q76 19 76 76v34q0 7 -21 97v14q0 113 35 331q-28 97 -28 111z" />
    <glyph glyph-name="uni0417" unicode="&#x417;" horiz-adv-x="1271" 
d="M977 1101h138q21 0 56 21q-15 312 -49 312h-111q-96 -23 -96 -55q6 -13 6 -28v-35l-6 -14h6q0 -45 7 -138l-7 -14q13 -44 21 -55zM831 374l132 -21q64 21 76 21q111 0 111 -104q0 -83 7 -83l-7 -14q7 -83 7 -125q0 -48 -69 -48h-1053q-10 0 -21 21v62q0 23 -7 35
q0 20 2 38q1 85 5 197q-7 10 -14 89q0 12 14 14h82l14 -7q0 -13 -14 -55q26 -55 34 -110l1 -7q6 3 11 7q16 13 16 41v76q0 7 7 7q0 48 158 48h69q62 0 62 -117q-7 0 -7 -7q7 0 7 -7v-7l-7 -13h7l-1 -27q55 -3 87 -8q28 7 49 7l69 -7q0 50 35 284l-14 7h-28q-263 0 -263 28
l-7 28l7 34q0 15 -6 41l-7 23l-7 23q-19 57 -15 66q3 10 8 22h60q10 0 17 40h220q7 116 28 249q-7 12 -7 28h-221q-1 -123 -10 -176q-6 -40 -17 -40h-159q-8 0 -41 55q-111 26 -124 41q-78 -82 -82 -82h-7q7 147 7 206v7q0 31 -4 72v14q0 49 -7 152q33 42 125 42h90
q69 0 69 -173v-28h7q29 0 35 194h387q91 0 167 -173q0 -16 -7 -28q7 -47 7 -76v-76q0 -18 27 -21q57 0 146 7q83 -14 83 -35v-145q0 -7 7 -7l-7 -14v-7q0 -28 7 -55q0 -14 -7 -14q7 -69 7 -104v-187q0 -16 7 -28q0 -35 -256 -55q0 -12 -35 -14l-14 7q-28 -11 -28 -21v-7z
" />
    <glyph glyph-name="uni0418" unicode="&#x418;" horiz-adv-x="1410" 
d="M14 62v160q0 64 -7 181l7 14q-7 47 -7 76v396l-7 48q19 26 62 35q13 -5 98 -14q27 10 27 21q37 -7 42 -7q100 35 243 55q32 0 42 -194q-7 -38 -7 -76q0 -21 14 -21h34q174 17 174 42v6q-76 19 -76 42q27 159 48 181q35 0 104 -7q76 27 132 55q13 0 125 -7q139 17 139 97
v112l-7 34h-14q0 -4 -21 -104q0 -79 -97 -97l-104 21q-62 -35 -83 -35q-49 0 -49 42l21 173l-28 56q0 90 49 90h257q22 0 27 -69q0 -28 -14 -91v-7h14q11 0 35 63q0 104 63 104h41q18 0 28 -49q0 -6 -7 -55l7 -14l-7 -14q7 -47 7 -76v-257l7 -14q-7 0 -7 -7v-21q0 -15 7 -28
q-7 -12 -7 -27q0 -16 7 -28q-7 -12 -7 -28v-7q0 -15 7 -28q-7 -12 -7 -27v-7q0 -16 7 -28q-7 -12 -7 -28v-28l7 -13q-7 0 -7 -7v-42l7 -14q-7 0 -7 -7v-194l-7 -35q7 0 7 -7q-7 -76 -14 -76q-13 -271 -42 -271h-381q-43 0 -70 56q0 137 132 215q62 -7 76 -7q24 0 49 48
q154 0 229 49v7q-156 -14 -229 -14h-21q-9 0 -76 -14h-63q-24 0 -48 -28h-14l-7 63q0 187 -97 187h-97v-34q0 -21 27 -70q-22 -134 -34 -159q-127 -7 -236 -35v-21q95 0 104 -42q-7 -48 -14 -48q0 -153 -56 -153h-361q-53 0 -62 62zM14 1041q0 53 7 292q0 21 -21 69
q18 35 56 35h166q18 0 28 -49h49q58 49 76 49h83q47 0 63 -90h-7q0 -204 -104 -278q-147 0 -160 -42q-90 0 -90 -41q-146 36 -146 55z" />
    <glyph glyph-name="uni0419" unicode="&#x419;" horiz-adv-x="1410" 
d="M988 1764q-14 -175 -91 -175h-441q-66 0 -91 59q-8 17 -12 40l-6 18l-1 3q-6 16 -14 34q6 13 15 23l6 7l9 8q19 15 44 19q18 8 40 8h71q8 0 16 -7q16 -14 27 -58l5 -19q0 -5 -3 -28h210l-9 64q32 43 103 58q17 -6 105 -17l17 -1v-36zM423 1988v0h-4h4zM14 62
q9 -62 62 -62h359q55 0 55 152q7 0 14 48q-9 42 -103 42v21q108 27 235 34q12 25 33 159q-26 48 -26 69v34h96q97 0 97 -186l7 -63h13q24 28 48 28h63q67 14 75 14h21q73 0 228 14v-7q-74 -49 -228 -49q-25 -47 -48 -47q-14 0 -76 7q-131 -78 -131 -214q27 -56 69 -56h379
q29 0 42 270q7 0 14 75q0 7 -7 7l7 35v193q0 7 7 7l-7 14v42q0 7 7 7l-7 12v28q0 16 7 28q-7 12 -7 28v7q0 15 7 27q-7 13 -7 28v7q0 16 7 28q-7 11 -7 27q0 15 7 27q-7 13 -7 28v21q0 7 7 7l-7 14v255q0 29 -7 76l7 14l-7 14q7 49 7 55q-10 48 -28 48h-41q-62 0 -62 -103
q-24 -63 -35 -63h-14v7q14 63 14 91q-5 68 -27 68h-256q-48 0 -48 -89l28 -56l-21 -172q0 -42 48 -42q21 0 83 35l103 -21q97 18 97 97q21 99 21 103h14l7 -34v-111q0 -80 -139 -97q-111 7 -124 7q-56 -27 -131 -54q-69 7 -104 7q-21 -22 -47 -180q0 -23 75 -42v-6
q0 -25 -173 -42h-34q-14 0 -14 21q0 38 7 76q-10 193 -41 193q-143 -20 -242 -55q-5 0 -42 7q0 -11 -27 -21q-84 9 -97 14q-43 -9 -62 -35l7 -48v-394q0 -29 7 -75l-7 -14q7 -116 7 -180v-159zM159 981q0 41 90 41q13 41 159 41q103 74 103 277h7q-16 89 -62 89h-83
q-18 0 -76 -48h-48q-10 48 -28 48h-165q-38 0 -56 -34q21 -48 21 -69q-7 -238 -7 -291q0 -18 145 -54z" />
    <glyph glyph-name="uni041A" unicode="&#x41a;" horiz-adv-x="1279" 
d="M55 1443l35 -7h131q11 -1 69 -83v-186q-5 -159 -28 -159q7 -13 7 -21q-14 -62 -14 -69q0 -104 56 -138h20q90 21 97 21q46 -35 62 -35q0 7 7 7q-18 46 -55 76q-80 -14 -117 -14l-28 21q21 57 34 283q0 8 -6 21q6 75 6 131v69q0 23 -20 48v14q2 14 14 14h144q10 0 21 -21
q7 -261 7 -352q0 -13 35 -62l-14 -124l14 -7h34l83 -7q14 27 21 138q0 7 -7 21q14 122 14 262q36 152 76 152h345q55 0 55 -103q7 0 14 -49l-21 -166q7 -43 35 -117q0 -117 -76 -117q-104 0 -131 -90q-13 -7 -28 -7h-69q-35 0 -62 -34l124 -21h186l21 -14l-7 -48v-7
q0 -14 28 -111q-35 -218 -35 -331v-14q21 -90 21 -97v-34q0 -57 -76 -76h-131l-35 7v69q0 10 -20 21h-7q-14 -97 -55 -97h-104q-44 0 -55 55l7 14v14q0 48 -35 138q10 207 48 207q172 14 318 35v13h-318q-9 0 -41 69q-11 0 -28 14h-131q-7 -35 -14 -131q14 -52 14 -62
q-29 -28 -241 -28q-46 -18 -56 -41q7 0 7 -7q97 14 187 14q117 -9 117 -42q0 -255 -62 -255h-290q-38 0 -55 34q83 66 83 104v145h-7q-32 -17 -49 -159q-41 0 -103 -110h-14q21 461 28 490q-28 57 -35 124q0 325 104 325q0 8 131 27l20 21q-13 7 -20 7q-18 0 -55 -7
q-159 12 -159 35q15 400 34 400z" />
    <glyph glyph-name="uni041B" unicode="&#x41b;" horiz-adv-x="1464" 
d="M1351 749q0 -6 -7 -55q-76 -9 -124 -27q0 -10 28 -21q0 7 6 7h42q5 0 41 -55q0 -106 -7 -337q0 -254 -27 -254h-159q-8 0 -41 55q-111 26 -124 41q-78 -82 -82 -82h-7q7 147 7 206q0 109 -41 344l7 13l-14 7q-7 181 -7 213q0 17 89 97h152q65 0 144 34l-7 14
q-6 0 -55 -14l-14 7q0 -7 -7 -7h-20q-99 0 -193 28l-55 -49h-7l-20 14q0 48 -7 179q0 12 -48 41h-117q0 -30 -34 -48h-62q-13 0 -83 -34v-7l7 -14l69 7q41 -3 64 -8q32 -8 32 -20v-584q0 -122 -6 -330l-1 -7q2 -2 3 -8q6 -19 11 -81q0 -12 -14 -14h-82l-4 2l-10 5
q0 13 14 55q-28 59 -35 117q-27 -11 -27 -48v-76q0 -7 -7 -7q0 -38 -96 -46h-1h-3q-25 -2 -58 -2h-69q-8 0 -15 2h-282q-48 0 -48 90q-30 82 -35 84q15 104 62 104h122q10 0 21 -21v-42q-14 -49 -14 -55q0 -42 77 -42q6 -27 56 -90l6 -7q11 0 35 55q-20 0 -41 27
q-18 24 -36 71q-34 10 -34 20q9 84 62 84h8v32v0q1 47 1 80v80q8 -4 14 -4q41 14 165 28l116 -14v14q0 20 -123 34h-137q-17 0 -35 11v23l7 14q-7 0 -7 6v7l7 14q-7 0 -7 7v7l7 14q-7 0 -7 6v7l7 14q-7 0 -7 7v7l7 14q-7 0 -7 6v14l7 14q-7 0 -7 7v7l7 13q-7 0 -7 7v7l7 14
h-7q0 15 7 27l-7 14l7 14l-7 14l7 13l-7 14q7 12 7 28v220q0 99 -14 206q-47 23 -48 94v2l7 14q217 -7 323 -7h818q7 0 41 -55q-13 -320 -13 -626z" />
    <glyph glyph-name="uni041C" unicode="&#x41c;" horiz-adv-x="1728" 
d="M173 1443h241q55 0 55 -97v-27q0 -14 -13 -69l20 -97v-7q-74 -14 -172 -21v-13h165l42 -7q48 27 69 27h7q35 -24 55 -69v-20q-21 -27 -21 -63q19 -110 42 -110q221 -7 290 -7q0 7 7 7q0 -28 20 -48l49 7h103q23 0 35 6l41 -6h21q207 0 207 -49l35 -7h103q52 -8 55 -27
v-691q-30 -48 -69 -48h-262q-159 0 -159 97q-7 0 -7 6v401l-7 48h-7q-36 0 -117 7l-7 -14q0 -297 -62 -297h-62q-44 0 -90 -6q-117 0 -117 41l-42 269q-93 9 -110 14q-29 0 -55 -186l-69 -49q-132 0 -132 42q-17 54 -34 76l7 34q0 168 -69 200q-138 0 -138 56l-21 297
q0 55 152 55q2 10 145 55v14h-7q-64 0 -180 -7q-83 11 -110 41q0 235 35 235q76 7 138 7zM1153 1436h428q29 0 35 -138q-10 -435 -49 -435q-7 -21 -41 -21h-48l-132 49q-67 324 -145 324q-69 0 -69 42l14 48q0 12 -7 124zM1201 1146q20 0 83 -255q-39 -21 -179 -21h-7
q-138 4 -138 34q10 0 20 21v14q0 29 -6 76q27 131 62 131h165zM76 642h48q54 0 76 -145q14 0 14 -34q-7 -14 -7 -21q26 -131 62 -131q221 -15 221 -49l7 -34l-14 -7h-20q-60 0 -125 -7q-58 0 -117 76l-14 7l-7 -14q32 -97 62 -97q221 0 221 -48q14 -45 14 -62
q-39 -76 -76 -76h-172q-214 0 -214 48q-14 84 -14 132v400q0 62 55 62z" />
    <glyph glyph-name="uni041D" unicode="&#x41d;" horiz-adv-x="1311" 
d="M443 1434q70 -16 70 -62q0 -130 -132 -208q-59 7 -90 7q-19 -56 -104 -56q-99 0 -159 -41v-7q156 14 228 14h21q8 0 76 14h63q24 0 48 27h14q13 -242 62 -242q20 0 118 -21h64v256q0 49 97 49q0 7 13 7v21q-78 0 -104 34q26 208 56 208h374q62 -9 62 -62v-160
q0 -64 7 -180q0 -7 -7 -7l7 -83v-395l7 -41q0 -23 -55 -42l-104 14q-28 -10 -28 -21q-38 7 -55 7q-40 -25 -222 -55q-23 9 -42 27l-69 -6h-42q-39 0 -97 6l-139 -55q-97 7 -125 7q-131 -19 -131 -97v-111l7 -35h13q19 194 97 194l28 7q83 -20 97 -20q63 34 83 34
q36 0 49 -34q0 -15 -21 -181q21 -48 28 -48q0 -97 -49 -97h-256q-28 0 -28 83q0 7 14 83h-14q-48 -67 -48 -145q-26 -21 -49 -21h-41q-21 0 -28 55l7 49l-7 14q0 7 7 7l-7 83v256q0 7 -7 7l7 14v21q0 15 -7 27q7 13 7 28q0 16 -7 28q7 12 7 28v6q0 16 -7 28q7 12 7 28v7
q0 15 -7 28q7 12 7 27v28q0 7 -7 7l7 14v41q0 7 -7 7l7 14v194q0 16 7 28q0 7 -7 7q36 347 48 353h388zM1075 450q145 -36 145 -55v-7q-7 -265 -7 -291q0 -4 21 -69q-29 -28 -55 -28h-153q-41 0 -41 48h-35q-26 0 -76 -48h-97q-44 0 -62 83q20 181 62 243q0 35 187 62
q37 35 104 35q0 15 7 27z" />
    <glyph glyph-name="uni041E" unicode="&#x41e;" horiz-adv-x="1279" 
d="M34 1433h371q71 0 82 -89v-62q0 -10 20 -20h14q0 27 28 116v48q12 7 27 7h98q30 0 130 -103q44 19 130 41q18 55 62 55h103q23 0 48 -20q7 -149 14 -549q-28 -75 -62 -75l-41 6l-7 -13v-14q117 -14 117 -41q6 -38 6 -55q7 -460 7 -542q7 -36 7 -41q-23 -75 -68 -75h-613
q-123 0 -336 -7q-96 20 -96 27q-68 227 -68 542v295l-7 41l7 14q-7 212 -7 336v123q0 37 34 55zM501 1152q6 -196 13 -240q-7 -27 -7 -55v-21q0 -6 7 -6q-13 -25 -13 -55v-28q13 -202 13 -219v-206l7 -34h105q48 0 48 199q7 24 7 27h20q43 -41 62 -41q41 14 165 28l116 -14
v14q0 20 -123 34h-137q-53 0 -117 110q0 100 48 459q-20 48 -62 48h-152z" />
    <glyph glyph-name="uni041F" unicode="&#x41f;" horiz-adv-x="1215" 
d="M0 117q7 0 7 7q-7 0 -7 7v7l7 13h-7q7 162 7 241v172l7 14q-7 0 -7 6v7l7 14q-7 0 -7 7v7l7 14q-7 0 -7 6v7l7 14q-7 0 -7 7v7l7 14q-7 0 -7 6v14l7 14q-7 0 -7 7v7l7 13q-7 0 -7 7v7l7 14h-7q0 15 7 27l-7 14l7 14l-7 14l7 13l-7 14q7 12 7 28v220q0 99 -14 206
q-48 23 -48 96l7 14q217 -7 323 -7h818q7 0 41 -55q-13 -320 -13 -626q0 -6 -7 -55q-76 -9 -124 -27q0 -10 28 -21q0 7 6 7h42q5 0 41 -55q0 -106 -7 -337q0 -254 -27 -254h-159q-8 0 -41 55q-111 26 -124 41q-78 -82 -82 -82h-7q7 147 7 206q0 109 -41 344l7 13l-14 7
q-7 181 -7 213q0 17 89 97h152q65 0 144 34l-7 14q-6 0 -55 -14l-14 7q0 -7 -7 -7h-20q-99 0 -193 28l-55 -49h-7l-20 14q0 48 -7 179q0 12 -48 41h-117q0 -30 -34 -48h-62q-13 0 -83 -34v-7l7 -14l69 7q96 -7 96 -28v-584q0 -124 -7 -337q7 -10 14 -89q0 -12 -14 -14h-82
l-14 7q0 13 14 55q-28 59 -35 117q-27 -11 -27 -48v-76q0 -7 -7 -7q0 -48 -158 -48h-69q-62 0 -62 117z" />
    <glyph glyph-name="uni0420" unicode="&#x420;" horiz-adv-x="1196" 
d="M90 1433h951q55 0 55 -138q7 -38 7 -139q0 -55 -138 -55l-42 -35q3 -14 14 -14q33 0 69 7q90 -7 90 -48q0 -35 -6 -104l6 -69q-43 -125 -62 -125q0 -17 28 -76q-14 -83 -62 -83h-312q-14 0 -14 14l7 41h-21v35l-7 34q-74 -117 -92 -124q-42 7 -42 -28q-23 -512 -62 -512
l-49 -14h-373q-35 18 -35 55v125q0 125 7 339q0 7 -7 7l7 49v297q0 309 69 554zM584 1357q69 -35 69 -83h7v83l-41 55q-11 0 -35 -55zM533 1163q-14 -23 -14 -42v-186q0 -56 63 -70h71l7 35v256h-78z" />
    <glyph glyph-name="uni0421" unicode="&#x421;" horiz-adv-x="1285" 
d="M1164 1440q14 -7 21 -7v-41q0 -20 -41 -69q0 -172 -76 -172h-503q-48 0 -48 -200l-7 -28h-21q-43 42 -62 42q-41 -14 -165 -28l-117 14v-14q0 -21 124 -34h138q52 0 117 -111q0 -101 -49 -461q21 -49 62 -49h7q196 0 545 7q18 0 55 -55q-7 -81 -7 -117v-55q0 -62 -76 -62
h-34q-180 0 -180 83v69q0 9 -20 20h-14q0 -27 -28 -117v-48q-12 -7 -27 -7h-241q-31 0 -131 103q-44 -19 -131 -41q-18 -55 -62 -55h-103q-23 0 -49 21q-7 138 -13 551q27 76 62 76l41 -7l7 13v14q-117 14 -117 42q-7 37 -7 55q-7 462 -7 544q0 5 -7 41q23 76 69 76h654
q155 0 441 7z" />
    <glyph glyph-name="uni0422" unicode="&#x422;" horiz-adv-x="1266" 
d="M41 1434h766l20 -14q-69 -145 -69 -172q16 0 21 -35q-14 -61 -14 -82q16 -49 21 -49l-7 -34v-993q-41 -55 -96 -55h-318q-48 0 -69 83l7 48v62q0 186 118 186q0 9 41 14q61 -7 76 -7l138 21q35 -14 55 -14l7 14q-7 0 -35 34q-95 -14 -151 -14q-133 14 -187 14h-13
q-7 0 -7 -7q-30 0 -35 76q7 472 7 600q21 135 55 172v14q-61 0 -96 -124l-35 -7q-53 0 -193 -7q-37 0 -48 145q14 131 41 131zM869 1434h103q120 0 186 -14v-20q0 -21 21 -56q-46 -179 -110 -179q0 -7 -7 -7q-214 0 -214 48q0 5 -21 97q32 131 42 131z" />
    <glyph glyph-name="uni0423" unicode="&#x423;" horiz-adv-x="1305" 
d="M1123 1433q55 0 55 -103q7 0 14 -49l-21 -165q7 -43 35 -117q0 -117 -76 -117q-104 0 -131 -90q-12 -7 -28 -7h-68q-35 0 -62 -34l124 -21h186l20 -13l-7 -49v-7q0 -14 28 -110q-35 -224 -35 -317q14 -34 21 -34q0 -8 -7 -21q7 -72 7 -117q-28 -62 -69 -62h-1026
q-49 0 -49 90q-29 80 -34 82q15 104 62 104h276q9 0 20 -21v-41q-14 -50 -14 -56q0 -41 76 -41q7 -27 62 -96q11 0 35 55q-39 0 -76 96q-35 11 -35 21q10 83 62 83h207q0 28 21 186v34q0 31 -42 62q-174 7 -254 7h-221l-14 7q13 69 55 69h69q35 0 62 34l-124 21h-186l-20 14
l7 48v7q0 14 -28 110q34 218 34 331v13q-20 90 -20 97v34q0 57 76 76h130l35 -7v-69q0 -10 21 -20h6q14 96 56 96h103q44 0 55 -55l-7 -14v-14q0 -48 35 -137q-10 -207 -49 -207q-170 -14 -317 -34v-14h317l49 -69l20 -14h48l83 -7q14 27 21 138q0 7 -7 21q14 122 14 261
q36 152 76 152h344z" />
    <glyph glyph-name="uni0424" unicode="&#x424;" horiz-adv-x="1952" 
d="M963 864q0 78 131 97q25 0 105 -5v165q0 3 2 29q3 6 7 13l49 -7h77v-19q0 -16 -7 -28l7 -14l-7 -13l7 -14l-7 -14l7 -14q-7 -12 -7 -27h7l-7 -14v-7q0 -7 7 -7l-7 -13v-7q0 -7 7 -7l-7 -14v-14q0 -6 7 -6l-5 -10l-2 -4v-7q0 -3 2 -5l2 -1l3 -1l-3 -6l-4 -8v-7q0 -4 4 -5
l3 -1v0v0l-2 -4l-1 -2l-4 -8v-7q0 -5 4 -6v0l3 -1l-3 -6l-1 -3l-3 -5v-7l1 -3q1 -2 3 -2l3 -1l-3 -6l-4 -8v-26l-5 -8q-22 -33 -32 -33q-49 -3 -88 -5q0 43 -1 96q0 20 -1 41v35q-21 2 -92 19l-28 -7q-78 0 -97 -194h-13l-7 35v111zM1678 1336h62q34 18 34 48h78
q-3 49 -42 49h-1765q-42 0 -42 -55q0 -10 -3 -24q7 -6 7 -11q7 -131 7 -179l11 -8h273q10 0 21 21v0v41q0 7 -14 56q0 41 75 41q3 13 17 34q15 26 45 63q10 0 34 -55q-12 0 -24 -10q-26 -21 -51 -87q-35 -7 -35 -28q6 -29 16 -47h3l6 -13l1 -1q-79 -34 -144 -34h-152
q-89 -80 -89 -97q0 -32 6 -210l1 -3l14 -7l-7 -13q26 -153 36 -252q5 -54 5 -92q0 -59 -7 -206h7q4 0 82 82q7 -8 46 -20q30 -10 78 -21q23 -39 34 -50q57 -3 142 -3l27 -1q117 -3 200 -5h1l3 -34q17 -191 40 -191l21 -6l28 -8h369q11 6 18 13v-4l5 4l1 2q15 16 15 40v97
q4 31 7 70q188 -3 379 -11q55 34 55 41v33q3 2 3 6v76q0 37 27 48q7 -58 35 -117q-14 -42 -14 -55l14 -7h82q14 2 14 14q-7 79 -14 89q4 121 6 215q1 69 1 122v584q0 21 -96 28l-54 -5l-15 -2l-7 14v7q13 6 23 11q49 23 60 23zM654 935q0 -8 -1 -14v-3v-15q0 -11 -1 -20v-51
q-1 -68 -1 -130v0q-87 -13 -152 -19q3 94 3 151q-13 19 -21 31q-17 24 -20 24h-42q-6 0 -6 -7q-28 11 -28 21l15 5q44 15 109 22q7 49 7 55q0 84 1 171h75l48 7q7 -12 11 -23l1 -2q2 -9 2 -17v-186z" />
    <glyph glyph-name="uni0425" unicode="&#x425;" horiz-adv-x="1314" 
d="M1131 1433q55 0 55 -103q7 0 14 -48l-21 -164q7 -43 35 -117q0 -117 -76 -117q-103 0 -130 -89q-12 -7 -28 -7h-68q-34 0 -62 -34l124 -20h185l20 -14l-7 -48v-7q0 -14 28 -110q-34 -216 -34 -329v-13q20 -90 20 -96v-35q0 -56 -75 -75h-131l-34 7v68q0 10 -20 21h-7
q-13 -96 -55 -96h-103q-43 0 -55 55l7 13v14q0 48 -34 137q9 206 48 206q170 14 315 34v14h-315l-48 69l-21 13h-48l-82 7q-14 -26 -21 -137q0 -7 7 -21q-13 -121 -13 -260q-37 -151 -76 -151h-343q-55 0 -55 103q-6 0 -13 48l20 164q-7 43 -34 117q0 117 75 117
q104 0 131 89q12 7 27 7h69q34 0 61 34l-123 20h-185l-21 14l7 48v7q0 14 -27 110q34 216 34 329v13q-21 90 -21 96v35q0 56 76 75h130l34 -7v-68q0 -10 21 -21h7q13 96 55 96h103q43 0 54 -55l-6 -13v-14q0 -48 34 -137q-10 -206 -48 -206q-170 -14 -316 -34v-14h316
l48 -69l20 -13h48l83 -7q13 26 20 137q0 7 -7 21q14 121 14 260q36 151 75 151h343z" />
    <glyph glyph-name="uni0426" unicode="&#x426;" horiz-adv-x="1269" 
d="M858 7h-548q-106 0 -323 -7l-7 14q0 73 48 96q14 107 14 206v220q0 16 -7 28l7 14l-7 13l7 14l-7 14l7 14q-7 12 -7 27h7l-7 14v7q0 7 7 7l-7 13v7q0 7 7 7l-7 14v14q0 6 7 6l-7 14v7q0 7 7 7l-7 14v7q0 6 7 6l-7 14v7q0 7 7 7l-7 14v7q0 6 7 6l-7 14v172q0 80 -7 241h7
l-7 13v7q0 7 7 7q0 7 -7 7q0 117 62 117h69q158 0 158 -48q7 0 7 -7v-76q0 -37 27 -48q7 58 35 117q-14 42 -14 55l14 7h82q14 -2 14 -14q-7 -79 -14 -89q7 -212 7 -337v-584q0 -21 -96 -28l-69 7l-7 -14v-7q70 -34 83 -34h62q34 -18 34 -48h117q48 29 48 41q7 132 7 179
l20 14h7l55 -49q94 28 193 28h20q7 0 7 -7l14 7q49 -14 55 -14l7 14q-79 34 -144 34h-152q-89 80 -89 97q0 33 7 213l14 7l-7 13q41 235 41 344q0 60 -7 206h7q4 0 82 -82q13 15 124 41q33 55 41 55h159q27 0 27 -254q7 -230 7 -337q-36 -55 -41 -55h-42q-6 0 -6 7
q-28 -11 -28 -21q48 -18 124 -27q7 -49 7 -55q0 -193 5 -392q-25 -9 -45 -26q-90 -13 -137 -29q-27 -9 -43 -20q-18 -13 -23 -31q-35 -56 -55 -183zM1344 -147h-153q-41 0 -41 48h-35q-26 0 -76 -48h-97q-44 0 -62 83q5 39 10 71q19 123 52 172q0 35 187 62q15 13 33 22
q30 13 71 13q0 15 7 27q145 -36 145 -55v-7q-7 -265 -7 -291q0 -4 21 -69q-29 -28 -55 -28z" />
    <glyph glyph-name="uni0427" unicode="&#x427;" horiz-adv-x="1196" 
d="M1103 180v-125q0 -37 -35 -55h-373l-49 14q-39 0 -62 512q0 35 -42 28q-18 7 -92 124l-7 -34v-35h-21l7 -41q0 -14 -14 -14h-312q-48 0 -62 83q28 59 28 76q-19 0 -62 125l6 69q-6 69 -6 104q0 41 90 48q36 -7 69 -7q11 0 14 14l-42 35q-138 0 -138 55q0 101 7 139
q0 138 55 138h381v-533l7 -35h71q63 14 63 70l7 323q0 48 69 83q-24 55 -35 55l-41 -55v92h429l14 -7q69 -245 69 -554v-297l7 -49q-7 0 -7 -7q7 -214 7 -339z" />
    <glyph glyph-name="uni0428" unicode="&#x428;" horiz-adv-x="2025" 
d="M1905 2h-766q-5 0 -10 5h-799q-106 0 -323 -7l-7 14q0 73 48 96q14 107 14 206v220q0 16 -7 28l7 14l-7 13l7 14l-7 14l7 14q-7 12 -7 27h7l-7 14v7q0 7 7 7l-7 13v7q0 7 7 7l-7 14v14q0 6 7 6l-7 14v7q0 7 7 7l-7 14v7q0 6 7 6l-7 14v7q0 7 7 7l-7 14v7q0 6 7 6l-7 14
v172q0 79 -7 241h7l-7 13v7q0 7 7 7q0 7 -7 7q0 117 62 117h69q158 0 158 -48q7 0 7 -7v-76q0 -37 27 -48q7 58 35 117q-14 42 -14 55l14 7h82q14 -2 14 -14q-7 -79 -14 -89q7 -213 7 -337v-584q0 -21 -96 -28l-69 7l-7 -14v-7q70 -34 83 -34h62q34 -18 34 -48h117
q48 29 48 41q7 131 7 179l20 14h7l55 -49q94 28 193 28h20q7 0 7 -7l14 7q49 -14 55 -14l7 14q-79 34 -144 34h-152q-89 80 -89 97q0 32 7 213l14 7l-7 13q41 235 41 344q0 59 -7 206h7q4 0 82 -82q13 15 124 41q33 55 41 55h159q27 0 27 -254q7 -231 7 -337
q-36 -55 -41 -55h-42q-6 0 -6 7q-28 -11 -28 -21q48 -18 124 -27q7 -49 7 -55q0 -203 6 -412q111 -5 157 -5l35 -7q35 -124 96 -124v14q-34 37 -55 172q0 128 -7 600q5 76 35 76q0 -7 7 -7h13q55 0 187 14q56 0 151 -14q28 34 35 34l-7 14q-20 0 -55 -14l-138 21
q-15 0 -76 -7q-41 5 -41 14q-118 0 -118 186v62l-7 48q21 83 69 83h318q55 0 96 -55v-993l7 -34q-5 0 -21 -49q0 -21 14 -82q-5 -35 -21 -35q0 -27 69 -172z" />
    <glyph glyph-name="uni0429" unicode="&#x429;" horiz-adv-x="2063" 
d="M1649 6h-530q-5 0 -10 5h-799q-106 0 -323 -7l-7 14q0 73 48 96q14 107 14 206v220q0 16 -7 28l7 14l-7 13l7 14l-7 14l7 14q-7 12 -7 27h7l-7 14v7q0 7 7 7l-7 13v7q0 7 7 7l-7 14v14q0 6 7 6l-7 14v7q0 7 7 7l-7 14v7q0 6 7 6l-7 14v7q0 7 7 7l-7 14v7q0 6 7 6l-7 14
v172q0 80 -7 241h7l-7 13v7q0 7 7 7q0 7 -7 7q0 117 62 117h69q158 0 158 -48q7 0 7 -7v-76q0 -37 27 -48q7 58 35 117q-14 42 -14 55l14 7h82q14 -2 14 -14q-7 -79 -14 -89q7 -212 7 -337v-584q0 -21 -96 -28l-69 7l-7 -14v-7q70 -34 83 -34h62q34 -18 34 -48h117
q48 29 48 41q7 132 7 179l20 14h7l55 -49q94 28 193 28h20q7 0 7 -7l14 7q49 -14 55 -14l7 14q-79 34 -144 34h-152q-89 80 -89 97q0 33 7 213l14 7l-7 13q41 235 41 344q0 60 -7 206h7q4 0 82 -82q13 15 124 41q33 55 41 55h159q27 0 27 -254q7 -230 7 -337
q-36 -55 -41 -55h-42q-6 0 -6 7q-28 -11 -28 -21q48 -18 124 -27q7 -49 7 -55q0 -203 6 -411q111 -6 157 -6l35 -7q35 -124 96 -124v14q-34 37 -55 172q0 129 -7 600q5 76 35 76q0 -7 7 -7h13q55 0 187 14q56 0 151 -14q28 34 35 34l-7 14q-20 0 -55 -14l-138 21
q-15 0 -76 -7q-41 5 -41 14q-118 0 -118 186v62l-7 48q21 83 69 83h318q55 0 96 -55v-993l7 -34q-5 0 -21 -49q0 -21 14 -82q-5 -35 -21 -35q0 -5 3 -14q-56 -10 -91 -21q-23 -8 -36 -16q-20 -13 -23 -29q-24 -37 -40 -106zM2110 -221h-153q-41 0 -41 48h-35q-26 0 -76 -48
h-97q-44 0 -62 83q4 39 10 71q6 41 14 73q16 66 38 99q0 30 137 54q23 4 50 8q14 13 33 22q30 13 71 13q0 15 7 27q145 -36 145 -55v-7q-7 -265 -7 -291q0 -4 21 -69q-29 -28 -55 -28z" />
    <glyph glyph-name="uni042A" unicode="&#x42a;" horiz-adv-x="1428" 
d="M851 21l41 55v83h-7q0 -48 -69 -83q24 -55 35 -55zM814 277h78v256l-7 35h-71q-63 -14 -63 -70v-186q0 -19 14 -42zM265 1432q1 1 2 1h373l49 -14q39 0 62 -512q0 -35 42 -28q18 -7 92 -124l7 34v35h21l-7 41q0 14 14 14h312q48 0 62 -83q-28 -59 -28 -76q19 0 62 -125
l-6 -69q6 -69 6 -104q0 -41 -90 -48q-36 7 -69 7q-11 0 -14 -14l42 -35q138 0 138 -55q0 -101 -7 -139q0 -138 -55 -138h-951l-14 7q-69 245 -69 554v297l-7 49q7 0 7 7q-5 139 -6 240h-59q-53 0 -62 84q0 10 34 20q38 98 77 98q-24 55 -35 55q-56 -69 -62 -97
q-77 0 -77 -42q0 -6 14 -55v-42q-11 -21 -21 -21h-122q-47 0 -62 104q5 2 35 84q0 90 48 90h324z" />
    <glyph glyph-name="uni042B" unicode="&#x42b;" horiz-adv-x="1792" 
d="M76 7q-69 245 -69 554v297l-7 49q7 0 7 7q-7 214 -7 339v125q0 37 35 55h373l49 -14q39 0 62 -512q0 -35 42 -28q18 -7 92 -124l7 34v35h21l-7 41q0 14 14 14h312q48 0 62 -83q-28 -59 -28 -76q19 0 62 -125l-6 -69q6 -69 6 -104q0 -41 -90 -48q-36 7 -69 7
q-11 0 -14 -14l42 -35q138 0 138 -55q0 -101 -7 -139q0 -138 -55 -138h-951zM619 21l41 55v83h-7q0 -48 -69 -83q24 -55 35 -55zM582 277h78v256l-7 35h-71q-63 -14 -63 -70v-186q0 -19 14 -42zM1255 1433q-34 0 -41 -21v-138q0 -87 -7 -215l7 -14l-7 -62q0 -214 -7 -879
q28 -104 48 -104h180l21 14q-14 27 -14 76v28q0 11 14 14q89 -132 132 -132h41q45 0 63 55q-7 547 -7 838v132q0 20 -90 34q-46 -7 -90 -7v14q0 9 62 42h69q63 10 63 55q-7 37 -7 62v90q0 118 -56 118h-374z" />
    <glyph glyph-name="uni042C" unicode="&#x42c;" horiz-adv-x="1196" 
d="M76 7q-69 245 -69 554v297l-7 49q7 0 7 7q-7 214 -7 339v125q0 37 35 55h373l49 -14q39 0 62 -512q0 -35 42 -28q18 -7 92 -124l7 34v35h21l-7 41q0 14 14 14h312q48 0 62 -83q-28 -59 -28 -76q19 0 62 -125l-6 -69q6 -69 6 -104q0 -41 -90 -48q-36 7 -69 7
q-11 0 -14 -14l42 -35q138 0 138 -55q0 -101 -7 -139q0 -138 -55 -138h-951zM619 21l41 55v83h-7q0 -48 -69 -83q24 -55 35 -55zM582 277h78v256l-7 35h-71q-63 -14 -63 -70v-186q0 -19 14 -42z" />
    <glyph glyph-name="uni042D" unicode="&#x42d;" horiz-adv-x="1285" 
d="M0 1433q7 0 21 7q286 -7 441 -7h654q46 0 69 -76q-7 -36 -7 -41q0 -82 -7 -544q0 -18 -7 -55q0 -28 -117 -42v-14l7 -13l41 7q35 0 62 -76q-6 -413 -13 -551q-26 -21 -49 -21h-103q-44 0 -62 55q-87 22 -131 41q-100 -103 -131 -103h-241q-15 0 -27 7v48q-28 90 -28 117
h-14q-20 -11 -20 -20v-69q0 -83 -180 -83h-34q-76 0 -76 62v55q0 36 -7 117q37 55 55 55q349 -7 545 -7h7q41 0 62 49q-9 64 -16 122q-88 11 -144 11q-59 0 -206 -7v7q0 4 82 82q-15 13 -41 124q-55 33 -55 41v159q0 27 254 27q109 4 188 6h17h127q124 13 124 34v14
l-117 -14q-124 14 -165 28q-19 0 -62 -42h-21l-7 28q0 200 -48 200h-503q-76 0 -76 172q-41 49 -41 69v41z" />
    <glyph glyph-name="uni042E" unicode="&#x42e;" horiz-adv-x="1888" 
d="M1644 484l-116 14q-124 -14 -165 -28q-19 0 -62 41h-20q0 -3 -7 -27q0 -199 -48 -199h-105l-7 34v206q0 17 -13 219v28q0 30 13 55q-7 0 -7 6v21q0 28 7 55q-7 44 -13 240h152q42 0 62 -48q-48 -359 -48 -459q64 -110 117 -110h137q123 -14 123 -34v-14zM1774 665
q0 17 -6 55q0 27 -117 41v14l7 13l41 -6q34 0 62 75q-7 400 -14 549q-25 20 -48 20h-103q-44 0 -62 -55q-86 -22 -130 -41q-100 103 -130 103h-98q-15 0 -27 -7v-48q-28 -89 -28 -116h-14q-20 10 -20 20v62q-11 89 -82 89h-371q-34 -18 -34 -55v-123q0 -124 7 -336l-7 -14
l7 -41v-21q-12 21 -35 21h-94v161q0 20 -90 34q-46 -7 -90 -7v14q0 9 62 42h69q63 10 63 55q-7 37 -7 62v90q0 118 -56 118h-374q-34 0 -41 -21v-138q0 -87 -7 -215l7 -14l-7 -62q0 -213 -7 -879q28 -104 48 -104h180l21 14q-14 27 -14 76v28q0 11 14 14q89 -132 132 -132
h41q45 0 63 55q-4 306 -6 531h114q7 0 14 3v-20q0 -315 68 -542q0 -7 96 -27q213 7 336 7h613q45 0 68 75q0 5 -7 41q0 82 -7 542z" />
    <glyph glyph-name="uni042F" unicode="&#x42f;" horiz-adv-x="1285" 
d="M1160 1043q0 -23 -159 -35q-37 7 -55 7q-7 0 -20 -7l20 -21q131 -19 131 -27q104 0 104 -325q-7 -67 -35 -124q7 -29 28 -490h-14q-62 110 -103 110q-17 142 -49 159h-7v-145q0 -38 83 -104q-17 -34 -55 -34h-290q-62 0 -62 255q0 33 117 42q90 0 187 -14q0 7 7 7
q-10 23 -56 41q-212 0 -241 28q0 10 14 62q-7 96 -14 131h-131q-17 -14 -28 -14q-32 -69 -41 -69h-318v-13q146 -21 318 -35q38 0 48 -207q-35 -90 -35 -138v-14l7 -14q-11 -55 -55 -55h-104q-41 0 -55 97h-7q-20 -11 -20 -21v-69l-35 -7h-131q-76 19 -76 76v34q0 7 21 97
v14q0 113 -35 331q28 97 28 111v7l-7 48l21 14h186l124 21q-27 34 -62 34h-69q-15 0 -28 7q-27 90 -131 90q-76 0 -76 117q28 74 35 117l-21 166q7 49 14 49q0 103 55 103h773q12 0 14 -14v-14q-20 -25 -20 -48v-69q0 -56 6 -131q-6 -13 -6 -21q13 -226 34 -283l-28 -21
q-37 0 -117 14q-37 -30 -55 -76q7 0 7 -7q16 0 62 35q7 0 97 -21h20q56 34 56 138q0 7 -14 69q0 8 7 21q-23 0 -28 159v186q58 82 69 83h131l35 7q19 0 34 -400zM539 1146q-28 -17 -28 -28v-20q0 -33 7 -69l-7 -28q7 -111 21 -138l83 7h34l14 7l-14 124q35 47 35 69v42
l-7 34h-138z" />
    <glyph glyph-name="uni0430" unicode="&#x430;" horiz-adv-x="1284" 
d="M63 1445q540 -7 810 -7h286l35 -7v-98l-7 -83h7q-7 -14 -7 -21q0 -224 -14 -538h7q-7 -13 -7 -21q0 -61 -7 -335q-10 -35 -49 -35q-27 0 -63 35q-64 0 -265 14q-72 -35 -91 -35q0 78 -42 112h-91l-41 7q-20 0 -35 -49q14 -216 14 -349q-36 -35 -63 -35h-91q-27 0 -63 35
l-42 -35h-216q-28 9 -28 63q28 291 35 530l-7 14l7 42l-7 14q7 12 7 28t-7 28q7 12 7 28v14q0 7 -7 7l7 14v419q0 29 7 76l-7 14q7 28 7 49l-7 14q7 12 7 28v21q0 7 -7 7q9 32 28 35zM314 1166l-7 -70v-28q0 -51 21 -56h161l14 -7q0 -84 -56 -84q-49 0 -49 -62
q0 -18 -14 -84l21 -35v-77q2 -14 14 -14h63q14 5 42 98l76 14q112 -25 112 -70q-7 -37 -7 -42l14 -7h70q21 0 49 196q-40 53 -42 97h-7l-70 -7q-11 16 -28 70l21 14h35q49 0 154 7q0 8 6 21q0 7 -6 7l6 35v77h-181q-11 0 -63 -133l-35 -7h-118q14 58 14 126q-7 13 -7 21
h-203zM796 314q230 -9 230 -56q86 0 133 -63q0 -195 -112 -195h-328q-42 0 -63 49q33 244 56 244q19 0 84 21z" />
    <glyph glyph-name="uni0431" unicode="&#x431;" horiz-adv-x="1276" 
d="M992 502h-316l-13 -7q2 -24 4 -55l-7 -27q7 -37 7 -69v-21q-17 -27 -28 -27h-137l-7 34v41q0 23 34 69l-13 124l13 7h35l82 7l2 -3l3 -9q27 -21 341 -51v-13zM1150 433q-5 5 -17 113q-7 61 -17 155q20 50 27 151q-7 27 -7 55v41q0 28 -103 28t-172 -7q-17 0 -55 7
q-177 -7 -318 -7l21 193q15 0 75 -7l49 7l495 -5v5q20 50 27 151q-7 27 -7 55v41q0 28 -103 28t-172 -7q-17 0 -55 7q-180 -7 -323 -7h-412q-30 0 -55 -14l-14 7q0 -7 -7 -7l21 -412l-21 -35l5 -12l9 -20l7 -16q-28 -90 -28 -117q0 -23 7 -144q0 -141 82 -179
q122 -17 165 -41l-6 -14q-33 0 -69 7q-146 -15 -158 -27q15 -406 34 -406l34 7h131q53 52 69 82v186q0 115 -28 165h7q35 14 62 -137l-7 -28q7 -65 7 -124v-68q0 -23 -21 -49v-13q0 -14 14 -14h778q26 1 45 69l-3 6q-103 15 -144 35q-37 75 -69 75h-69q-20 0 -62 28
q0 11 124 27h186l20 14l-7 48v7z" />
    <glyph glyph-name="uni0432" unicode="&#x432;" horiz-adv-x="1276" 
d="M818 1437q38 -7 55 -7q69 7 172 7t103 -28v-41q0 -28 7 -55q-7 -101 -27 -151q27 -261 34 -268l-28 -117v-7l7 -48l-20 -14h-186q-124 -16 -124 -27q42 -28 62 -28h69q32 0 69 -75q41 -20 144 -35q12 -25 21 -103q-28 -74 -35 -117l21 -165q-22 -151 -62 -151h-777
q-14 0 -14 14v13q21 26 21 49v68q0 59 -7 124l7 28q-27 151 -62 137h-7q28 -50 28 -165v-186q-16 -30 -69 -82h-131l-34 -7q-19 0 -34 406q12 12 158 27q36 -7 69 -7l6 14q-43 24 -165 41q-82 38 -82 179q-7 121 -7 144q0 27 28 117l-21 48l21 35l-21 412q7 0 7 7l14 -7
q25 14 55 14h412q143 0 323 7zM509 1162l-28 -261q7 -14 7 -21h131q55 30 55 76l14 7h316v13q-344 33 -344 55q-11 131 -27 131l-49 -7q-60 7 -75 7zM564 571h-35l-13 -7l13 -124q-34 -46 -34 -69v-41l7 -34h137q11 0 28 27v21q0 32 -7 69l7 27q-7 111 -21 138z" />
    <glyph glyph-name="uni0433" unicode="&#x433;" horiz-adv-x="1168" 
d="M410 0h-375q-35 18 -35 55v125q0 126 7 340q0 7 -7 7l7 49v299q0 309 69 555l14 7h893q48 0 48 -90q30 -82 35 -84q-15 -104 -62 -104h-122q-10 0 -21 21v42q14 49 14 55q0 42 -77 42q-6 28 -62 97q-11 0 -35 -55q39 0 77 -98q34 -10 34 -20q-9 -84 -62 -84h-167l-48 7
q-14 -23 -14 -41v-209q-14 -205 -14 -222v-28q0 -48 14 -48l-7 -14v-21q0 -40 7 -49q-23 -520 -63 -520z" />
    <glyph glyph-name="uni0434" unicode="&#x434;" horiz-adv-x="1445" 
d="M867 902q-89 -80 -89 -97q0 -32 7 -213l14 -7l-7 -13q30 -174 38 -279h-226q2 85 2 148v584q0 21 -96 28l-69 -7l-7 14v7q70 34 83 34h62q34 18 34 48h117q48 -29 48 -41q7 -131 7 -179l20 -14h7l55 49q94 -28 193 -28h20q7 0 7 7l14 -7q49 14 55 14l7 -14
q-79 -34 -144 -34h-152zM1460 291h-130l5 7h-68q6 203 6 301q-36 55 -41 55h-42q-6 0 -6 -7q-28 11 -28 21q48 18 124 27q7 49 7 55q0 306 13 626q-34 55 -41 55h-818q-106 0 -323 7l-7 -14q0 -73 48 -96q14 -107 14 -206v-220q0 -16 -7 -28l7 -14l-7 -13l7 -14l-7 -14
l7 -14q-7 -12 -7 -27h7l-7 -14v-7q0 -7 7 -7l-7 -13v-7q0 -7 7 -7l-7 -14v-14q0 -6 7 -6l-7 -14v-7q0 -7 7 -7l-7 -14v-7q0 -6 7 -6l-7 -14v-7q0 -7 7 -7l-7 -14v-7q0 -6 7 -6l-7 -14v-172q0 -40 -2 -100h-44l1 -5q-66 2 -149 5l-7 -14q0 -73 48 -96q4 -32 7 -62v-28
q0 -79 -7 -241h7l-7 -13v-7q0 -7 7 -7q0 -7 -7 -7q0 -117 62 -117h69q158 0 158 48q7 0 7 7v76q0 37 27 48q7 -58 35 -117q-14 -42 -14 -55l14 -7h82q14 2 14 14q-7 79 -14 89q3 106 5 191h8l-20 45q2 4 2 9q7 0 7 7v76q0 37 27 48q7 -58 35 -117q-14 -42 -14 -55l12 -6h107
q119 2 207 8q96 6 96 14q27 1 55 2q-25 -46 -25 -131v-62l-7 -48q21 -83 70 -83h317q56 0 97 55v413q17 42 48 107z" />
    <glyph glyph-name="uni0435" unicode="&#x435;" horiz-adv-x="1255" 
d="M83 1434h1053q10 0 21 -21v-62q0 -23 7 -35q0 -166 -83 -166h-35q-317 0 -416 14q-27 -7 -48 -7l-69 7q0 -50 -35 -284l14 -7h28q263 0 263 -28l7 -28l-7 -34q0 -72 41 -97l14 7l-7 34q0 132 83 132q59 0 208 7q7 -13 7 -21q0 -58 7 -222q-26 -55 -69 -55h-180
q-35 0 -63 62h-7q0 -62 -48 -62h-256q-7 -116 -28 -249q7 -12 7 -28h540q14 -2 14 -14v-14l-35 -7h-103q-26 -13 -35 -41q7 0 7 -7l69 7h97q27 0 83 69h7q14 -2 14 -14v-76q0 -49 7 -152q-34 -42 -125 -42h-90q-69 0 -69 173v28h-7q-30 0 -35 -194h-388q-90 0 -166 173
q0 16 7 28q-7 47 -7 76v76q0 18 -28 21q-55 0 -145 -7q-83 14 -83 35v145q0 7 -7 7l7 14v7q0 28 -7 55q0 14 7 14q-7 69 -7 104v187q0 16 -7 28q0 35 256 55q0 12 35 14l14 -7q27 11 27 21v7l-131 21q-64 -21 -76 -21q-111 0 -111 104q0 83 -7 83l7 14q-7 83 -7 125
q0 48 69 48zM229 339q8 -11 20 -55l-7 -14q7 -93 7 -138h7l-7 -14v-35q0 -15 7 -28q0 -32 -97 -55h-111q-33 0 -48 312q35 21 55 21h139z" />
    <glyph glyph-name="uni0436" unicode="&#x436;" horiz-adv-x="2039" 
d="M960 291q0 7 -7 7l2 4q12 20 51 36h24q39 -15 52 -34q-34 -2 -69 -6q-26 -3 -53 -7zM1010 1012l5 -3h-1l-19 -21q-19 -2 -35 -5l-3 29q25 4 38 4q6 0 15 -4zM1899 664v7l7 48l-21 14h-186l-124 21q27 34 62 34h69q15 0 28 7q27 90 131 90q76 0 76 117q-28 74 -35 117
l21 166q-7 49 -14 49q0 103 -55 103h-345q-40 0 -76 -152q0 -140 -14 -262q7 -14 7 -21q-7 -111 -21 -138l-83 7h-34l-14 7l14 124q-34 48 -35 61v2q-13 332 -29 372h-32l-7 -1h-110q-6 -3 -8 -13v-14q20 -25 20 -48v-69q0 -56 -6 -131q6 -13 6 -21q-4 -74 -9 -129l-3 -29
q-10 -91 -22 -125l28 -21q37 0 117 14q37 -30 55 -76q-7 0 -7 -7q-16 0 -62 35q-7 0 -97 -21h-20q-40 25 -51 85q-5 24 -5 53q0 4 4 25q4 16 10 44q0 8 -7 21q23 0 28 159v186q-17 25 -30 42q-31 41 -39 41h-131l-35 7q-3 0 -5 -8q-10 0 -21 -21q-7 -257 -7 -349v-3v-2
q-3 -15 -35 -60l14 -124l-14 -7h-34l-83 -7q-14 27 -21 138q0 7 7 21q-14 122 -14 262q-36 152 -76 152h-345q-55 0 -55 -103q-7 0 -14 -49l21 -166q-7 -43 -35 -117q0 -117 76 -117q104 0 131 -90q13 -7 28 -7h69q35 0 62 -34l-124 -21h-186l-21 -14l7 -48v-7
q0 -14 -28 -111q35 -218 35 -331v-14q-21 -90 -21 -97v-34q0 -57 76 -76h131l35 7v69q0 10 20 21h7q14 -97 55 -97h104q44 0 55 55l-7 14v14q0 48 35 138q-10 207 -48 207q-172 14 -318 35v13h318q9 0 41 69q11 0 28 14h118q8 -24 19 -47q-5 -19 -16 -238q-2 -36 -3 -68
q3 -108 21 -157q51 83 87 83q17 142 49 159h7v-145q0 -38 -83 -104q17 -34 55 -34h290q25 0 40 41q8 -13 16 -28h14q-5 101 -9 185q-1 36 -3 69q-11 216 -16 236q12 24 20 49h117q17 -14 28 -14q32 -69 41 -69h318v-13q-146 -21 -318 -35q-38 0 -48 -207q35 -90 35 -138v-14
l-7 -14q11 -55 55 -55h104q41 0 55 97h7q20 -11 20 -21v-69l35 -7h131q76 19 76 76v34q0 7 -21 97v14q0 113 35 331q-28 97 -28 111z" />
    <glyph glyph-name="uni0437" unicode="&#x437;" horiz-adv-x="1271" 
d="M977 1101h138q21 0 56 21q-15 312 -49 312h-111q-96 -23 -96 -55q6 -13 6 -28v-35l-6 -14h6q0 -45 7 -138l-7 -14q13 -44 21 -55zM831 374l132 -21q64 21 76 21q111 0 111 -104q0 -83 7 -83l-7 -14q7 -83 7 -125q0 -48 -69 -48h-1053q-10 0 -21 21v62q0 23 -7 35
q0 20 2 38q1 85 5 197q-7 10 -14 89q0 12 14 14h82l14 -7q0 -13 -14 -55q26 -55 34 -110l1 -7q6 3 11 7q16 13 16 41v76q0 7 7 7q0 48 158 48h69q62 0 62 -117q-7 0 -7 -7q7 0 7 -7v-7l-7 -13h7l-1 -27q55 -3 87 -8q28 7 49 7l69 -7q0 50 35 284l-14 7h-28q-263 0 -263 28
l-7 28l7 34q0 15 -6 41l-7 23l-7 23q-19 57 -15 66q3 10 8 22h60q10 0 17 40h220q7 116 28 249q-7 12 -7 28h-221q-1 -123 -10 -176q-6 -40 -17 -40h-159q-8 0 -41 55q-111 26 -124 41q-78 -82 -82 -82h-7q7 147 7 206v7q0 31 -4 72v14q0 49 -7 152q33 42 125 42h90
q69 0 69 -173v-28h7q29 0 35 194h387q91 0 167 -173q0 -16 -7 -28q7 -47 7 -76v-76q0 -18 27 -21q57 0 146 7q83 -14 83 -35v-145q0 -7 7 -7l-7 -14v-7q0 -28 7 -55q0 -14 -7 -14q7 -69 7 -104v-187q0 -16 7 -28q0 -35 -256 -55q0 -12 -35 -14l-14 7q-28 -11 -28 -21v-7z
" />
    <glyph glyph-name="uni0438" unicode="&#x438;" horiz-adv-x="1410" 
d="M14 62v160q0 64 -7 181l7 14q-7 47 -7 76v396l-7 48q19 26 62 35q13 -5 98 -14q27 10 27 21q37 -7 42 -7q100 35 243 55q32 0 42 -194q-7 -38 -7 -76q0 -21 14 -21h34q174 17 174 42v6q-76 19 -76 42q27 159 48 181q35 0 104 -7q76 27 132 55q13 0 125 -7q139 17 139 97
v112l-7 34h-14q0 -4 -21 -104q0 -79 -97 -97l-104 21q-62 -35 -83 -35q-49 0 -49 42l21 173l-28 56q0 90 49 90h257q22 0 27 -69q0 -28 -14 -91v-7h14q11 0 35 63q0 104 63 104h41q18 0 28 -49q0 -6 -7 -55l7 -14l-7 -14q7 -47 7 -76v-257l7 -14q-7 0 -7 -7v-21q0 -15 7 -28
q-7 -12 -7 -27q0 -16 7 -28q-7 -12 -7 -28v-7q0 -15 7 -28q-7 -12 -7 -27v-7q0 -16 7 -28q-7 -12 -7 -28v-28l7 -13q-7 0 -7 -7v-42l7 -14q-7 0 -7 -7v-194l-7 -35q7 0 7 -7q-7 -76 -14 -76q-13 -271 -42 -271h-381q-43 0 -70 56q0 137 132 215q62 -7 76 -7q24 0 49 48
q154 0 229 49v7q-156 -14 -229 -14h-21q-9 0 -76 -14h-63q-24 0 -48 -28h-14l-7 63q0 187 -97 187h-97v-34q0 -21 27 -70q-22 -134 -34 -159q-127 -7 -236 -35v-21q95 0 104 -42q-7 -48 -14 -48q0 -153 -56 -153h-361q-53 0 -62 62zM14 1041q0 53 7 292q0 21 -21 69
q18 35 56 35h166q18 0 28 -49h49q58 49 76 49h83q47 0 63 -90h-7q0 -204 -104 -278q-147 0 -160 -42q-90 0 -90 -41q-146 36 -146 55z" />
    <glyph glyph-name="uni0439" unicode="&#x439;" horiz-adv-x="1410" 
d="M988 1764q-14 -175 -91 -175h-441q-66 0 -91 59q-8 17 -12 40l-6 18l-1 3q-6 16 -14 34q6 13 15 23l6 7l9 8q19 15 44 19q18 8 40 8h71q8 0 16 -7q16 -14 27 -58l5 -19q0 -5 -3 -28h210l-9 64q32 43 103 58q17 -6 105 -17l17 -1v-36zM423 1988v0h-4h4zM14 62
q9 -62 62 -62h359q55 0 55 152q7 0 14 48q-9 42 -103 42v21q108 27 235 34q12 25 33 159q-26 48 -26 69v34h96q97 0 97 -186l7 -63h13q24 28 48 28h63q67 14 75 14h21q73 0 228 14v-7q-74 -49 -228 -49q-25 -47 -48 -47q-14 0 -76 7q-131 -78 -131 -214q27 -56 69 -56h379
q29 0 42 270q7 0 14 75q0 7 -7 7l7 35v193q0 7 7 7l-7 14v42q0 7 7 7l-7 12v28q0 16 7 28q-7 12 -7 28v7q0 15 7 27q-7 13 -7 28v7q0 16 7 28q-7 11 -7 27q0 15 7 27q-7 13 -7 28v21q0 7 7 7l-7 14v255q0 29 -7 76l7 14l-7 14q7 49 7 55q-10 48 -28 48h-41q-62 0 -62 -103
q-24 -63 -35 -63h-14v7q14 63 14 91q-5 68 -27 68h-256q-48 0 -48 -89l28 -56l-21 -172q0 -42 48 -42q21 0 83 35l103 -21q97 18 97 97q21 99 21 103h14l7 -34v-111q0 -80 -139 -97q-111 7 -124 7q-56 -27 -131 -54q-69 7 -104 7q-21 -22 -47 -180q0 -23 75 -42v-6
q0 -25 -173 -42h-34q-14 0 -14 21q0 38 7 76q-10 193 -41 193q-143 -20 -242 -55q-5 0 -42 7q0 -11 -27 -21q-84 9 -97 14q-43 -9 -62 -35l7 -48v-394q0 -29 7 -75l-7 -14q7 -116 7 -180v-159zM159 981q0 41 90 41q13 41 159 41q103 74 103 277h7q-16 89 -62 89h-83
q-18 0 -76 -48h-48q-10 48 -28 48h-165q-38 0 -56 -34q21 -48 21 -69q-7 -238 -7 -291q0 -18 145 -54z" />
    <glyph glyph-name="uni043A" unicode="&#x43a;" horiz-adv-x="1279" 
d="M55 1443l35 -7h131q11 -1 69 -83v-186q-5 -159 -28 -159q7 -13 7 -21q-14 -62 -14 -69q0 -104 56 -138h20q90 21 97 21q46 -35 62 -35q0 7 7 7q-18 46 -55 76q-80 -14 -117 -14l-28 21q21 57 34 283q0 8 -6 21q6 75 6 131v69q0 23 -20 48v14q2 14 14 14h144q10 0 21 -21
q7 -261 7 -352q0 -13 35 -62l-14 -124l14 -7h34l83 -7q14 27 21 138q0 7 -7 21q14 122 14 262q36 152 76 152h345q55 0 55 -103q7 0 14 -49l-21 -166q7 -43 35 -117q0 -117 -76 -117q-104 0 -131 -90q-13 -7 -28 -7h-69q-35 0 -62 -34l124 -21h186l21 -14l-7 -48v-7
q0 -14 28 -111q-35 -218 -35 -331v-14q21 -90 21 -97v-34q0 -57 -76 -76h-131l-35 7v69q0 10 -20 21h-7q-14 -97 -55 -97h-104q-44 0 -55 55l7 14v14q0 48 -35 138q10 207 48 207q172 14 318 35v13h-318q-9 0 -41 69q-11 0 -28 14h-131q-7 -35 -14 -131q14 -52 14 -62
q-29 -28 -241 -28q-46 -18 -56 -41q7 0 7 -7q97 14 187 14q117 -9 117 -42q0 -255 -62 -255h-290q-38 0 -55 34q83 66 83 104v145h-7q-32 -17 -49 -159q-41 0 -103 -110h-14q21 461 28 490q-28 57 -35 124q0 325 104 325q0 8 131 27l20 21q-13 7 -20 7q-18 0 -55 -7
q-159 12 -159 35q15 400 34 400z" />
    <glyph glyph-name="uni043B" unicode="&#x43b;" horiz-adv-x="1464" 
d="M1351 749q0 -6 -7 -55q-76 -9 -124 -27q0 -10 28 -21q0 7 6 7h42q5 0 41 -55q0 -106 -7 -337q0 -254 -27 -254h-159q-8 0 -41 55q-111 26 -124 41q-78 -82 -82 -82h-7q7 147 7 206q0 109 -41 344l7 13l-14 7q-7 181 -7 213q0 17 89 97h152q65 0 144 34l-7 14
q-6 0 -55 -14l-14 7q0 -7 -7 -7h-20q-99 0 -193 28l-55 -49h-7l-20 14q0 48 -7 179q0 12 -48 41h-117q0 -30 -34 -48h-62q-13 0 -83 -34v-7l7 -14l69 7q41 -3 64 -8q32 -8 32 -20v-584q0 -122 -6 -330l-1 -7q2 -2 3 -8q6 -19 11 -81q0 -12 -14 -14h-82l-4 2l-10 5
q0 13 14 55q-28 59 -35 117q-27 -11 -27 -48v-76q0 -7 -7 -7q0 -38 -96 -46h-1h-3q-25 -2 -58 -2h-69q-8 0 -15 2h-282q-48 0 -48 90q-30 82 -35 84q15 104 62 104h122q10 0 21 -21v-42q-14 -49 -14 -55q0 -42 77 -42q6 -27 56 -90l6 -7q11 0 35 55q-20 0 -41 27
q-18 24 -36 71q-34 10 -34 20q9 84 62 84h8v32v0q1 47 1 80v80q8 -4 14 -4q41 14 165 28l116 -14v14q0 20 -123 34h-137q-17 0 -35 11v23l7 14q-7 0 -7 6v7l7 14q-7 0 -7 7v7l7 14q-7 0 -7 6v7l7 14q-7 0 -7 7v7l7 14q-7 0 -7 6v14l7 14q-7 0 -7 7v7l7 13q-7 0 -7 7v7l7 14
h-7q0 15 7 27l-7 14l7 14l-7 14l7 13l-7 14q7 12 7 28v220q0 99 -14 206q-47 23 -48 94v2l7 14q217 -7 323 -7h818q7 0 41 -55q-13 -320 -13 -626z" />
    <glyph glyph-name="uni043C" unicode="&#x43c;" horiz-adv-x="1728" 
d="M173 1443h241q55 0 55 -97v-27q0 -14 -13 -69l20 -97v-7q-74 -14 -172 -21v-13h165l42 -7q48 27 69 27h7q35 -24 55 -69v-20q-21 -27 -21 -63q19 -110 42 -110q221 -7 290 -7q0 7 7 7q0 -28 20 -48l49 7h103q23 0 35 6l41 -6h21q207 0 207 -49l35 -7h103q52 -8 55 -27
v-691q-30 -48 -69 -48h-262q-159 0 -159 97q-7 0 -7 6v401l-7 48h-7q-36 0 -117 7l-7 -14q0 -297 -62 -297h-62q-44 0 -90 -6q-117 0 -117 41l-42 269q-93 9 -110 14q-29 0 -55 -186l-69 -49q-132 0 -132 42q-17 54 -34 76l7 34q0 168 -69 200q-138 0 -138 56l-21 297
q0 55 152 55q2 10 145 55v14h-7q-64 0 -180 -7q-83 11 -110 41q0 235 35 235q76 7 138 7zM1153 1436h428q29 0 35 -138q-10 -435 -49 -435q-7 -21 -41 -21h-48l-132 49q-67 324 -145 324q-69 0 -69 42l14 48q0 12 -7 124zM1201 1146q20 0 83 -255q-39 -21 -179 -21h-7
q-138 4 -138 34q10 0 20 21v14q0 29 -6 76q27 131 62 131h165zM76 642h48q54 0 76 -145q14 0 14 -34q-7 -14 -7 -21q26 -131 62 -131q221 -15 221 -49l7 -34l-14 -7h-20q-60 0 -125 -7q-58 0 -117 76l-14 7l-7 -14q32 -97 62 -97q221 0 221 -48q14 -45 14 -62
q-39 -76 -76 -76h-172q-214 0 -214 48q-14 84 -14 132v400q0 62 55 62z" />
    <glyph glyph-name="uni043D" unicode="&#x43d;" horiz-adv-x="1311" 
d="M443 1434q70 -16 70 -62q0 -130 -132 -208q-59 7 -90 7q-19 -56 -104 -56q-99 0 -159 -41v-7q156 14 228 14h21q8 0 76 14h63q24 0 48 27h14q13 -242 62 -242q20 0 118 -21h64v256q0 49 97 49q0 7 13 7v21q-78 0 -104 34q26 208 56 208h374q62 -9 62 -62v-160
q0 -64 7 -180q0 -7 -7 -7l7 -83v-395l7 -41q0 -23 -55 -42l-104 14q-28 -10 -28 -21q-38 7 -55 7q-40 -25 -222 -55q-23 9 -42 27l-69 -6h-42q-39 0 -97 6l-139 -55q-97 7 -125 7q-131 -19 -131 -97v-111l7 -35h13q19 194 97 194l28 7q83 -20 97 -20q63 34 83 34
q36 0 49 -34q0 -15 -21 -181q21 -48 28 -48q0 -97 -49 -97h-256q-28 0 -28 83q0 7 14 83h-14q-48 -67 -48 -145q-26 -21 -49 -21h-41q-21 0 -28 55l7 49l-7 14q0 7 7 7l-7 83v256q0 7 -7 7l7 14v21q0 15 -7 27q7 13 7 28q0 16 -7 28q7 12 7 28v6q0 16 -7 28q7 12 7 28v7
q0 15 -7 28q7 12 7 27v28q0 7 -7 7l7 14v41q0 7 -7 7l7 14v194q0 16 7 28q0 7 -7 7q36 347 48 353h388zM1075 450q145 -36 145 -55v-7q-7 -265 -7 -291q0 -4 21 -69q-29 -28 -55 -28h-153q-41 0 -41 48h-35q-26 0 -76 -48h-97q-44 0 -62 83q20 181 62 243q0 35 187 62
q37 35 104 35q0 15 7 27z" />
    <glyph glyph-name="uni043E" unicode="&#x43e;" horiz-adv-x="1279" 
d="M34 1433h371q71 0 82 -89v-62q0 -10 20 -20h14q0 27 28 116v48q12 7 27 7h98q30 0 130 -103q44 19 130 41q18 55 62 55h103q23 0 48 -20q7 -149 14 -549q-28 -75 -62 -75l-41 6l-7 -13v-14q117 -14 117 -41q6 -38 6 -55q7 -460 7 -542q7 -36 7 -41q-23 -75 -68 -75h-613
q-123 0 -336 -7q-96 20 -96 27q-68 227 -68 542v295l-7 41l7 14q-7 212 -7 336v123q0 37 34 55zM501 1152q6 -196 13 -240q-7 -27 -7 -55v-21q0 -6 7 -6q-13 -25 -13 -55v-28q13 -202 13 -219v-206l7 -34h105q48 0 48 199q7 24 7 27h20q43 -41 62 -41q41 14 165 28l116 -14
v14q0 20 -123 34h-137q-53 0 -117 110q0 100 48 459q-20 48 -62 48h-152z" />
    <glyph glyph-name="uni043F" unicode="&#x43f;" horiz-adv-x="1215" 
d="M0 117q7 0 7 7q-7 0 -7 7v7l7 13h-7q7 162 7 241v172l7 14q-7 0 -7 6v7l7 14q-7 0 -7 7v7l7 14q-7 0 -7 6v7l7 14q-7 0 -7 7v7l7 14q-7 0 -7 6v14l7 14q-7 0 -7 7v7l7 13q-7 0 -7 7v7l7 14h-7q0 15 7 27l-7 14l7 14l-7 14l7 13l-7 14q7 12 7 28v220q0 99 -14 206
q-48 23 -48 96l7 14q217 -7 323 -7h818q7 0 41 -55q-13 -320 -13 -626q0 -6 -7 -55q-76 -9 -124 -27q0 -10 28 -21q0 7 6 7h42q5 0 41 -55q0 -106 -7 -337q0 -254 -27 -254h-159q-8 0 -41 55q-111 26 -124 41q-78 -82 -82 -82h-7q7 147 7 206q0 109 -41 344l7 13l-14 7
q-7 181 -7 213q0 17 89 97h152q65 0 144 34l-7 14q-6 0 -55 -14l-14 7q0 -7 -7 -7h-20q-99 0 -193 28l-55 -49h-7l-20 14q0 48 -7 179q0 12 -48 41h-117q0 -30 -34 -48h-62q-13 0 -83 -34v-7l7 -14l69 7q96 -7 96 -28v-584q0 -124 -7 -337q7 -10 14 -89q0 -12 -14 -14h-82
l-14 7q0 13 14 55q-28 59 -35 117q-27 -11 -27 -48v-76q0 -7 -7 -7q0 -48 -158 -48h-69q-62 0 -62 117z" />
    <glyph glyph-name="uni0440" unicode="&#x440;" horiz-adv-x="1196" 
d="M90 1433h951q55 0 55 -138q7 -38 7 -139q0 -55 -138 -55l-42 -35q3 -14 14 -14q33 0 69 7q90 -7 90 -48q0 -35 -6 -104l6 -69q-43 -125 -62 -125q0 -17 28 -76q-14 -83 -62 -83h-312q-14 0 -14 14l7 41h-21v35l-7 34q-74 -117 -92 -124q-42 7 -42 -28q-23 -512 -62 -512
l-49 -14h-373q-35 18 -35 55v125q0 125 7 339q0 7 -7 7l7 49v297q0 309 69 554zM584 1357q69 -35 69 -83h7v83l-41 55q-11 0 -35 -55zM533 1163q-14 -23 -14 -42v-186q0 -56 63 -70h71l7 35v256h-78z" />
    <glyph glyph-name="uni0441" unicode="&#x441;" horiz-adv-x="1285" 
d="M1164 1440q14 -7 21 -7v-41q0 -20 -41 -69q0 -172 -76 -172h-503q-48 0 -48 -200l-7 -28h-21q-43 42 -62 42q-41 -14 -165 -28l-117 14v-14q0 -21 124 -34h138q52 0 117 -111q0 -101 -49 -461q21 -49 62 -49h7q196 0 545 7q18 0 55 -55q-7 -81 -7 -117v-55q0 -62 -76 -62
h-34q-180 0 -180 83v69q0 9 -20 20h-14q0 -27 -28 -117v-48q-12 -7 -27 -7h-241q-31 0 -131 103q-44 -19 -131 -41q-18 -55 -62 -55h-103q-23 0 -49 21q-7 138 -13 551q27 76 62 76l41 -7l7 13v14q-117 14 -117 42q-7 37 -7 55q-7 462 -7 544q0 5 -7 41q23 76 69 76h654
q155 0 441 7z" />
    <glyph glyph-name="uni0442" unicode="&#x442;" horiz-adv-x="1266" 
d="M41 1434h766l20 -14q-69 -145 -69 -172q16 0 21 -35q-14 -61 -14 -82q16 -49 21 -49l-7 -34v-993q-41 -55 -96 -55h-318q-48 0 -69 83l7 48v62q0 186 118 186q0 9 41 14q61 -7 76 -7l138 21q35 -14 55 -14l7 14q-7 0 -35 34q-95 -14 -151 -14q-133 14 -187 14h-13
q-7 0 -7 -7q-30 0 -35 76q7 472 7 600q21 135 55 172v14q-61 0 -96 -124l-35 -7q-53 0 -193 -7q-37 0 -48 145q14 131 41 131zM869 1434h103q120 0 186 -14v-20q0 -21 21 -56q-46 -179 -110 -179q0 -7 -7 -7q-214 0 -214 48q0 5 -21 97q32 131 42 131z" />
    <glyph glyph-name="uni0443" unicode="&#x443;" horiz-adv-x="1305" 
d="M1123 1433q55 0 55 -103q7 0 14 -49l-21 -165q7 -43 35 -117q0 -117 -76 -117q-104 0 -131 -90q-12 -7 -28 -7h-68q-35 0 -62 -34l124 -21h186l20 -13l-7 -49v-7q0 -14 28 -110q-35 -224 -35 -317q14 -34 21 -34q0 -8 -7 -21q7 -72 7 -117q-28 -62 -69 -62h-1026
q-49 0 -49 90q-29 80 -34 82q15 104 62 104h276q9 0 20 -21v-41q-14 -50 -14 -56q0 -41 76 -41q7 -27 62 -96q11 0 35 55q-39 0 -76 96q-35 11 -35 21q10 83 62 83h207q0 28 21 186v34q0 31 -42 62q-174 7 -254 7h-221l-14 7q13 69 55 69h69q35 0 62 34l-124 21h-186l-20 14
l7 48v7q0 14 -28 110q34 218 34 331v13q-20 90 -20 97v34q0 57 76 76h130l35 -7v-69q0 -10 21 -20h6q14 96 56 96h103q44 0 55 -55l-7 -14v-14q0 -48 35 -137q-10 -207 -49 -207q-170 -14 -317 -34v-14h317l49 -69l20 -14h48l83 -7q14 27 21 138q0 7 -7 21q14 122 14 261
q36 152 76 152h344z" />
    <glyph glyph-name="uni0444" unicode="&#x444;" horiz-adv-x="1952" 
d="M963 864q0 78 131 97q25 0 105 -5v165q0 3 2 29q3 6 7 13l49 -7h77v-19q0 -16 -7 -28l7 -14l-7 -13l7 -14l-7 -14l7 -14q-7 -12 -7 -27h7l-7 -14v-7q0 -7 7 -7l-7 -13v-7q0 -7 7 -7l-7 -14v-14q0 -6 7 -6l-5 -10l-2 -4v-7q0 -3 2 -5l2 -1l3 -1l-3 -6l-4 -8v-7q0 -4 4 -5
l3 -1v0v0l-2 -4l-1 -2l-4 -8v-7q0 -5 4 -6v0l3 -1l-3 -6l-1 -3l-3 -5v-7l1 -3q1 -2 3 -2l3 -1l-3 -6l-4 -8v-26l-5 -8q-22 -33 -32 -33q-49 -3 -88 -5q0 43 -1 96q0 20 -1 41v35q-21 2 -92 19l-28 -7q-78 0 -97 -194h-13l-7 35v111zM1678 1336h62q34 18 34 48h78
q-3 49 -42 49h-1765q-42 0 -42 -55q0 -10 -3 -24q7 -6 7 -11q7 -131 7 -179l11 -8h273q10 0 21 21v0v41q0 7 -14 56q0 41 75 41q3 13 17 34q15 26 45 63q10 0 34 -55q-12 0 -24 -10q-26 -21 -51 -87q-35 -7 -35 -28q6 -29 16 -47h3l6 -13l1 -1q-79 -34 -144 -34h-152
q-89 -80 -89 -97q0 -32 6 -210l1 -3l14 -7l-7 -13q26 -153 36 -252q5 -54 5 -92q0 -59 -7 -206h7q4 0 82 82q7 -8 46 -20q30 -10 78 -21q23 -39 34 -50q57 -3 142 -3l27 -1q117 -3 200 -5h1l3 -34q17 -191 40 -191l21 -6l28 -8h369q11 6 18 13v-4l5 4l1 2q15 16 15 40v97
q4 31 7 70q188 -3 379 -11q55 34 55 41v33q3 2 3 6v76q0 37 27 48q7 -58 35 -117q-14 -42 -14 -55l14 -7h82q14 2 14 14q-7 79 -14 89q4 121 6 215q1 69 1 122v584q0 21 -96 28l-54 -5l-15 -2l-7 14v7q13 6 23 11q49 23 60 23zM654 935q0 -8 -1 -14v-3v-15q0 -11 -1 -20v-51
q-1 -68 -1 -130v0q-87 -13 -152 -19q3 94 3 151q-13 19 -21 31q-17 24 -20 24h-42q-6 0 -6 -7q-28 11 -28 21l15 5q44 15 109 22q7 49 7 55q0 84 1 171h75l48 7q7 -12 11 -23l1 -2q2 -9 2 -17v-186z" />
    <glyph glyph-name="uni0445" unicode="&#x445;" horiz-adv-x="1314" 
d="M1131 1433q55 0 55 -103q7 0 14 -48l-21 -164q7 -43 35 -117q0 -117 -76 -117q-103 0 -130 -89q-12 -7 -28 -7h-68q-34 0 -62 -34l124 -20h185l20 -14l-7 -48v-7q0 -14 28 -110q-34 -216 -34 -329v-13q20 -90 20 -96v-35q0 -56 -75 -75h-131l-34 7v68q0 10 -20 21h-7
q-13 -96 -55 -96h-103q-43 0 -55 55l7 13v14q0 48 -34 137q9 206 48 206q170 14 315 34v14h-315l-48 69l-21 13h-48l-82 7q-14 -26 -21 -137q0 -7 7 -21q-13 -121 -13 -260q-37 -151 -76 -151h-343q-55 0 -55 103q-6 0 -13 48l20 164q-7 43 -34 117q0 117 75 117
q104 0 131 89q12 7 27 7h69q34 0 61 34l-123 20h-185l-21 14l7 48v7q0 14 -27 110q34 216 34 329v13q-21 90 -21 96v35q0 56 76 75h130l34 -7v-68q0 -10 21 -21h7q13 96 55 96h103q43 0 54 -55l-6 -13v-14q0 -48 34 -137q-10 -206 -48 -206q-170 -14 -316 -34v-14h316
l48 -69l20 -13h48l83 -7q13 26 20 137q0 7 -7 21q14 121 14 260q36 151 75 151h343z" />
    <glyph glyph-name="uni0446" unicode="&#x446;" horiz-adv-x="1269" 
d="M858 7h-548q-106 0 -323 -7l-7 14q0 73 48 96q14 107 14 206v220q0 16 -7 28l7 14l-7 13l7 14l-7 14l7 14q-7 12 -7 27h7l-7 14v7q0 7 7 7l-7 13v7q0 7 7 7l-7 14v14q0 6 7 6l-7 14v7q0 7 7 7l-7 14v7q0 6 7 6l-7 14v7q0 7 7 7l-7 14v7q0 6 7 6l-7 14v172q0 80 -7 241h7
l-7 13v7q0 7 7 7q0 7 -7 7q0 117 62 117h69q158 0 158 -48q7 0 7 -7v-76q0 -37 27 -48q7 58 35 117q-14 42 -14 55l14 7h82q14 -2 14 -14q-7 -79 -14 -89q7 -212 7 -337v-584q0 -21 -96 -28l-69 7l-7 -14v-7q70 -34 83 -34h62q34 -18 34 -48h117q48 29 48 41q7 132 7 179
l20 14h7l55 -49q94 28 193 28h20q7 0 7 -7l14 7q49 -14 55 -14l7 14q-79 34 -144 34h-152q-89 80 -89 97q0 33 7 213l14 7l-7 13q41 235 41 344q0 60 -7 206h7q4 0 82 -82q13 15 124 41q33 55 41 55h159q27 0 27 -254q7 -230 7 -337q-36 -55 -41 -55h-42q-6 0 -6 7
q-28 -11 -28 -21q48 -18 124 -27q7 -49 7 -55q0 -193 5 -392q-25 -9 -45 -26q-90 -13 -137 -29q-27 -9 -43 -20q-18 -13 -23 -31q-35 -56 -55 -183zM1344 -147h-153q-41 0 -41 48h-35q-26 0 -76 -48h-97q-44 0 -62 83q5 39 10 71q19 123 52 172q0 35 187 62q15 13 33 22
q30 13 71 13q0 15 7 27q145 -36 145 -55v-7q-7 -265 -7 -291q0 -4 21 -69q-29 -28 -55 -28z" />
    <glyph glyph-name="uni0447" unicode="&#x447;" horiz-adv-x="1196" 
d="M1103 180v-125q0 -37 -35 -55h-373l-49 14q-39 0 -62 512q0 35 -42 28q-18 7 -92 124l-7 -34v-35h-21l7 -41q0 -14 -14 -14h-312q-48 0 -62 83q28 59 28 76q-19 0 -62 125l6 69q-6 69 -6 104q0 41 90 48q36 -7 69 -7q11 0 14 14l-42 35q-138 0 -138 55q0 101 7 139
q0 138 55 138h381v-533l7 -35h71q63 14 63 70l7 323q0 48 69 83q-24 55 -35 55l-41 -55v92h429l14 -7q69 -245 69 -554v-297l7 -49q-7 0 -7 -7q7 -214 7 -339z" />
    <glyph glyph-name="uni0448" unicode="&#x448;" horiz-adv-x="2025" 
d="M1905 2h-766q-5 0 -10 5h-799q-106 0 -323 -7l-7 14q0 73 48 96q14 107 14 206v220q0 16 -7 28l7 14l-7 13l7 14l-7 14l7 14q-7 12 -7 27h7l-7 14v7q0 7 7 7l-7 13v7q0 7 7 7l-7 14v14q0 6 7 6l-7 14v7q0 7 7 7l-7 14v7q0 6 7 6l-7 14v7q0 7 7 7l-7 14v7q0 6 7 6l-7 14
v172q0 79 -7 241h7l-7 13v7q0 7 7 7q0 7 -7 7q0 117 62 117h69q158 0 158 -48q7 0 7 -7v-76q0 -37 27 -48q7 58 35 117q-14 42 -14 55l14 7h82q14 -2 14 -14q-7 -79 -14 -89q7 -213 7 -337v-584q0 -21 -96 -28l-69 7l-7 -14v-7q70 -34 83 -34h62q34 -18 34 -48h117
q48 29 48 41q7 131 7 179l20 14h7l55 -49q94 28 193 28h20q7 0 7 -7l14 7q49 -14 55 -14l7 14q-79 34 -144 34h-152q-89 80 -89 97q0 32 7 213l14 7l-7 13q41 235 41 344q0 59 -7 206h7q4 0 82 -82q13 15 124 41q33 55 41 55h159q27 0 27 -254q7 -231 7 -337
q-36 -55 -41 -55h-42q-6 0 -6 7q-28 -11 -28 -21q48 -18 124 -27q7 -49 7 -55q0 -203 6 -412q111 -5 157 -5l35 -7q35 -124 96 -124v14q-34 37 -55 172q0 128 -7 600q5 76 35 76q0 -7 7 -7h13q55 0 187 14q56 0 151 -14q28 34 35 34l-7 14q-20 0 -55 -14l-138 21
q-15 0 -76 -7q-41 5 -41 14q-118 0 -118 186v62l-7 48q21 83 69 83h318q55 0 96 -55v-993l7 -34q-5 0 -21 -49q0 -21 14 -82q-5 -35 -21 -35q0 -27 69 -172z" />
    <glyph glyph-name="uni0449" unicode="&#x449;" horiz-adv-x="2063" 
d="M1649 6h-530q-5 0 -10 5h-799q-106 0 -323 -7l-7 14q0 73 48 96q14 107 14 206v220q0 16 -7 28l7 14l-7 13l7 14l-7 14l7 14q-7 12 -7 27h7l-7 14v7q0 7 7 7l-7 13v7q0 7 7 7l-7 14v14q0 6 7 6l-7 14v7q0 7 7 7l-7 14v7q0 6 7 6l-7 14v7q0 7 7 7l-7 14v7q0 6 7 6l-7 14
v172q0 80 -7 241h7l-7 13v7q0 7 7 7q0 7 -7 7q0 117 62 117h69q158 0 158 -48q7 0 7 -7v-76q0 -37 27 -48q7 58 35 117q-14 42 -14 55l14 7h82q14 -2 14 -14q-7 -79 -14 -89q7 -212 7 -337v-584q0 -21 -96 -28l-69 7l-7 -14v-7q70 -34 83 -34h62q34 -18 34 -48h117
q48 29 48 41q7 132 7 179l20 14h7l55 -49q94 28 193 28h20q7 0 7 -7l14 7q49 -14 55 -14l7 14q-79 34 -144 34h-152q-89 80 -89 97q0 33 7 213l14 7l-7 13q41 235 41 344q0 60 -7 206h7q4 0 82 -82q13 15 124 41q33 55 41 55h159q27 0 27 -254q7 -230 7 -337
q-36 -55 -41 -55h-42q-6 0 -6 7q-28 -11 -28 -21q48 -18 124 -27q7 -49 7 -55q0 -203 6 -411q111 -6 157 -6l35 -7q35 -124 96 -124v14q-34 37 -55 172q0 129 -7 600q5 76 35 76q0 -7 7 -7h13q55 0 187 14q56 0 151 -14q28 34 35 34l-7 14q-20 0 -55 -14l-138 21
q-15 0 -76 -7q-41 5 -41 14q-118 0 -118 186v62l-7 48q21 83 69 83h318q55 0 96 -55v-993l7 -34q-5 0 -21 -49q0 -21 14 -82q-5 -35 -21 -35q0 -5 3 -14q-56 -10 -91 -21q-23 -8 -36 -16q-20 -13 -23 -29q-24 -37 -40 -106zM2110 -221h-153q-41 0 -41 48h-35q-26 0 -76 -48
h-97q-44 0 -62 83q4 39 10 71q6 41 14 73q16 66 38 99q0 30 137 54q23 4 50 8q14 13 33 22q30 13 71 13q0 15 7 27q145 -36 145 -55v-7q-7 -265 -7 -291q0 -4 21 -69q-29 -28 -55 -28z" />
    <glyph glyph-name="uni044A" unicode="&#x44a;" horiz-adv-x="1428" 
d="M851 21l41 55v83h-7q0 -48 -69 -83q24 -55 35 -55zM814 277h78v256l-7 35h-71q-63 -14 -63 -70v-186q0 -19 14 -42zM265 1432q1 1 2 1h373l49 -14q39 0 62 -512q0 -35 42 -28q18 -7 92 -124l7 34v35h21l-7 41q0 14 14 14h312q48 0 62 -83q-28 -59 -28 -76q19 0 62 -125
l-6 -69q6 -69 6 -104q0 -41 -90 -48q-36 7 -69 7q-11 0 -14 -14l42 -35q138 0 138 -55q0 -101 -7 -139q0 -138 -55 -138h-951l-14 7q-69 245 -69 554v297l-7 49q7 0 7 7q-5 139 -6 240h-59q-53 0 -62 84q0 10 34 20q38 98 77 98q-24 55 -35 55q-56 -69 -62 -97
q-77 0 -77 -42q0 -6 14 -55v-42q-11 -21 -21 -21h-122q-47 0 -62 104q5 2 35 84q0 90 48 90h324z" />
    <glyph glyph-name="uni044B" unicode="&#x44b;" horiz-adv-x="1792" 
d="M76 7q-69 245 -69 554v297l-7 49q7 0 7 7q-7 214 -7 339v125q0 37 35 55h373l49 -14q39 0 62 -512q0 -35 42 -28q18 -7 92 -124l7 34v35h21l-7 41q0 14 14 14h312q48 0 62 -83q-28 -59 -28 -76q19 0 62 -125l-6 -69q6 -69 6 -104q0 -41 -90 -48q-36 7 -69 7
q-11 0 -14 -14l42 -35q138 0 138 -55q0 -101 -7 -139q0 -138 -55 -138h-951zM619 21l41 55v83h-7q0 -48 -69 -83q24 -55 35 -55zM582 277h78v256l-7 35h-71q-63 -14 -63 -70v-186q0 -19 14 -42zM1255 1433q-34 0 -41 -21v-138q0 -87 -7 -215l7 -14l-7 -62q0 -214 -7 -879
q28 -104 48 -104h180l21 14q-14 27 -14 76v28q0 11 14 14q89 -132 132 -132h41q45 0 63 55q-7 547 -7 838v132q0 20 -90 34q-46 -7 -90 -7v14q0 9 62 42h69q63 10 63 55q-7 37 -7 62v90q0 118 -56 118h-374z" />
    <glyph glyph-name="uni044C" unicode="&#x44c;" horiz-adv-x="1196" 
d="M76 7q-69 245 -69 554v297l-7 49q7 0 7 7q-7 214 -7 339v125q0 37 35 55h373l49 -14q39 0 62 -512q0 -35 42 -28q18 -7 92 -124l7 34v35h21l-7 41q0 14 14 14h312q48 0 62 -83q-28 -59 -28 -76q19 0 62 -125l-6 -69q6 -69 6 -104q0 -41 -90 -48q-36 7 -69 7
q-11 0 -14 -14l42 -35q138 0 138 -55q0 -101 -7 -139q0 -138 -55 -138h-951zM619 21l41 55v83h-7q0 -48 -69 -83q24 -55 35 -55zM582 277h78v256l-7 35h-71q-63 -14 -63 -70v-186q0 -19 14 -42z" />
    <glyph glyph-name="uni044D" unicode="&#x44d;" horiz-adv-x="1285" 
d="M0 1433q7 0 21 7q286 -7 441 -7h654q46 0 69 -76q-7 -36 -7 -41q0 -82 -7 -544q0 -18 -7 -55q0 -28 -117 -42v-14l7 -13l41 7q35 0 62 -76q-6 -413 -13 -551q-26 -21 -49 -21h-103q-44 0 -62 55q-87 22 -131 41q-100 -103 -131 -103h-241q-15 0 -27 7v48q-28 90 -28 117
h-14q-20 -11 -20 -20v-69q0 -83 -180 -83h-34q-76 0 -76 62v55q0 36 -7 117q37 55 55 55q349 -7 545 -7h7q41 0 62 49q-9 64 -16 122q-88 11 -144 11q-59 0 -206 -7v7q0 4 82 82q-15 13 -41 124q-55 33 -55 41v159q0 27 254 27q109 4 188 6h17h127q124 13 124 34v14
l-117 -14q-124 14 -165 28q-19 0 -62 -42h-21l-7 28q0 200 -48 200h-503q-76 0 -76 172q-41 49 -41 69v41z" />
    <glyph glyph-name="uni044E" unicode="&#x44e;" horiz-adv-x="1888" 
d="M1644 484l-116 14q-124 -14 -165 -28q-19 0 -62 41h-20q0 -3 -7 -27q0 -199 -48 -199h-105l-7 34v206q0 17 -13 219v28q0 30 13 55q-7 0 -7 6v21q0 28 7 55q-7 44 -13 240h152q42 0 62 -48q-48 -359 -48 -459q64 -110 117 -110h137q123 -14 123 -34v-14zM1774 665
q0 17 -6 55q0 27 -117 41v14l7 13l41 -6q34 0 62 75q-7 400 -14 549q-25 20 -48 20h-103q-44 0 -62 -55q-86 -22 -130 -41q-100 103 -130 103h-98q-15 0 -27 -7v-48q-28 -89 -28 -116h-14q-20 10 -20 20v62q-11 89 -82 89h-371q-34 -18 -34 -55v-123q0 -124 7 -336l-7 -14
l7 -41v-21q-12 21 -35 21h-94v161q0 20 -90 34q-46 -7 -90 -7v14q0 9 62 42h69q63 10 63 55q-7 37 -7 62v90q0 118 -56 118h-374q-34 0 -41 -21v-138q0 -87 -7 -215l7 -14l-7 -62q0 -213 -7 -879q28 -104 48 -104h180l21 14q-14 27 -14 76v28q0 11 14 14q89 -132 132 -132
h41q45 0 63 55q-4 306 -6 531h114q7 0 14 3v-20q0 -315 68 -542q0 -7 96 -27q213 7 336 7h613q45 0 68 75q0 5 -7 41q0 82 -7 542z" />
    <glyph glyph-name="uni044F" unicode="&#x44f;" horiz-adv-x="1285" 
d="M1160 1043q0 -23 -159 -35q-37 7 -55 7q-7 0 -20 -7l20 -21q131 -19 131 -27q104 0 104 -325q-7 -67 -35 -124q7 -29 28 -490h-14q-62 110 -103 110q-17 142 -49 159h-7v-145q0 -38 83 -104q-17 -34 -55 -34h-290q-62 0 -62 255q0 33 117 42q90 0 187 -14q0 7 7 7
q-10 23 -56 41q-212 0 -241 28q0 10 14 62q-7 96 -14 131h-131q-17 -14 -28 -14q-32 -69 -41 -69h-318v-13q146 -21 318 -35q38 0 48 -207q-35 -90 -35 -138v-14l7 -14q-11 -55 -55 -55h-104q-41 0 -55 97h-7q-20 -11 -20 -21v-69l-35 -7h-131q-76 19 -76 76v34q0 7 21 97
v14q0 113 -35 331q28 97 28 111v7l-7 48l21 14h186l124 21q-27 34 -62 34h-69q-15 0 -28 7q-27 90 -131 90q-76 0 -76 117q28 74 35 117l-21 166q7 49 14 49q0 103 55 103h773q12 0 14 -14v-14q-20 -25 -20 -48v-69q0 -56 6 -131q-6 -13 -6 -21q13 -226 34 -283l-28 -21
q-37 0 -117 14q-37 -30 -55 -76q7 0 7 -7q16 0 62 35q7 0 97 -21h20q56 34 56 138q0 7 -14 69q0 8 7 21q-23 0 -28 159v186q58 82 69 83h131l35 7q19 0 34 -400zM539 1146q-28 -17 -28 -28v-20q0 -33 7 -69l-7 -28q7 -111 21 -138l83 7h34l14 7l-14 124q35 47 35 69v42
l-7 34h-138z" />
    <glyph glyph-name="uni0451" unicode="&#x451;" horiz-adv-x="1255" 
d="M229 339q8 -11 20 -55l-7 -14q7 -93 7 -138h7l-7 -14v-35q0 -15 7 -28q0 -32 -97 -55h-111q-33 0 -48 312q35 21 55 21h139zM667 1566q0 -28 17 -34q56 5 182 -1q85 23 85 40v147l-11 17q-22 -11 -62 -11h-23q-9 0 -12 11q108 73 108 108v33q0 37 -45 52q-175 -8 -207 -9
q-32 -2 -32 -47v-306zM83 1434h1053q10 0 21 -21v-62q0 -23 7 -35q0 -166 -83 -166h-35q-317 0 -416 14q-27 -7 -48 -7l-69 7q0 -50 -35 -284l14 -7h28q263 0 263 -28l7 -28l-7 -34q0 -72 41 -97l14 7l-7 34q0 132 83 132q59 0 208 7q7 -13 7 -21q0 -58 7 -222
q-26 -55 -69 -55h-180q-35 0 -63 62h-7q0 -62 -48 -62h-256q-7 -116 -28 -249q7 -12 7 -28h540q14 -2 14 -14v-14l-35 -7h-103q-26 -13 -35 -41q7 0 7 -7l69 7h97q27 0 83 69h7q14 -2 14 -14v-76q0 -49 7 -152q-34 -42 -125 -42h-90q-69 0 -69 173v28h-7q-30 0 -35 -194
h-388q-90 0 -166 173q0 16 7 28q-7 47 -7 76v76q0 18 -28 21q-55 0 -145 -7q-83 14 -83 35v145q0 7 -7 7l7 14v7q0 28 -7 55q0 14 7 14q-7 69 -7 104v187q0 16 -7 28q0 35 256 55q0 12 35 14l14 -7q27 11 27 21v7l-131 21q-64 -21 -76 -21q-111 0 -111 104q0 83 -7 83l7 14
q-7 83 -7 125q0 48 69 48zM235 1563q0 -27 17 -33q57 5 182 -1q86 23 86 39v147l-12 18q-22 -12 -62 -12h-23q-9 0 -11 12q108 72 108 108v33q0 37 -45 52q-175 -9 -208 -10q-32 -1 -32 -47v-306z" />
    <glyph glyph-name="uni0454" unicode="&#x454;" horiz-adv-x="1285" 
d="M1185 1392q0 -20 -41 -69q0 -172 -76 -172h-503q-48 0 -48 -200l-7 -28h-21q-43 42 -62 42q-41 -14 -165 -28l-117 14v-14q0 -21 124 -34h127h17q79 -2 188 -6q254 0 254 -27v-159q0 -8 -55 -41q-26 -111 -41 -124q82 -78 82 -82v-7q-147 7 -206 7q-56 0 -144 -11
q-7 -58 -16 -122q21 -49 62 -49h7q196 0 545 7q18 0 55 -55q-7 -81 -7 -117v-55q0 -62 -76 -62h-34q-180 0 -180 83v69q0 9 -20 20h-14q0 -27 -28 -117v-48q-12 -7 -27 -7h-241q-31 0 -131 103q-44 -19 -131 -41q-18 -55 -62 -55h-103q-23 0 -49 21q-7 138 -13 551
q27 76 62 76l41 -7l7 13v14q-117 14 -117 42q-7 37 -7 55q-7 462 -7 544q0 5 -7 41q23 76 69 76h654q155 0 441 7q14 -7 21 -7v-41z" />
    <glyph glyph-name="uni0456" unicode="&#x456;" 
d="M55 1433h374q56 0 56 -118v-90q0 -25 7 -62q0 -45 -63 -55h-69q-62 -33 -62 -42v-14q44 0 90 7q90 -14 90 -34v-132q0 -292 7 -838q-18 -55 -63 -55h-41q-43 0 -132 132q-14 -3 -14 -14v-28q0 -49 14 -76l-21 -14h-180q-20 0 -48 104q7 666 7 879l7 62l-7 14q7 128 7 215
v138q7 21 41 21z" />
    <glyph glyph-name="uni0457" unicode="&#x457;" 
d="M55 1433h374q56 0 56 -118v-90q0 -25 7 -62q0 -45 -63 -55h-69q-62 -33 -62 -42v-14q44 0 90 7q90 -14 90 -34v-132q0 -292 7 -838q-18 -55 -63 -55h-41q-43 0 -132 132q-14 -3 -14 -14v-28q0 -49 14 -76l-21 -14h-180q-20 0 -48 104q7 666 7 879l7 62l-7 14q7 128 7 215
v138q7 21 41 21zM327 1872q0 45 32 47q32 1 207 9q45 -15 45 -52v-33q0 -35 -108 -108q3 -11 12 -11h23q40 0 62 11l11 -17v-147q0 -17 -85 -40q-126 6 -182 1q-17 6 -17 34v306zM-105 1869q0 46 32 47q33 1 208 10q45 -15 45 -52v-33q0 -36 -108 -108q2 -12 11 -12h23
q40 0 62 12l12 -18v-147q0 -16 -86 -39q-125 6 -182 1q-17 6 -17 33v306z" />
    <glyph glyph-name="uni0490" unicode="&#x490;" horiz-adv-x="1162" 
d="M1062 1238q-17 -79 -58 -79h-122q-10 0 -21 21v42q14 49 14 55q0 42 -77 42q-6 28 -62 97q-11 0 -35 -55q39 0 77 -98q34 -10 34 -20q-9 -84 -62 -84h-167l-20 3l-28 4q-14 -23 -14 -41v-209q-14 -205 -14 -222v-28q0 -48 14 -48l-7 -14v-21q0 -40 7 -49
q-23 -520 -63 -520l-48 -14h-375q-35 18 -35 55v125q0 126 7 340q0 7 -7 7l7 49v299q0 309 69 555l14 7h478q2 47 2 80v160q0 53 61 62h369q30 0 56 -208q-26 -34 -103 -34v-21q13 0 13 -7q96 0 96 -49v-182z" />
    <glyph glyph-name="uni0491" unicode="&#x491;" horiz-adv-x="1162" 
d="M1062 1238q-17 -79 -58 -79h-122q-10 0 -21 21v42q14 49 14 55q0 42 -77 42q-6 28 -62 97q-11 0 -35 -55q39 0 77 -98q34 -10 34 -20q-9 -84 -62 -84h-167l-20 3l-28 4q-14 -23 -14 -41v-209q-14 -205 -14 -222v-28q0 -48 14 -48l-7 -14v-21q0 -40 7 -49
q-23 -520 -63 -520l-48 -14h-375q-35 18 -35 55v125q0 126 7 340q0 7 -7 7l7 49v299q0 309 69 555l14 7h478q2 47 2 80v160q0 53 61 62h369q30 0 56 -208q-26 -34 -103 -34v-21q13 0 13 -7q96 0 96 -49v-182z" />
  </font>
</defs>
</svg>
